solid OpenSCAD_Model
  facet normal 0 0 -1
    outer loop
      vertex -38.3881 86.3972 22.19
      vertex -25.8034 86.3972 22.19
      vertex -38.3881 83.9899 22.19
    endloop
  endfacet
  facet normal 1 -0 0
    outer loop
      vertex -38.3881 83.9899 22.19
      vertex -38.3881 86.3972 19
      vertex -38.3881 86.3972 22.19
    endloop
  endfacet
  facet normal 1 0 0
    outer loop
      vertex -38.3881 86.3972 19
      vertex -38.3881 83.9899 22.19
      vertex -38.3881 83.9899 19
    endloop
  endfacet
  facet normal 0 -1 0
    outer loop
      vertex -38.3881 86.3972 19
      vertex -25.8034 86.3972 22.19
      vertex -38.3881 86.3972 22.19
    endloop
  endfacet
  facet normal 0 -1 -0
    outer loop
      vertex -25.8034 86.3972 22.19
      vertex -38.3881 86.3972 19
      vertex -25.8034 86.3972 19
    endloop
  endfacet
  facet normal -1 0 0
    outer loop
      vertex -23.4981 86.8382 -3
      vertex -23.4981 91.2823 19
      vertex -23.4981 91.2823 -3
    endloop
  endfacet
  facet normal -1 -0 0
    outer loop
      vertex -23.4981 91.2823 19
      vertex -23.4981 86.8382 -3
      vertex -23.4981 86.8382 19
    endloop
  endfacet
  facet normal -0 0 -1
    outer loop
      vertex -38.3881 83.9899 19
      vertex -38.4981 83.9688 19
      vertex -38.3881 86.3972 19
    endloop
  endfacet
  facet normal 0 0 -1
    outer loop
      vertex -25.8034 86.3972 19
      vertex -23.4981 91.2823 19
      vertex -23.4981 86.8382 19
    endloop
  endfacet
  facet normal 0 0 -1
    outer loop
      vertex -38.4981 88.4215 19
      vertex -25.8034 86.3972 19
      vertex -38.3881 86.3972 19
    endloop
  endfacet
  facet normal 0 0 -1
    outer loop
      vertex -25.8034 86.3972 19
      vertex -38.4981 88.4215 19
      vertex -23.4981 91.2823 19
    endloop
  endfacet
  facet normal 0 0 -1
    outer loop
      vertex -38.4981 88.4215 19
      vertex -38.3881 86.3972 19
      vertex -38.4981 83.9688 19
    endloop
  endfacet
  facet normal 1 -0 0
    outer loop
      vertex -38.4981 83.9688 19
      vertex -38.4981 88.4215 -3
      vertex -38.4981 88.4215 19
    endloop
  endfacet
  facet normal 1 0 0
    outer loop
      vertex -38.4981 88.4215 -3
      vertex -38.4981 83.9688 19
      vertex -38.4981 83.9688 -3
    endloop
  endfacet
  facet normal 0.377903 -0.809943 0.448533
    outer loop
      vertex 82.0521 -39.6168 35.6328
      vertex -15.1104 -71.6456 59.6589
      vertex 82.1844 -53.9749 9.59402
    endloop
  endfacet
  facet normal 0.95746 -0.0788155 0.277596
    outer loop
      vertex 82.0521 48.2126 60.5695
      vertex 82.0521 -39.6168 35.6328
      vertex 89.5927 -46.8493 7.57092
    endloop
  endfacet
  facet normal 0.367498 -0.828978 0.421593
    outer loop
      vertex -15.1104 -71.6456 59.6589
      vertex -51.1144 -109.017 17.5599
      vertex 82.1844 -53.9749 9.59402
    endloop
  endfacet
  facet normal 0.715492 0.508078 0.479508
    outer loop
      vertex 89.5927 70.3259 37.3354
      vertex 82.1844 75.5421 42.8626
      vertex 89.5927 67.7177 40.099
    endloop
  endfacet
  facet normal -0.218628 -0.56106 0.798382
    outer loop
      vertex -37.1686 -84.7216 44.4294
      vertex -55.0044 -107.075 23.8365
      vertex -15.1104 -71.6456 59.6589
    endloop
  endfacet
  facet normal -0.511667 -0.10475 0.852775
    outer loop
      vertex -32.5089 60.8588 81.2117
      vertex -66.7035 -62.4677 45.5461
      vertex -29.004 54.5247 82.5366
    endloop
  endfacet
  facet normal 0.575711 0.817653 0
    outer loop
      vertex 82.1844 75.5421 -3
      vertex 89.5927 70.3259 37.3354
      vertex 89.5927 70.3259 -3
    endloop
  endfacet
  facet normal 0.575711 0.817653 0
    outer loop
      vertex 89.5927 70.3259 37.3354
      vertex 82.1844 75.5421 -3
      vertex 82.1844 75.5421 42.8626
    endloop
  endfacet
  facet normal 0.187102 0.802927 0.565951
    outer loop
      vertex 37.9318 88.1883 39.551
      vertex -39.7211 88.1883 65.2229
      vertex 82.1844 75.5421 42.8626
    endloop
  endfacet
  facet normal 0.697423 -0.62607 0.348766
    outer loop
      vertex 89.5927 -46.8493 7.57092
      vertex 82.0521 -39.6168 35.6328
      vertex 82.1844 -53.9749 9.59402
    endloop
  endfacet
  facet normal 0.95746 -0.0788154 0.277595
    outer loop
      vertex 89.5927 67.7177 40.099
      vertex 82.0521 48.2126 60.5695
      vertex 89.5927 -46.8493 7.57092
    endloop
  endfacet
  facet normal -0.780403 0.62501 0.0182685
    outer loop
      vertex -60.807 69.159 5.91833
      vertex -62.1258 67.6853 0
      vertex -62.0257 67.6373 5.91833
    endloop
  endfacet
  facet normal 0.381296 -0.884588 0.268546
    outer loop
      vertex -22.0161 -102.716 -3
      vertex -51.1144 -109.017 17.5599
      vertex -32.377 -107.182 -3
    endloop
  endfacet
  facet normal 0.381311 -0.884575 0.268571
    outer loop
      vertex -51.1144 -109.017 17.5599
      vertex -22.0161 -102.716 -3
      vertex 82.1844 -53.9749 9.59402
    endloop
  endfacet
  facet normal -0.0320376 -0.181738 0.982825
    outer loop
      vertex -15.1104 -71.6456 59.6589
      vertex -29.004 54.5247 82.5366
      vertex -23.1648 -39.3367 65.3707
    endloop
  endfacet
  facet normal 0.202083 0.319517 0.925782
    outer loop
      vertex 82.0521 48.2126 60.5695
      vertex -32.5089 60.8588 81.2117
      vertex 79.4063 41.8786 63.3331
    endloop
  endfacet
  facet normal 0.70772 0.362695 0.606288
    outer loop
      vertex 82.1844 72.934 45.6262
      vertex 82.0521 48.2126 60.5695
      vertex 89.5927 67.7177 40.099
    endloop
  endfacet
  facet normal -0.987385 0.157248 0.0185354
    outer loop
      vertex -62.5718 65.7397 0
      vertex -67.1491 33.6556 28.3575
      vertex -62.4607 65.7397 5.91833
    endloop
  endfacet
  facet normal 0.390407 -0.892743 0.224926
    outer loop
      vertex -18.474 -101.167 -3
      vertex 82.1844 -53.9749 9.59402
      vertex -22.0161 -102.716 -3
    endloop
  endfacet
  facet normal 0.390248 -0.892615 0.22571
    outer loop
      vertex 82.1844 -53.9749 9.59402
      vertex -18.474 -101.167 -3
      vertex 82.1844 -54.9295 5.81886
    endloop
  endfacet
  facet normal 0.706907 -0.685723 0.173394
    outer loop
      vertex 82.1844 -54.9295 5.81886
      vertex 89.5927 -46.8493 7.57092
      vertex 82.1844 -53.9749 9.59402
    endloop
  endfacet
  facet normal 0.706903 -0.685723 0.173412
    outer loop
      vertex 89.5927 -46.8493 7.57092
      vertex 82.1844 -54.9295 5.81886
      vertex 89.5927 -47.804 3.79576
    endloop
  endfacet
  facet normal 0.856395 -0.141021 0.496689
    outer loop
      vertex 82.0521 48.2126 60.5695
      vertex 79.4063 -35.4354 41.3819
      vertex 82.0521 -39.6168 35.6328
    endloop
  endfacet
  facet normal 0.200532 0.305654 0.930786
    outer loop
      vertex 79.4063 41.8786 63.3331
      vertex -32.5089 60.8588 81.2117
      vertex -29.004 54.5247 82.5366
    endloop
  endfacet
  facet normal 0.0751592 0.961081 0.265845
    outer loop
      vertex -1.58106 91.1601 43.6964
      vertex -39.7211 88.1883 65.2229
      vertex 15.9509 91.1601 38.7398
    endloop
  endfacet
  facet normal 0.131566 0.989493 0.059944
    outer loop
      vertex 29.5948 91.3343 5.91833
      vertex 15.9509 91.1601 38.7398
      vertex 37.9318 88.1883 39.551
    endloop
  endfacet
  facet normal -0.258902 -0.230375 0.938028
    outer loop
      vertex -15.1104 -71.6456 59.6589
      vertex -44.3315 -38.2828 59.7874
      vertex -36.277 -70.5917 54.0756
    endloop
  endfacet
  facet normal -0.645149 -0.764057 0
    outer loop
      vertex -71.4473 -97.2097 -3
      vertex -81.1178 -89.0442 23.9789
      vertex -81.1178 -89.0442 -3
    endloop
  endfacet
  facet normal -0.645149 -0.764057 0
    outer loop
      vertex -81.1178 -89.0442 23.9789
      vertex -71.4473 -97.2097 -3
      vertex -71.4473 -97.2097 24.7446
    endloop
  endfacet
  facet normal -0.667078 0.744988 0
    outer loop
      vertex -39.7211 88.1883 -3
      vertex -60.8763 69.2455 0
      vertex -39.7211 88.1883 65.2229
    endloop
  endfacet
  facet normal -0.667078 0.744988 0
    outer loop
      vertex -60.8763 69.2455 0
      vertex -39.7211 88.1883 -3
      vertex -60.8763 69.2455 -3
    endloop
  endfacet
  facet normal -0.984081 0.106968 0.141924
    outer loop
      vertex -67.1491 33.6556 28.3575
      vertex -81.8809 -86.4643 16.7432
      vertex -81.1178 -89.0442 23.9789
    endloop
  endfacet
  facet normal 0.693217 -0.720729 0
    outer loop
      vertex 82.1844 -54.9295 -3
      vertex 89.5927 -47.804 3.79576
      vertex 82.1844 -54.9295 5.81886
    endloop
  endfacet
  facet normal 0.693217 -0.720729 0
    outer loop
      vertex 89.5927 -47.804 3.79576
      vertex 82.1844 -54.9295 -3
      vertex 89.5927 -47.804 -3
    endloop
  endfacet
  facet normal 0.999648 -0.0265385 0
    outer loop
      vertex 89.5927 -47.804 -3
      vertex 91.9793 42.0942 0
      vertex 89.5927 -47.804 3.79576
    endloop
  endfacet
  facet normal 0.999648 -0.0265385 0
    outer loop
      vertex 91.9793 42.0942 0
      vertex 89.5927 -47.804 -3
      vertex 91.9793 42.0942 -3
    endloop
  endfacet
  facet normal 0.715495 0.508085 0.479497
    outer loop
      vertex 82.1844 75.5421 42.8626
      vertex 82.1844 72.934 45.6262
      vertex 89.5927 67.7177 40.099
    endloop
  endfacet
  facet normal 0.206198 0.507312 0.83673
    outer loop
      vertex 82.1844 72.934 45.6262
      vertex -38.6142 85.5802 67.7276
      vertex -32.5089 60.8588 81.2117
    endloop
  endfacet
  facet normal 0.154072 -0.159833 0.975046
    outer loop
      vertex 79.4063 41.8786 63.3331
      vertex -29.004 54.5247 82.5366
      vertex -15.1104 -71.6456 59.6589
    endloop
  endfacet
  facet normal 0.856398 -0.14102 0.496685
    outer loop
      vertex 79.4063 41.8786 63.3331
      vertex 79.4063 -35.4354 41.3819
      vertex 82.0521 48.2126 60.5695
    endloop
  endfacet
  facet normal 0 1 -0
    outer loop
      vertex -6.84091 92.3398 -3
      vertex -17.9534 92.3398 19.6533
      vertex -6.84091 92.3398 19.6533
    endloop
  endfacet
  facet normal 0 1 0
    outer loop
      vertex -17.9534 92.3398 19.6533
      vertex -6.84091 92.3398 -3
      vertex -17.9534 92.3398 -3
    endloop
  endfacet
  facet normal 0.273166 0.96171 0.0222448
    outer loop
      vertex 82.1844 75.5421 42.8626
      vertex 29.5948 91.3343 5.91833
      vertex 37.9318 88.1883 39.551
    endloop
  endfacet
  facet normal 0.113407 0.932451 0.343036
    outer loop
      vertex 15.9509 91.1601 38.7398
      vertex -39.7211 88.1883 65.2229
      vertex 37.9318 88.1883 39.551
    endloop
  endfacet
  facet normal 0.275499 0.96112 0.0186724
    outer loop
      vertex 29.6195 91.4422 0
      vertex 29.5948 91.3343 5.91833
      vertex 82.1844 75.5421 42.8626
    endloop
  endfacet
  facet normal 0.289529 0.957169 -0
    outer loop
      vertex 82.1844 75.5421 -3
      vertex 29.6195 91.4422 0
      vertex 82.1844 75.5421 42.8626
    endloop
  endfacet
  facet normal 0.289529 0.957169 0
    outer loop
      vertex 29.6195 91.4422 0
      vertex 82.1844 75.5421 -3
      vertex 29.6195 91.4422 -3
    endloop
  endfacet
  facet normal -0.321262 -0.241949 0.915561
    outer loop
      vertex -44.3315 -38.2828 59.7874
      vertex -66.7035 -62.4677 45.5461
      vertex -36.277 -70.5917 54.0756
    endloop
  endfacet
  facet normal -0.514479 -0.857503 0
    outer loop
      vertex -71.4473 -97.2097 -3
      vertex -55.0044 -107.075 23.8365
      vertex -71.4473 -97.2097 24.7446
    endloop
  endfacet
  facet normal -0.514479 -0.857503 -0
    outer loop
      vertex -55.0044 -107.075 23.8365
      vertex -71.4473 -97.2097 -3
      vertex -55.0044 -107.075 -3
    endloop
  endfacet
  facet normal 0.0974662 -0.995239 0
    outer loop
      vertex -51.1144 -109.017 17.5599
      vertex -51.1144 -109.017 -3
      vertex -32.377 -107.182 -3
    endloop
  endfacet
  facet normal -0.373426 -0.429167 0.822417
    outer loop
      vertex -47.7898 -72.6131 48.8398
      vertex -66.7035 -62.4677 45.5461
      vertex -65.0424 -89.0466 32.4305
    endloop
  endfacet
  facet normal -0.51685 0 0.856076
    outer loop
      vertex -50.102 72.2196 70.59
      vertex -50.102 72.1142 70.59
      vertex -32.5089 60.8588 81.2117
    endloop
  endfacet
  facet normal 0.206741 0.505318 0.837802
    outer loop
      vertex 82.1844 72.934 45.6262
      vertex -32.5089 60.8588 81.2117
      vertex 82.0521 48.2126 60.5695
    endloop
  endfacet
  facet normal -0.229046 0.421911 0.877228
    outer loop
      vertex -38.6142 85.5802 67.7276
      vertex -47.9853 72.2196 71.7067
      vertex -32.5089 60.8588 81.2117
    endloop
  endfacet
  facet normal 0.279108 -0.262273 0.923749
    outer loop
      vertex 79.4063 41.8786 63.3331
      vertex -15.1104 -71.6456 59.6589
      vertex 79.4063 -35.4354 41.3819
    endloop
  endfacet
  facet normal 0.377908 -0.657328 0.652001
    outer loop
      vertex 79.4063 -35.4354 41.3819
      vertex -15.1104 -71.6456 59.6589
      vertex 82.0521 -39.6168 35.6328
    endloop
  endfacet
  facet normal 0.999505 -0.0252209 0.0187798
    outer loop
      vertex 91.8681 42.0942 5.91833
      vertex 89.5927 -46.8493 7.57092
      vertex 91.9793 42.0942 0
    endloop
  endfacet
  facet normal 0.998048 0.0595718 0.0187524
    outer loop
      vertex 91.9793 42.0942 0
      vertex 89.5927 70.3259 37.3354
      vertex 91.8681 42.0942 5.91833
    endloop
  endfacet
  facet normal 0.0350686 0.999187 0.0198812
    outer loop
      vertex 29.5948 91.3343 5.91833
      vertex -6.84091 92.3398 19.6533
      vertex 15.9509 91.1601 38.7398
    endloop
  endfacet
  facet normal 0.0344971 0.999236 0.0183615
    outer loop
      vertex 29.6195 91.4422 0
      vertex -6.84091 92.3398 19.6533
      vertex 29.5948 91.3343 5.91833
    endloop
  endfacet
  facet normal 0 0.998801 0.0489484
    outer loop
      vertex -6.84091 92.3398 19.6533
      vertex -17.9534 92.3398 19.6533
      vertex -1.68329 91.1601 43.7253
    endloop
  endfacet
  facet normal 0.996446 0.0842357 0
    outer loop
      vertex 91.9793 42.0942 0
      vertex 89.5927 70.3259 -3
      vertex 89.5927 70.3259 37.3354
    endloop
  endfacet
  facet normal 0.996446 0.0842357 0
    outer loop
      vertex 89.5927 70.3259 -3
      vertex 91.9793 42.0942 0
      vertex 91.9793 42.0942 -3
    endloop
  endfacet
  facet normal -0.469704 -0.124963 0.873935
    outer loop
      vertex -29.004 54.5247 82.5366
      vertex -66.7035 -62.4677 45.5461
      vertex -55.8443 -40.3042 54.5516
    endloop
  endfacet
  facet normal -0.2767 -0.534686 0.798466
    outer loop
      vertex -65.0424 -89.0466 32.4305
      vertex -71.4473 -97.2097 24.7446
      vertex -55.0044 -107.075 23.8365
    endloop
  endfacet
  facet normal -0.337648 -0.345169 0.875701
    outer loop
      vertex -36.277 -70.5917 54.0756
      vertex -66.7035 -62.4677 45.5461
      vertex -47.7898 -72.6131 48.8398
    endloop
  endfacet
  facet normal 0.417419 -0.908714 -2.94139e-06
    outer loop
      vertex 82.1844 -54.9295 5.81886
      vertex -18.474 -101.167 -3
      vertex 23.2342 -82.0083 -3
    endloop
  endfacet
  facet normal 0.417418 -0.908714 0
    outer loop
      vertex 82.1844 -54.9295 5.81886
      vertex 23.2342 -82.0083 -3
      vertex 82.1844 -54.9295 -3
    endloop
  endfacet
  facet normal -0.446662 -0.894703 0
    outer loop
      vertex -55.0044 -107.075 -3
      vertex -51.1144 -109.017 17.5599
      vertex -55.0044 -107.075 23.8365
    endloop
  endfacet
  facet normal -0.446662 -0.894703 -0
    outer loop
      vertex -51.1144 -109.017 17.5599
      vertex -55.0044 -107.075 -3
      vertex -51.1144 -109.017 -3
    endloop
  endfacet
  facet normal -0.796884 0 0.604133
    outer loop
      vertex -50.102 72.2196 70.59
      vertex -74.769 -69.2068 38.0529
      vertex -50.102 72.1142 70.59
    endloop
  endfacet
  facet normal -0.992563 0.12173 0
    outer loop
      vertex -81.8809 -86.4643 16.7432
      vertex -67.1491 33.6556 -3
      vertex -81.8809 -86.4643 -3
    endloop
  endfacet
  facet normal -0.992563 0.12173 0
    outer loop
      vertex -67.1491 33.6556 -3
      vertex -81.8809 -86.4643 16.7432
      vertex -67.1491 33.6556 28.3575
    endloop
  endfacet
  facet normal -0.958931 -0.283639 0
    outer loop
      vertex -81.1178 -89.0442 -3
      vertex -81.8809 -86.4643 16.7432
      vertex -81.8809 -86.4643 -3
    endloop
  endfacet
  facet normal -0.958931 -0.283639 0
    outer loop
      vertex -81.8809 -86.4643 16.7432
      vertex -81.1178 -89.0442 -3
      vertex -81.1178 -89.0442 23.9789
    endloop
  endfacet
  facet normal 0.999633 -0.0262577 0.00664031
    outer loop
      vertex 89.5927 -46.8493 7.57092
      vertex 89.5927 -47.804 3.79576
      vertex 91.9793 42.0942 0
    endloop
  endfacet
  facet normal -0.398865 -0.425716 0.812202
    outer loop
      vertex -66.7035 -62.4677 45.5461
      vertex -74.769 -69.2068 38.0529
      vertex -65.0424 -89.0466 32.4305
    endloop
  endfacet
  facet normal -0.56622 0.568637 0.596697
    outer loop
      vertex -39.7211 88.1883 65.2229
      vertex -50.102 72.2196 70.59
      vertex -47.9853 74.3273 70.59
    endloop
  endfacet
  facet normal 0.998542 0.0392536 0.0370463
    outer loop
      vertex 89.5927 70.3259 37.3354
      vertex 89.5927 67.7177 40.099
      vertex 91.8681 42.0942 5.91833
    endloop
  endfacet
  facet normal 0.996158 -0.023919 0.0842448
    outer loop
      vertex 89.5927 67.7177 40.099
      vertex 89.5927 -46.8493 7.57092
      vertex 91.8681 42.0942 5.91833
    endloop
  endfacet
  facet normal 0.0130488 0.998849 0.0461549
    outer loop
      vertex 15.9509 91.1601 38.7398
      vertex -6.84091 92.3398 19.6533
      vertex -1.58106 91.1601 43.6964
    endloop
  endfacet
  facet normal -0.0363685 0.996638 0.0734236
    outer loop
      vertex -17.9534 92.3398 19.6533
      vertex -39.7211 88.1883 65.2229
      vertex -1.68329 91.1601 43.7253
    endloop
  endfacet
  facet normal 0.024611 0.999697 0
    outer loop
      vertex -6.84091 92.3398 -3
      vertex 29.6195 91.4422 0
      vertex 29.6195 91.4422 -3
    endloop
  endfacet
  facet normal 0.024611 0.999697 0
    outer loop
      vertex 29.6195 91.4422 0
      vertex -6.84091 92.3398 -3
      vertex -6.84091 92.3398 19.6533
    endloop
  endfacet
  facet normal -0.259243 -0.189334 0.947072
    outer loop
      vertex -29.004 54.5247 82.5366
      vertex -44.3315 -38.2828 59.7874
      vertex -23.1648 -39.3367 65.3707
    endloop
  endfacet
  facet normal -0.258901 -0.230374 0.938029
    outer loop
      vertex -23.1648 -39.3367 65.3707
      vertex -44.3315 -38.2828 59.7874
      vertex -15.1104 -71.6456 59.6589
    endloop
  endfacet
  facet normal -0.3804 -0.182043 0.906728
    outer loop
      vertex -55.8443 -40.3042 54.5516
      vertex -66.7035 -62.4677 45.5461
      vertex -44.3315 -38.2828 59.7874
    endloop
  endfacet
  facet normal -0.385415 -0.159143 0.908916
    outer loop
      vertex -29.004 54.5247 82.5366
      vertex -55.8443 -40.3042 54.5516
      vertex -44.3315 -38.2828 59.7874
    endloop
  endfacet
  facet normal -0.261289 -0.532935 0.804803
    outer loop
      vertex -36.277 -70.5917 54.0756
      vertex -55.0044 -107.075 23.8365
      vertex -37.1686 -84.7216 44.4294
    endloop
  endfacet
  facet normal -0.240062 -0.536957 0.808732
    outer loop
      vertex -36.277 -70.5917 54.0756
      vertex -37.1686 -84.7216 44.4294
      vertex -15.1104 -71.6456 59.6589
    endloop
  endfacet
  facet normal 0.324608 -0.827929 0.457343
    outer loop
      vertex -15.1104 -71.6456 59.6589
      vertex -55.0044 -107.075 23.8365
      vertex -51.1144 -109.017 17.5599
    endloop
  endfacet
  facet normal -0.414083 -0.430314 0.8021
    outer loop
      vertex -65.0424 -89.0466 32.4305
      vertex -74.769 -69.2068 38.0529
      vertex -71.4473 -97.2097 24.7446
    endloop
  endfacet
  facet normal -0.767409 0.586181 0.25976
    outer loop
      vertex -39.7211 88.1883 65.2229
      vertex -55.3937 72.2196 54.9567
      vertex -50.102 72.2196 70.59
    endloop
  endfacet
  facet normal -0.65192 -0.060243 0.755891
    outer loop
      vertex -50.102 72.1142 70.59
      vertex -74.769 -69.2068 38.0529
      vertex -66.7035 -62.4677 45.5461
    endloop
  endfacet
  facet normal -0.554528 -0.0856284 0.827748
    outer loop
      vertex -50.102 72.1142 70.59
      vertex -66.7035 -62.4677 45.5461
      vertex -32.5089 60.8588 81.2117
    endloop
  endfacet
  facet normal 0.197729 0.712913 0.672799
    outer loop
      vertex 82.1844 75.5421 42.8626
      vertex -38.6142 85.5802 67.7276
      vertex 82.1844 72.934 45.6262
    endloop
  endfacet
  facet normal 0.196644 0.721275 0.664149
    outer loop
      vertex 82.1844 75.5421 42.8626
      vertex -39.7211 88.1883 65.2229
      vertex -38.6142 85.5802 67.7276
    endloop
  endfacet
  facet normal 0.0130479 0.998849 0.0461551
    outer loop
      vertex -1.58106 91.1601 43.6964
      vertex -6.84091 92.3398 19.6533
      vertex -1.68329 91.1601 43.7253
    endloop
  endfacet
  facet normal 0.0751479 0.961088 0.265826
    outer loop
      vertex -1.68329 91.1601 43.7253
      vertex -39.7211 88.1883 65.2229
      vertex -1.58106 91.1601 43.6964
    endloop
  endfacet
  facet normal -0.187346 0.982294 0
    outer loop
      vertex -17.9534 92.3398 -3
      vertex -23.4981 91.2823 19
      vertex -17.9534 92.3398 19.6533
    endloop
  endfacet
  facet normal -0.187346 0.982294 0
    outer loop
      vertex -23.4981 91.2823 19
      vertex -17.9534 92.3398 -3
      vertex -23.4981 91.2823 -3
    endloop
  endfacet
  facet normal -0.187346 0.982294 -1.91644e-06
    outer loop
      vertex -23.4981 91.2823 19
      vertex -39.7211 88.1883 65.2229
      vertex -17.9534 92.3398 19.6533
    endloop
  endfacet
  facet normal -0.187343 0.982295 -1.07446e-06
    outer loop
      vertex -38.4981 88.4215 19
      vertex -39.7211 88.1883 65.2229
      vertex -23.4981 91.2823 19
    endloop
  endfacet
  facet normal -0.187304 0.982302 0
    outer loop
      vertex -39.7211 88.1883 -3
      vertex -38.4981 88.4215 19
      vertex -38.4981 88.4215 -3
    endloop
  endfacet
  facet normal -0.187304 0.982302 0
    outer loop
      vertex -38.4981 88.4215 19
      vertex -39.7211 88.1883 -3
      vertex -39.7211 88.1883 65.2229
    endloop
  endfacet
  facet normal -0.264859 -0.531127 0.804832
    outer loop
      vertex -36.277 -70.5917 54.0756
      vertex -65.0424 -89.0466 32.4305
      vertex -55.0044 -107.075 23.8365
    endloop
  endfacet
  facet normal -0.277396 -0.51723 0.809645
    outer loop
      vertex -47.7898 -72.6131 48.8398
      vertex -65.0424 -89.0466 32.4305
      vertex -36.277 -70.5917 54.0756
    endloop
  endfacet
  facet normal -0.964364 0.249785 0.0872278
    outer loop
      vertex -62.0257 67.6373 5.91833
      vertex -62.3488 54.7608 39.2193
      vertex -60.8493 59.3652 42.6122
    endloop
  endfacet
  facet normal -0.943042 0.0936959 0.319207
    outer loop
      vertex -55.5576 59.3652 58.2456
      vertex -55.3937 72.2196 54.9567
      vertex -60.8493 59.3652 42.6122
    endloop
  endfacet
  facet normal -0.943041 0.0936964 0.319209
    outer loop
      vertex -55.3937 72.2196 54.9567
      vertex -55.5576 59.3652 58.2456
      vertex -50.102 72.2196 70.59
    endloop
  endfacet
  facet normal -0.280537 0.449369 0.848155
    outer loop
      vertex -47.9853 74.3273 70.59
      vertex -47.9853 72.2196 71.7067
      vertex -38.6142 85.5802 67.7276
    endloop
  endfacet
  facet normal -0.414364 0.532765 0.737878
    outer loop
      vertex -39.7211 88.1883 65.2229
      vertex -47.9853 74.3273 70.59
      vertex -38.6142 85.5802 67.7276
    endloop
  endfacet
  facet normal -0.989976 0.141236 0
    outer loop
      vertex -67.1491 33.6556 -3
      vertex -62.5718 65.7397 0
      vertex -62.5718 65.7397 -3
    endloop
  endfacet
  facet normal -0.989976 0.141236 0
    outer loop
      vertex -62.5718 65.7397 0
      vertex -67.1491 33.6556 -3
      vertex -67.1491 33.6556 28.3575
    endloop
  endfacet
  facet normal -0.949946 0.0922604 0.29848
    outer loop
      vertex -60.8493 59.3652 42.6122
      vertex -81.1178 -89.0442 23.9789
      vertex -74.769 -69.2068 38.0529
    endloop
  endfacet
  facet normal -0.425434 -0.429131 0.796777
    outer loop
      vertex -74.769 -69.2068 38.0529
      vertex -81.1178 -89.0442 23.9789
      vertex -71.4473 -97.2097 24.7446
    endloop
  endfacet
  facet normal -0.422522 0.424326 0.800889
    outer loop
      vertex -47.9853 74.3273 70.59
      vertex -50.102 72.2196 70.59
      vertex -47.9853 72.2196 71.7067
    endloop
  endfacet
  facet normal -0.464093 0.103772 0.879687
    outer loop
      vertex -47.9853 72.2196 71.7067
      vertex -50.102 72.2196 70.59
      vertex -32.5089 60.8588 81.2117
    endloop
  endfacet
  facet normal -0.974718 0.22344 0
    outer loop
      vertex -62.5718 65.7397 -3
      vertex -62.1258 67.6853 0
      vertex -62.1258 67.6853 -3
    endloop
  endfacet
  facet normal -0.974718 0.22344 0
    outer loop
      vertex -62.1258 67.6853 0
      vertex -62.5718 65.7397 -3
      vertex -62.5718 65.7397 0
    endloop
  endfacet
  facet normal -0.946719 0.306335 0.0994104
    outer loop
      vertex -55.3937 72.2196 54.9567
      vertex -62.0257 67.6373 5.91833
      vertex -60.8493 59.3652 42.6122
    endloop
  endfacet
  facet normal -0.943296 0.0908024 0.319293
    outer loop
      vertex -60.8493 59.3652 42.6122
      vertex -74.769 -69.2068 38.0529
      vertex -55.5576 59.3652 58.2456
    endloop
  endfacet
  facet normal -0.942245 0.0901306 0.32257
    outer loop
      vertex -55.5576 59.3652 58.2456
      vertex -74.769 -69.2068 38.0529
      vertex -50.102 72.2196 70.59
    endloop
  endfacet
  facet normal -0.698238 0.715624 0.0186352
    outer loop
      vertex -39.7211 88.1883 65.2229
      vertex -60.8763 69.2455 0
      vertex -60.807 69.159 5.91833
    endloop
  endfacet
  facet normal -0.780411 0.624999 0.0182729
    outer loop
      vertex -60.8763 69.2455 0
      vertex -62.1258 67.6853 0
      vertex -60.807 69.159 5.91833
    endloop
  endfacet
  facet normal -0.974554 0.223404 0.0182945
    outer loop
      vertex -62.0257 67.6373 5.91833
      vertex -62.5718 65.7397 0
      vertex -62.4607 65.7397 5.91833
    endloop
  endfacet
  facet normal -0.974555 0.223402 0.0182951
    outer loop
      vertex -62.1258 67.6853 0
      vertex -62.5718 65.7397 0
      vertex -62.0257 67.6373 5.91833
    endloop
  endfacet
  facet normal -0.986302 0.162779 0.0266695
    outer loop
      vertex -62.4607 65.7397 5.91833
      vertex -67.1491 33.6556 28.3575
      vertex -66.2065 39.0175 30.4904
    endloop
  endfacet
  facet normal -0.951204 0.0929665 0.294225
    outer loop
      vertex -62.3488 54.7608 39.2193
      vertex -81.1178 -89.0442 23.9789
      vertex -60.8493 59.3652 42.6122
    endloop
  endfacet
  facet normal -0.780542 0.625104 0
    outer loop
      vertex -62.1258 67.6853 -3
      vertex -60.8763 69.2455 0
      vertex -60.8763 69.2455 -3
    endloop
  endfacet
  facet normal -0.780542 0.625104 0
    outer loop
      vertex -60.8763 69.2455 0
      vertex -62.1258 67.6853 -3
      vertex -62.1258 67.6853 0
    endloop
  endfacet
  facet normal -0.779667 0.62442 0.0470952
    outer loop
      vertex -60.807 69.159 5.91833
      vertex -62.0257 67.6373 5.91833
      vertex -55.3937 72.2196 54.9567
    endloop
  endfacet
  facet normal -0.725025 0.687722 0.0371125
    outer loop
      vertex -39.7211 88.1883 65.2229
      vertex -60.807 69.159 5.91833
      vertex -55.3937 72.2196 54.9567
    endloop
  endfacet
  facet normal -0.977143 0.200894 0.0695156
    outer loop
      vertex -62.4607 65.7397 5.91833
      vertex -66.2065 39.0175 30.4904
      vertex -62.3488 54.7608 39.2193
    endloop
  endfacet
  facet normal -0.971845 0.222783 0.0767143
    outer loop
      vertex -62.0257 67.6373 5.91833
      vertex -62.4607 65.7397 5.91833
      vertex -62.3488 54.7608 39.2193
    endloop
  endfacet
  facet normal -0.980167 0.105602 0.167695
    outer loop
      vertex -67.1491 33.6556 28.3575
      vertex -81.1178 -89.0442 23.9789
      vertex -66.2065 39.0175 30.4904
    endloop
  endfacet
  facet normal -0.964078 0.099738 0.246184
    outer loop
      vertex -66.2065 39.0175 30.4904
      vertex -81.1178 -89.0442 23.9789
      vertex -62.3488 54.7608 39.2193
    endloop
  endfacet
  facet normal -0.375709 0.80284 -0.462916
    outer loop
      vertex 77.669 -39.3272 32.9736
      vertex 77.796 -53.1612 8.87805
      vertex -15.6682 -70.187 55.2068
    endloop
  endfacet
  facet normal -0.954626 0.0783477 -0.287318
    outer loop
      vertex 77.669 45.2968 56.0494
      vertex 84.9127 -46.2957 7.00592
      vertex 77.669 -39.3272 32.9736
    endloop
  endfacet
  facet normal -0.365729 0.822519 -0.435552
    outer loop
      vertex -15.6682 -70.187 55.2068
      vertex 77.796 -53.1612 8.87805
      vertex -50.2548 -106.195 16.2495
    endloop
  endfacet
  facet normal -0.709723 -0.502486 -0.493762
    outer loop
      vertex 84.9127 66.603 34.5492
      vertex 84.9127 64.0901 37.1065
      vertex 77.796 71.6289 39.6639
    endloop
  endfacet
  facet normal 0.213585 0.546543 -0.809736
    outer loop
      vertex -36.858 -82.7858 41.1138
      vertex -15.6682 -70.187 55.2068
      vertex -53.9916 -104.323 22.0576
    endloop
  endfacet
  facet normal 0.497816 0.101614 -0.861309
    outer loop
      vertex -32.3818 57.4814 75.1512
      vertex -29.0149 51.3786 76.3772
      vertex -65.2301 -61.344 42.1471
    endloop
  endfacet
  facet normal -0.576863 -0.816841 0
    outer loop
      vertex 77.796 71.6289 -3
      vertex 84.9127 66.603 34.5492
      vertex 77.796 71.6289 39.6639
    endloop
  endfacet
  facet normal -0.576863 -0.816841 -0
    outer loop
      vertex 84.9127 66.603 34.5492
      vertex 77.796 71.6289 -3
      vertex 84.9127 66.603 -3
    endloop
  endfacet
  facet normal -0.185165 -0.792246 -0.581429
    outer loop
      vertex 35.2857 83.8135 36.5994
      vertex 77.796 71.6289 39.6639
      vertex -39.31 83.8135 60.3555
    endloop
  endfacet
  facet normal -0.694952 0.622001 -0.360773
    outer loop
      vertex 84.9127 -46.2957 7.00592
      vertex 77.796 -53.1612 8.87805
      vertex 77.669 -39.3272 32.9736
    endloop
  endfacet
  facet normal -0.954626 0.0783472 -0.287317
    outer loop
      vertex 84.9127 64.0901 37.1065
      vertex 84.9127 -46.2957 7.00592
      vertex 77.669 45.2968 56.0494
    endloop
  endfacet
  facet normal 0.781315 -0.623848 -0.0189868
    outer loop
      vertex -59.5658 65.4788 5.47667
      vertex -60.7365 64.0126 5.47667
      vertex -60.8327 64.0588 0
    endloop
  endfacet
  facet normal -0.381138 0.881534 -0.278624
    outer loop
      vertex -24.2251 -101.025 -3
      vertex -50.2548 -106.195 16.2495
      vertex 77.796 -53.1612 8.87805
    endloop
  endfacet
  facet normal -0.381121 0.88155 -0.278597
    outer loop
      vertex -50.2548 -106.195 16.2495
      vertex -24.2251 -101.025 -3
      vertex -32.0432 -104.405 -3
    endloop
  endfacet
  facet normal 0.0309137 0.174777 -0.984123
    outer loop
      vertex -15.6682 -70.187 55.2068
      vertex -23.4056 -39.0572 60.4923
      vertex -29.0149 51.3786 76.3772
    endloop
  endfacet
  facet normal -0.195732 -0.308539 -0.930856
    outer loop
      vertex 77.669 45.2968 56.0494
      vertex 75.1273 39.1939 58.6067
      vertex -32.3818 57.4814 75.1512
    endloop
  endfacet
  facet normal -0.698096 -0.356697 -0.620829
    outer loop
      vertex 77.796 69.116 42.2213
      vertex 84.9127 64.0901 37.1065
      vertex 77.669 45.2968 56.0494
    endloop
  endfacet
  facet normal 0.987443 -0.1568 -0.019256
    outer loop
      vertex -61.2611 62.1842 0
      vertex -61.1543 62.1842 5.47667
      vertex -65.6582 31.2711 26.2413
    endloop
  endfacet
  facet normal -0.3904 0.890303 -0.234411
    outer loop
      vertex -21.5522 -99.8531 -3
      vertex 77.796 -53.1612 8.87805
      vertex 77.796 -54.081 5.38461
    endloop
  endfacet
  facet normal -0.390307 0.890221 -0.234876
    outer loop
      vertex 77.796 -53.1612 8.87805
      vertex -21.5522 -99.8531 -3
      vertex -24.2251 -101.025 -3
    endloop
  endfacet
  facet normal -0.707067 0.683841 -0.180051
    outer loop
      vertex 77.796 -53.1612 8.87805
      vertex 84.9127 -47.2155 3.51249
      vertex 77.796 -54.081 5.38461
    endloop
  endfacet
  facet normal -0.848354 0.139283 -0.51078
    outer loop
      vertex 77.669 45.2968 56.0494
      vertex 77.669 -39.3272 32.9736
      vertex 75.1273 -35.2984 38.2937
    endloop
  endfacet
  facet normal -0.19416 -0.29506 -0.935543
    outer loop
      vertex 75.1273 39.1939 58.6067
      vertex -29.0149 51.3786 76.3772
      vertex -32.3818 57.4814 75.1512
    endloop
  endfacet
  facet normal -0.0751611 -0.95822 -0.27598
    outer loop
      vertex -2.67157 86.6769 40.4354
      vertex 14.1701 86.6769 35.8487
      vertex -39.31 83.8135 60.3555
    endloop
  endfacet
  facet normal -0.131935 -0.989292 -0.0624045
    outer loop
      vertex 27.2769 86.8448 5.47667
      vertex 35.2857 83.8135 36.5994
      vertex 14.1701 86.6769 35.8487
    endloop
  endfacet
  facet normal 0.250526 0.222254 -0.942253
    outer loop
      vertex -15.6682 -70.187 55.2068
      vertex -36.0015 -69.1716 50.0401
      vertex -43.7389 -38.0419 55.3256
    endloop
  endfacet
  facet normal 0.646272 0.763107 -0
    outer loop
      vertex -69.7872 -94.8181 -3
      vertex -79.077 -86.9506 22.1894
      vertex -69.7872 -94.8181 22.898
    endloop
  endfacet
  facet normal 0.646272 0.763107 0
    outer loop
      vertex -79.077 -86.9506 22.1894
      vertex -69.7872 -94.8181 -3
      vertex -79.077 -86.9506 -3
    endloop
  endfacet
  facet normal 0.668182 -0.743998 0
    outer loop
      vertex -39.31 83.8135 -3
      vertex -59.6323 65.5621 0
      vertex -59.6323 65.5621 -3
    endloop
  endfacet
  facet normal 0.668182 -0.743998 0
    outer loop
      vertex -59.6323 65.5621 0
      vertex -39.31 83.8135 -3
      vertex -39.31 83.8135 60.3555
    endloop
  endfacet
  facet normal 0.983347 -0.10657 -0.147213
    outer loop
      vertex -65.6582 31.2711 26.2413
      vertex -79.077 -86.9506 22.1894
      vertex -79.81 -84.4649 15.4937
    endloop
  endfacet
  facet normal -0.694291 0.719694 0
    outer loop
      vertex 77.796 -54.081 -3
      vertex 84.9127 -47.2155 3.51249
      vertex 84.9127 -47.2155 -3
    endloop
  endfacet
  facet normal -0.694291 0.719694 0
    outer loop
      vertex 84.9127 -47.2155 3.51249
      vertex 77.796 -54.081 -3
      vertex 77.796 -54.081 5.38461
    endloop
  endfacet
  facet normal -0.99965 0.0264589 0
    outer loop
      vertex 84.9127 -47.2155 -3
      vertex 87.2053 39.4017 0
      vertex 87.2053 39.4017 -3
    endloop
  endfacet
  facet normal -0.99965 0.0264589 0
    outer loop
      vertex 87.2053 39.4017 0
      vertex 84.9127 -47.2155 -3
      vertex 84.9127 -47.2155 3.51249
    endloop
  endfacet
  facet normal -0.709727 -0.502493 -0.49375
    outer loop
      vertex 77.796 71.6289 39.6639
      vertex 84.9127 64.0901 37.1065
      vertex 77.796 69.116 42.2213
    endloop
  endfacet
  facet normal -0.200958 -0.492946 -0.846535
    outer loop
      vertex 77.796 69.116 42.2213
      vertex -32.3818 57.4814 75.1512
      vertex -38.2467 81.3006 62.6733
    endloop
  endfacet
  facet normal -0.148693 0.153792 -0.976851
    outer loop
      vertex 75.1273 39.1939 58.6067
      vertex -15.6682 -70.187 55.2068
      vertex -29.0149 51.3786 76.3772
    endloop
  endfacet
  facet normal -0.848352 0.139283 -0.510783
    outer loop
      vertex 75.1273 39.1939 58.6067
      vertex 77.669 45.2968 56.0494
      vertex 75.1273 -35.2984 38.2937
    endloop
  endfacet
  facet normal 0 -1 0
    outer loop
      vertex -18.3993 87.8135 -3
      vertex -7.72433 87.8135 18.1867
      vertex -18.3993 87.8135 18.1867
    endloop
  endfacet
  facet normal 0 -1 -0
    outer loop
      vertex -7.72433 87.8135 18.1867
      vertex -18.3993 87.8135 -3
      vertex -7.72433 87.8135 -3
    endloop
  endfacet
  facet normal -0.273915 -0.961475 -0.0231595
    outer loop
      vertex 77.796 71.6289 39.6639
      vertex 35.2857 83.8135 36.5994
      vertex 27.2769 86.8448 5.47667
    endloop
  endfacet
  facet normal -0.113184 -0.927834 -0.355406
    outer loop
      vertex 14.1701 86.6769 35.8487
      vertex 35.2857 83.8135 36.5994
      vertex -39.31 83.8135 60.3555
    endloop
  endfacet
  facet normal -0.276262 -0.960886 -0.0194299
    outer loop
      vertex 27.3007 86.9487 0
      vertex 77.796 71.6289 39.6639
      vertex 27.2769 86.8448 5.47667
    endloop
  endfacet
  facet normal -0.290323 -0.956929 0
    outer loop
      vertex 77.796 71.6289 -3
      vertex 27.3007 86.9487 0
      vertex 27.3007 86.9487 -3
    endloop
  endfacet
  facet normal -0.290323 -0.956929 0
    outer loop
      vertex 27.3007 86.9487 0
      vertex 77.796 71.6289 -3
      vertex 77.796 71.6289 39.6639
    endloop
  endfacet
  facet normal 0.311343 0.233778 -0.921094
    outer loop
      vertex -43.7389 -38.0419 55.3256
      vertex -36.0015 -69.1716 50.0401
      vertex -65.2301 -61.344 42.1471
    endloop
  endfacet
  facet normal 0.515594 0.856833 0
    outer loop
      vertex -69.7872 -94.8181 -3
      vertex -53.9916 -104.323 22.0576
      vertex -53.9916 -104.323 -3
    endloop
  endfacet
  facet normal 0.515594 0.856833 0
    outer loop
      vertex -53.9916 -104.323 22.0576
      vertex -69.7872 -94.8181 -3
      vertex -69.7872 -94.8181 22.898
    endloop
  endfacet
  facet normal -0.0978176 0.995204 0
    outer loop
      vertex -50.2548 -106.195 16.2495
      vertex -32.0432 -104.405 -3
      vertex -50.2548 -106.195 -3
    endloop
  endfacet
  facet normal 0.364185 0.417289 -0.83261
    outer loop
      vertex -47.0611 -71.1192 45.1951
      vertex -63.6345 -86.9529 30.0103
      vertex -65.2301 -61.344 42.1471
    endloop
  endfacet
  facet normal 0.502746 0 -0.864434
    outer loop
      vertex -49.2822 68.4276 65.3221
      vertex -32.3818 57.4814 75.1512
      vertex -49.2822 68.3261 65.3221
    endloop
  endfacet
  facet normal -0.201472 -0.490971 -0.847559
    outer loop
      vertex 77.796 69.116 42.2213
      vertex 77.669 45.2968 56.0494
      vertex -32.3818 57.4814 75.1512
    endloop
  endfacet
  facet normal 0.222605 -0.408828 -0.885046
    outer loop
      vertex -38.2467 81.3006 62.6733
      vertex -32.3818 57.4814 75.1512
      vertex -47.2489 68.4276 66.3555
    endloop
  endfacet
  facet normal -0.270348 0.253284 -0.928848
    outer loop
      vertex 75.1273 39.1939 58.6067
      vertex 75.1273 -35.2984 38.2937
      vertex -15.6682 -70.187 55.2068
    endloop
  endfacet
  facet normal -0.372285 0.645615 -0.666772
    outer loop
      vertex 75.1273 -35.2984 38.2937
      vertex 77.669 -39.3272 32.9736
      vertex -15.6682 -70.187 55.2068
    endloop
  endfacet
  facet normal -0.999494 0.0251453 -0.019491
    outer loop
      vertex 87.0985 39.4017 5.47667
      vertex 87.2053 39.4017 0
      vertex 84.9127 -46.2957 7.00592
    endloop
  endfacet
  facet normal -0.998045 -0.0593977 -0.0194628
    outer loop
      vertex 87.2053 39.4017 0
      vertex 87.0985 39.4017 5.47667
      vertex 84.9127 66.603 34.5492
    endloop
  endfacet
  facet normal -0.0351703 -0.999167 -0.0207009
    outer loop
      vertex 27.2769 86.8448 5.47667
      vertex 14.1701 86.6769 35.8487
      vertex -7.72433 87.8135 18.1867
    endloop
  endfacet
  facet normal -0.0345929 -0.999219 -0.0191069
    outer loop
      vertex 27.3007 86.9487 0
      vertex 27.2769 86.8448 5.47667
      vertex -7.72433 87.8135 18.1867
    endloop
  endfacet
  facet normal -0 -0.998701 -0.0509584
    outer loop
      vertex -7.72433 87.8135 18.1867
      vertex -2.76977 86.6769 40.4622
      vertex -18.3993 87.8135 18.1867
    endloop
  endfacet
  facet normal -0.996467 -0.083985 -0
    outer loop
      vertex 87.2053 39.4017 0
      vertex 84.9127 66.603 -3
      vertex 87.2053 39.4017 -3
    endloop
  endfacet
  facet normal -0.996467 -0.083985 0
    outer loop
      vertex 84.9127 66.603 -3
      vertex 87.2053 39.4017 0
      vertex 84.9127 66.603 34.5492
    endloop
  endfacet
  facet normal 0.456403 0.121051 -0.881501
    outer loop
      vertex -29.0149 51.3786 76.3772
      vertex -54.7985 -39.9895 50.4806
      vertex -65.2301 -61.344 42.1471
    endloop
  endfacet
  facet normal 0.270302 0.520795 -0.809759
    outer loop
      vertex -63.6345 -86.9529 30.0103
      vertex -53.9916 -104.323 22.0576
      vertex -69.7872 -94.8181 22.898
    endloop
  endfacet
  facet normal 0.328132 0.334424 -0.883453
    outer loop
      vertex -36.0015 -69.1716 50.0401
      vertex -47.0611 -71.1192 45.1951
      vertex -65.2301 -61.344 42.1471
    endloop
  endfacet
  facet normal -0.418448 0.908241 -1.0885e-05
    outer loop
      vertex 77.796 -54.081 5.38461
      vertex 19.6131 -80.8873 -3
      vertex -21.5522 -99.8531 -3
    endloop
  endfacet
  facet normal -0.418449 0.90824 0
    outer loop
      vertex 77.796 -54.081 5.38461
      vertex 77.796 -54.081 -3
      vertex 19.6131 -80.8873 -3
    endloop
  endfacet
  facet normal 0.785826 0 -0.618448
    outer loop
      vertex -49.2822 68.4276 65.3221
      vertex -49.2822 68.3261 65.3221
      vertex -72.9781 -67.8372 35.2131
    endloop
  endfacet
  facet normal 0.992607 -0.121373 0
    outer loop
      vertex -79.81 -84.4649 15.4937
      vertex -65.6582 31.2711 -3
      vertex -65.6582 31.2711 26.2413
    endloop
  endfacet
  facet normal 0.992607 -0.121373 0
    outer loop
      vertex -65.6582 31.2711 -3
      vertex -79.81 -84.4649 15.4937
      vertex -79.81 -84.4649 -3
    endloop
  endfacet
  facet normal 0.959166 0.282845 -0
    outer loop
      vertex -79.077 -86.9506 -3
      vertex -79.81 -84.4649 15.4937
      vertex -79.077 -86.9506 22.1894
    endloop
  endfacet
  facet normal 0.959166 0.282845 0
    outer loop
      vertex -79.81 -84.4649 15.4937
      vertex -79.077 -86.9506 -3
      vertex -79.81 -84.4649 -3
    endloop
  endfacet
  facet normal -0.999634 0.026179 -0.00689277
    outer loop
      vertex 84.9127 -46.2957 7.00592
      vertex 87.2053 39.4017 0
      vertex 84.9127 -47.2155 3.51249
    endloop
  endfacet
  facet normal -0.707067 0.68384 -0.180051
    outer loop
      vertex 84.9127 -46.2957 7.00592
      vertex 84.9127 -47.2155 3.51249
      vertex 77.796 -53.1612 8.87805
    endloop
  endfacet
  facet normal 0.389224 0.414187 -0.822772
    outer loop
      vertex -65.2301 -61.344 42.1471
      vertex -63.6345 -86.9529 30.0103
      vertex -72.9781 -67.8372 35.2131
    endloop
  endfacet
  facet normal 0.55911 -0.559798 -0.611574
    outer loop
      vertex -39.31 83.8135 60.3555
      vertex -47.2489 70.4584 65.3221
      vertex -49.2822 68.4276 65.3221
    endloop
  endfacet
  facet normal -0.998494 -0.0391347 -0.0384553
    outer loop
      vertex 84.9127 66.603 34.5492
      vertex 87.0985 39.4017 5.47667
      vertex 84.9127 64.0901 37.1065
    endloop
  endfacet
  facet normal -0.995885 0.0238409 -0.0874301
    outer loop
      vertex 84.9127 64.0901 37.1065
      vertex 87.0985 39.4017 5.47667
      vertex 84.9127 -46.2957 7.00592
    endloop
  endfacet
  facet normal -0.0130863 -0.998759 -0.0480508
    outer loop
      vertex 14.1701 86.6769 35.8487
      vertex -2.67157 86.6769 40.4354
      vertex -7.72433 87.8135 18.1867
    endloop
  endfacet
  facet normal 0.0364708 -0.996408 -0.076431
    outer loop
      vertex -18.3993 87.8135 18.1867
      vertex -2.76977 86.6769 40.4622
      vertex -39.31 83.8135 60.3555
    endloop
  endfacet
  facet normal -0.0246834 -0.999695 0
    outer loop
      vertex -7.72433 87.8135 -3
      vertex 27.3007 86.9487 0
      vertex -7.72433 87.8135 18.1867
    endloop
  endfacet
  facet normal -0.0246834 -0.999695 -0
    outer loop
      vertex 27.3007 86.9487 0
      vertex -7.72433 87.8135 -3
      vertex 27.3007 86.9487 -3
    endloop
  endfacet
  facet normal 0.250689 0.182538 -0.950702
    outer loop
      vertex -29.0149 51.3786 76.3772
      vertex -23.4056 -39.0572 60.4923
      vertex -43.7389 -38.0419 55.3256
    endloop
  endfacet
  facet normal 0.250525 0.222253 -0.942253
    outer loop
      vertex -23.4056 -39.0572 60.4923
      vertex -15.6682 -70.187 55.2068
      vertex -43.7389 -38.0419 55.3256
    endloop
  endfacet
  facet normal 0.368835 0.175995 -0.912681
    outer loop
      vertex -54.7985 -39.9895 50.4806
      vertex -43.7389 -38.0419 55.3256
      vertex -65.2301 -61.344 42.1471
    endloop
  endfacet
  facet normal 0.373638 0.153825 -0.914731
    outer loop
      vertex -29.0149 51.3786 76.3772
      vertex -43.7389 -38.0419 55.3256
      vertex -54.7985 -39.9895 50.4806
    endloop
  endfacet
  facet normal 0.255181 0.518881 -0.815871
    outer loop
      vertex -36.0015 -69.1716 50.0401
      vertex -36.858 -82.7858 41.1138
      vertex -53.9916 -104.323 22.0576
    endloop
  endfacet
  facet normal 0.234381 0.522684 -0.819675
    outer loop
      vertex -36.0015 -69.1716 50.0401
      vertex -15.6682 -70.187 55.2068
      vertex -36.858 -82.7858 41.1138
    endloop
  endfacet
  facet normal -0.32257 0.820477 -0.471981
    outer loop
      vertex -15.6682 -70.187 55.2068
      vertex -50.2548 -106.195 16.2495
      vertex -53.9916 -104.323 22.0576
    endloop
  endfacet
  facet normal 0.404325 0.418918 -0.813037
    outer loop
      vertex -63.6345 -86.9529 30.0103
      vertex -69.7872 -94.8181 22.898
      vertex -72.9781 -67.8372 35.2131
    endloop
  endfacet
  facet normal 0.766186 -0.583502 -0.269229
    outer loop
      vertex -39.31 83.8135 60.3555
      vertex -49.2822 68.4276 65.3221
      vertex -54.3656 68.4276 50.8555
    endloop
  endfacet
  facet normal 0.637925 0.0587753 -0.767852
    outer loop
      vertex -49.2822 68.3261 65.3221
      vertex -65.2301 -61.344 42.1471
      vertex -72.9781 -67.8372 35.2131
    endloop
  endfacet
  facet normal 0.540355 0.0831899 -0.837315
    outer loop
      vertex -49.2822 68.3261 65.3221
      vertex -32.3818 57.4814 75.1512
      vertex -65.2301 -61.344 42.1471
    endloop
  endfacet
  facet normal -0.194627 -0.699645 -0.687471
    outer loop
      vertex 77.796 71.6289 39.6639
      vertex 77.796 69.116 42.2213
      vertex -38.2467 81.3006 62.6733
    endloop
  endfacet
  facet normal -0.19365 -0.708181 -0.678954
    outer loop
      vertex 77.796 71.6289 39.6639
      vertex -38.2467 81.3006 62.6733
      vertex -39.31 83.8135 60.3555
    endloop
  endfacet
  facet normal -0.0131121 -0.998759 -0.0480449
    outer loop
      vertex -2.67157 86.6769 40.4354
      vertex -2.76977 86.6769 40.4622
      vertex -7.72433 87.8135 18.1867
    endloop
  endfacet
  facet normal -0.0754631 -0.958044 -0.27651
    outer loop
      vertex -2.76977 86.6769 40.4622
      vertex -2.67157 86.6769 40.4354
      vertex -39.31 83.8135 60.3555
    endloop
  endfacet
  facet normal 0.188199 -0.982131 6.61581e-06
    outer loop
      vertex -39.31 83.8135 60.3555
      vertex -38.4981 83.9688 19
      vertex -38.3881 83.9899 22.19
    endloop
  endfacet
  facet normal 0.187874 -0.982193 0
    outer loop
      vertex -39.31 83.8135 -3
      vertex -38.4981 83.9688 19
      vertex -39.31 83.8135 60.3555
    endloop
  endfacet
  facet normal 0.187874 -0.982193 0
    outer loop
      vertex -38.4981 83.9688 19
      vertex -39.31 83.8135 -3
      vertex -38.4981 83.9688 -3
    endloop
  endfacet
  facet normal 0.187881 -0.982192 -1.33169e-06
    outer loop
      vertex -25.8034 86.3972 22.19
      vertex -39.31 83.8135 60.3555
      vertex -38.3881 83.9899 22.19
    endloop
  endfacet
  facet normal 0.187891 -0.98219 0
    outer loop
      vertex -23.4981 86.8382 19
      vertex -25.8034 86.3972 22.19
      vertex -25.8034 86.3972 19
    endloop
  endfacet
  facet normal 0.187872 -0.982194 -1.44501e-05
    outer loop
      vertex -18.3993 87.8135 18.1867
      vertex -25.8034 86.3972 22.19
      vertex -23.4981 86.8382 19
    endloop
  endfacet
  facet normal 0.187878 -0.982192 -2.47403e-06
    outer loop
      vertex -25.8034 86.3972 22.19
      vertex -18.3993 87.8135 18.1867
      vertex -39.31 83.8135 60.3555
    endloop
  endfacet
  facet normal 0.187874 -0.982193 0
    outer loop
      vertex -23.4981 86.8382 -3
      vertex -18.3993 87.8135 18.1867
      vertex -23.4981 86.8382 19
    endloop
  endfacet
  facet normal 0.187874 -0.982193 0
    outer loop
      vertex -18.3993 87.8135 18.1867
      vertex -23.4981 86.8382 -3
      vertex -18.3993 87.8135 -3
    endloop
  endfacet
  facet normal 0.188384 -0.982095 0
    outer loop
      vertex -38.3881 83.9899 22.19
      vertex -38.4981 83.9688 19
      vertex -38.3881 83.9899 19
    endloop
  endfacet
  facet normal 0.258639 0.517129 -0.815894
    outer loop
      vertex -36.0015 -69.1716 50.0401
      vertex -53.9916 -104.323 22.0576
      vertex -63.6345 -86.9529 30.0103
    endloop
  endfacet
  facet normal 0.270792 0.503435 -0.820503
    outer loop
      vertex -47.0611 -71.1192 45.1951
      vertex -36.0015 -69.1716 50.0401
      vertex -63.6345 -86.9529 30.0103
    endloop
  endfacet
  facet normal 0.964258 -0.249017 -0.0905425
    outer loop
      vertex -60.7365 64.0126 5.47667
      vertex -59.6064 56.0424 39.4322
      vertex -61.0469 51.606 36.2925
    endloop
  endfacet
  facet normal 0.447903 0.894082 0
    outer loop
      vertex -53.9916 -104.323 -3
      vertex -50.2548 -106.195 16.2495
      vertex -50.2548 -106.195 -3
    endloop
  endfacet
  facet normal 0.447903 0.894082 0
    outer loop
      vertex -50.2548 -106.195 16.2495
      vertex -53.9916 -104.323 -3
      vertex -53.9916 -104.323 22.0576
    endloop
  endfacet
  facet normal 0.939355 -0.0930555 -0.330079
    outer loop
      vertex -54.5231 56.0424 53.8989
      vertex -54.3656 68.4276 50.8555
      vertex -49.2822 68.4276 65.3221
    endloop
  endfacet
  facet normal 0.939358 -0.0930536 -0.330071
    outer loop
      vertex -54.3656 68.4276 50.8555
      vertex -54.5231 56.0424 53.8989
      vertex -59.6064 56.0424 39.4322
    endloop
  endfacet
  facet normal 0.273179 -0.436272 -0.857345
    outer loop
      vertex -47.2489 70.4584 65.3221
      vertex -38.2467 81.3006 62.6733
      vertex -47.2489 68.4276 66.3555
    endloop
  endfacet
  facet normal 0.406207 -0.520718 -0.750899
    outer loop
      vertex -39.31 83.8135 60.3555
      vertex -38.2467 81.3006 62.6733
      vertex -47.2489 70.4584 65.3221
    endloop
  endfacet
  facet normal 0.990035 -0.140823 0
    outer loop
      vertex -65.6582 31.2711 -3
      vertex -61.2611 62.1842 0
      vertex -65.6582 31.2711 26.2413
    endloop
  endfacet
  facet normal 0.990035 -0.140823 0
    outer loop
      vertex -61.2611 62.1842 0
      vertex -65.6582 31.2711 -3
      vertex -61.2611 62.1842 -3
    endloop
  endfacet
  facet normal 0.9467 -0.0916708 -0.308798
    outer loop
      vertex -59.6064 56.0424 39.4322
      vertex -72.9781 -67.8372 35.2131
      vertex -79.077 -86.9506 22.1894
    endloop
  endfacet
  facet normal 0.415539 0.417896 -0.807892
    outer loop
      vertex -72.9781 -67.8372 35.2131
      vertex -69.7872 -94.8181 22.898
      vertex -79.077 -86.9506 22.1894
    endloop
  endfacet
  facet normal 0.412609 -0.413117 -0.811842
    outer loop
      vertex -47.2489 70.4584 65.3221
      vertex -47.2489 68.4276 66.3555
      vertex -49.2822 68.4276 65.3221
    endloop
  endfacet
  facet normal 0.450787 -0.10045 -0.886961
    outer loop
      vertex -47.2489 68.4276 66.3555
      vertex -32.3818 57.4814 75.1512
      vertex -49.2822 68.4276 65.3221
    endloop
  endfacet
  facet normal 0.974868 -0.222785 0
    outer loop
      vertex -61.2611 62.1842 0
      vertex -60.8327 64.0588 -3
      vertex -60.8327 64.0588 0
    endloop
  endfacet
  facet normal 0.974868 -0.222785 0
    outer loop
      vertex -60.8327 64.0588 -3
      vertex -61.2611 62.1842 0
      vertex -61.2611 62.1842 -3
    endloop
  endfacet
  facet normal 0.94662 -0.305389 -0.103188
    outer loop
      vertex -54.3656 68.4276 50.8555
      vertex -59.6064 56.0424 39.4322
      vertex -60.7365 64.0126 5.47667
    endloop
  endfacet
  facet normal 0.939608 -0.0901777 -0.330159
    outer loop
      vertex -59.6064 56.0424 39.4322
      vertex -54.5231 56.0424 53.8989
      vertex -72.9781 -67.8372 35.2131
    endloop
  endfacet
  facet normal 0.938481 -0.0895011 -0.333531
    outer loop
      vertex -54.5231 56.0424 53.8989
      vertex -49.2822 68.4276 65.3221
      vertex -72.9781 -67.8372 35.2131
    endloop
  endfacet
  facet normal 0.699272 -0.714594 -0.0193598
    outer loop
      vertex -39.31 83.8135 60.3555
      vertex -59.5658 65.4788 5.47667
      vertex -59.6323 65.5621 0
    endloop
  endfacet
  facet normal 0.781296 -0.623872 -0.0189759
    outer loop
      vertex -59.6323 65.5621 0
      vertex -59.5658 65.4788 5.47667
      vertex -60.8327 64.0588 0
    endloop
  endfacet
  facet normal 0.974691 -0.222745 -0.0190074
    outer loop
      vertex -60.8327 64.0588 0
      vertex -61.1543 62.1842 5.47667
      vertex -61.2611 62.1842 0
    endloop
  endfacet
  facet normal 0.986352 -0.162304 -0.0276865
    outer loop
      vertex -61.1543 62.1842 5.47667
      vertex -64.7527 36.4373 28.215
      vertex -65.6582 31.2711 26.2413
    endloop
  endfacet
  facet normal 0.979129 -0.105176 -0.173908
    outer loop
      vertex -65.6582 31.2711 26.2413
      vertex -64.7527 36.4373 28.215
      vertex -79.077 -86.9506 22.1894
    endloop
  endfacet
  facet normal 0.974696 -0.222724 -0.0189998
    outer loop
      vertex -60.8327 64.0588 0
      vertex -60.7365 64.0126 5.47667
      vertex -61.1543 62.1842 5.47667
    endloop
  endfacet
  facet normal 0.781436 -0.623985 0
    outer loop
      vertex -60.8327 64.0588 0
      vertex -59.6323 65.5621 -3
      vertex -59.6323 65.5621 0
    endloop
  endfacet
  facet normal 0.781436 -0.623985 0
    outer loop
      vertex -59.6323 65.5621 -3
      vertex -60.8327 64.0588 0
      vertex -60.8327 64.0588 -3
    endloop
  endfacet
  facet normal 0.780519 -0.623212 -0.0489464
    outer loop
      vertex -59.5658 65.4788 5.47667
      vertex -54.3656 68.4276 50.8555
      vertex -60.7365 64.0126 5.47667
    endloop
  endfacet
  facet normal 0.726009 -0.686602 -0.0385806
    outer loop
      vertex -39.31 83.8135 60.3555
      vertex -54.3656 68.4276 50.8555
      vertex -59.5658 65.4788 5.47667
    endloop
  endfacet
  facet normal 0.961846 -0.099211 -0.254969
    outer loop
      vertex -64.7527 36.4373 28.215
      vertex -61.0469 51.606 36.2925
      vertex -79.077 -86.9506 22.1894
    endloop
  endfacet
  facet normal 0.948044 -0.0923804 -0.304431
    outer loop
      vertex -61.0469 51.606 36.2925
      vertex -59.6064 56.0424 39.4322
      vertex -79.077 -86.9506 22.1894
    endloop
  endfacet
  facet normal 0.977078 -0.200282 -0.0721563
    outer loop
      vertex -61.1543 62.1842 5.47667
      vertex -61.0469 51.606 36.2925
      vertex -64.7527 36.4373 28.215
    endloop
  endfacet
  facet normal 0.971778 -0.222057 -0.0796127
    outer loop
      vertex -60.7365 64.0126 5.47667
      vertex -61.0469 51.606 36.2925
      vertex -61.1543 62.1842 5.47667
    endloop
  endfacet
  facet normal 0 0 -1
    outer loop
      vertex 87.2053 39.4017 -3
      vertex 91.9793 42.0942 -3
      vertex 89.5927 -47.804 -3
    endloop
  endfacet
  facet normal 0 0 -1
    outer loop
      vertex 84.9127 66.603 -3
      vertex 91.9793 42.0942 -3
      vertex 87.2053 39.4017 -3
    endloop
  endfacet
  facet normal 0 0 -1
    outer loop
      vertex 89.5927 -47.804 -3
      vertex 84.9127 -47.2155 -3
      vertex 87.2053 39.4017 -3
    endloop
  endfacet
  facet normal 0 0 -1
    outer loop
      vertex 82.1844 -54.9295 -3
      vertex 84.9127 -47.2155 -3
      vertex 89.5927 -47.804 -3
    endloop
  endfacet
  facet normal 0 0 -1
    outer loop
      vertex 82.1844 -54.9295 -3
      vertex 77.796 -54.081 -3
      vertex 84.9127 -47.2155 -3
    endloop
  endfacet
  facet normal 0 0 -1
    outer loop
      vertex 23.2342 -82.0083 -3
      vertex 77.796 -54.081 -3
      vertex 82.1844 -54.9295 -3
    endloop
  endfacet
  facet normal 0 0 -1
    outer loop
      vertex 23.2342 -82.0083 -3
      vertex 19.6131 -80.8873 -3
      vertex 77.796 -54.081 -3
    endloop
  endfacet
  facet normal 0 0 -1
    outer loop
      vertex -18.474 -101.167 -3
      vertex 19.6131 -80.8873 -3
      vertex 23.2342 -82.0083 -3
    endloop
  endfacet
  facet normal 0 0 -1
    outer loop
      vertex -18.474 -101.167 -3
      vertex -21.5522 -99.8531 -3
      vertex 19.6131 -80.8873 -3
    endloop
  endfacet
  facet normal 0 0 -1
    outer loop
      vertex -22.0161 -102.716 -3
      vertex -21.5522 -99.8531 -3
      vertex -18.474 -101.167 -3
    endloop
  endfacet
  facet normal 0 0 -1
    outer loop
      vertex -22.0161 -102.716 -3
      vertex -24.2251 -101.025 -3
      vertex -21.5522 -99.8531 -3
    endloop
  endfacet
  facet normal -0 0 -1
    outer loop
      vertex -22.0161 -102.716 -3
      vertex -32.0432 -104.405 -3
      vertex -24.2251 -101.025 -3
    endloop
  endfacet
  facet normal 0 0 -1
    outer loop
      vertex -32.377 -107.182 -3
      vertex -32.0432 -104.405 -3
      vertex -22.0161 -102.716 -3
    endloop
  endfacet
  facet normal 0 0 -1
    outer loop
      vertex -32.377 -107.182 -3
      vertex -50.2548 -106.195 -3
      vertex -32.0432 -104.405 -3
    endloop
  endfacet
  facet normal 0 0 -1
    outer loop
      vertex -51.1144 -109.017 -3
      vertex -50.2548 -106.195 -3
      vertex -32.377 -107.182 -3
    endloop
  endfacet
  facet normal 0 0 -1
    outer loop
      vertex -55.0044 -107.075 -3
      vertex -50.2548 -106.195 -3
      vertex -51.1144 -109.017 -3
    endloop
  endfacet
  facet normal -0 0 -1
    outer loop
      vertex -50.2548 -106.195 -3
      vertex -55.0044 -107.075 -3
      vertex -53.9916 -104.323 -3
    endloop
  endfacet
  facet normal 0 0 -1
    outer loop
      vertex -71.4473 -97.2097 -3
      vertex -53.9916 -104.323 -3
      vertex -55.0044 -107.075 -3
    endloop
  endfacet
  facet normal 0 0 -1
    outer loop
      vertex -53.9916 -104.323 -3
      vertex -71.4473 -97.2097 -3
      vertex -69.7872 -94.8181 -3
    endloop
  endfacet
  facet normal 0 0 -1
    outer loop
      vertex -81.1178 -89.0442 -3
      vertex -69.7872 -94.8181 -3
      vertex -71.4473 -97.2097 -3
    endloop
  endfacet
  facet normal 0 0 -1
    outer loop
      vertex -81.8809 -86.4643 -3
      vertex -79.077 -86.9506 -3
      vertex -81.1178 -89.0442 -3
    endloop
  endfacet
  facet normal 0 0 -1
    outer loop
      vertex -69.7872 -94.8181 -3
      vertex -81.1178 -89.0442 -3
      vertex -79.077 -86.9506 -3
    endloop
  endfacet
  facet normal 0 0 -1
    outer loop
      vertex 91.9793 42.0942 -3
      vertex 84.9127 66.603 -3
      vertex 89.5927 70.3259 -3
    endloop
  endfacet
  facet normal 0 0 -1
    outer loop
      vertex 84.9127 66.603 -3
      vertex 82.1844 75.5421 -3
      vertex 89.5927 70.3259 -3
    endloop
  endfacet
  facet normal 0 0 -1
    outer loop
      vertex 77.796 71.6289 -3
      vertex 82.1844 75.5421 -3
      vertex 84.9127 66.603 -3
    endloop
  endfacet
  facet normal 0 0 -1
    outer loop
      vertex 77.796 71.6289 -3
      vertex 29.6195 91.4422 -3
      vertex 82.1844 75.5421 -3
    endloop
  endfacet
  facet normal 0 0 -1
    outer loop
      vertex 27.3007 86.9487 -3
      vertex 29.6195 91.4422 -3
      vertex 77.796 71.6289 -3
    endloop
  endfacet
  facet normal 0 0 -1
    outer loop
      vertex 27.3007 86.9487 -3
      vertex -6.84091 92.3398 -3
      vertex 29.6195 91.4422 -3
    endloop
  endfacet
  facet normal 0 0 -1
    outer loop
      vertex -7.72433 87.8135 -3
      vertex -6.84091 92.3398 -3
      vertex 27.3007 86.9487 -3
    endloop
  endfacet
  facet normal 0 0 -1
    outer loop
      vertex -7.72433 87.8135 -3
      vertex -17.9534 92.3398 -3
      vertex -6.84091 92.3398 -3
    endloop
  endfacet
  facet normal 0 0 -1
    outer loop
      vertex -18.3993 87.8135 -3
      vertex -17.9534 92.3398 -3
      vertex -7.72433 87.8135 -3
    endloop
  endfacet
  facet normal 0 0 -1
    outer loop
      vertex -23.4981 91.2823 -3
      vertex -18.3993 87.8135 -3
      vertex -23.4981 86.8382 -3
    endloop
  endfacet
  facet normal 0 0 -1
    outer loop
      vertex -18.3993 87.8135 -3
      vertex -23.4981 91.2823 -3
      vertex -17.9534 92.3398 -3
    endloop
  endfacet
  facet normal 0 0 -1
    outer loop
      vertex -39.7211 88.1883 -3
      vertex -38.4981 83.9688 -3
      vertex -39.31 83.8135 -3
    endloop
  endfacet
  facet normal 0 0 -1
    outer loop
      vertex -38.4981 83.9688 -3
      vertex -39.7211 88.1883 -3
      vertex -38.4981 88.4215 -3
    endloop
  endfacet
  facet normal 0 0 -1
    outer loop
      vertex -60.8763 69.2455 -3
      vertex -39.31 83.8135 -3
      vertex -59.6323 65.5621 -3
    endloop
  endfacet
  facet normal -0 0 -1
    outer loop
      vertex -39.31 83.8135 -3
      vertex -60.8763 69.2455 -3
      vertex -39.7211 88.1883 -3
    endloop
  endfacet
  facet normal 0 0 -1
    outer loop
      vertex -62.5718 65.7397 -3
      vertex -59.6323 65.5621 -3
      vertex -60.8327 64.0588 -3
    endloop
  endfacet
  facet normal 0 0 -1
    outer loop
      vertex -62.5718 65.7397 -3
      vertex -60.8327 64.0588 -3
      vertex -61.2611 62.1842 -3
    endloop
  endfacet
  facet normal 0 0 -1
    outer loop
      vertex -59.6323 65.5621 -3
      vertex -62.5718 65.7397 -3
      vertex -62.1258 67.6853 -3
    endloop
  endfacet
  facet normal 0 0 -1
    outer loop
      vertex -59.6323 65.5621 -3
      vertex -62.1258 67.6853 -3
      vertex -60.8763 69.2455 -3
    endloop
  endfacet
  facet normal 0 0 -1
    outer loop
      vertex -67.1491 33.6556 -3
      vertex -61.2611 62.1842 -3
      vertex -65.6582 31.2711 -3
    endloop
  endfacet
  facet normal -0 0 -1
    outer loop
      vertex -61.2611 62.1842 -3
      vertex -67.1491 33.6556 -3
      vertex -62.5718 65.7397 -3
    endloop
  endfacet
  facet normal 0 0 -1
    outer loop
      vertex -79.81 -84.4649 -3
      vertex -67.1491 33.6556 -3
      vertex -65.6582 31.2711 -3
    endloop
  endfacet
  facet normal 0 0 -1
    outer loop
      vertex -79.077 -86.9506 -3
      vertex -81.8809 -86.4643 -3
      vertex -79.81 -84.4649 -3
    endloop
  endfacet
  facet normal -0 0 -1
    outer loop
      vertex -79.81 -84.4649 -3
      vertex -81.8809 -86.4643 -3
      vertex -67.1491 33.6556 -3
    endloop
  endfacet
endsolid OpenSCAD_Model
