  0
SECTION
  2
BLOCKS
  0
ENDSEC
  0
SECTION
  2
ENTITIES
  0
LINE
  8
0
 10
-74.4915
 20
-73.2774
 11
-74.1067
 21
-77.0093
  0
LINE
  8
0
 10
-74.1067
 20
-77.0093
 11
-73.9121
 21
-78.8971
  0
LINE
  8
0
 10
-73.9121
 20
-78.8971
 11
-60.5579
 21
-89.8642
  0
LINE
  8
0
 10
-60.5579
 20
-89.8642
 11
-58.7497
 21
-90.7577
  0
LINE
  8
0
 10
-58.7497
 20
-90.7577
 11
-55.531
 21
-91.1731
  0
LINE
  8
0
 10
-55.531
 20
-91.1731
 11
-55.531
 21
-91.1731
  0
LINE
  8
0
 10
-55.531
 20
-91.1731
 11
-45.8379
 21
-99.7436
  0
LINE
  8
0
 10
-45.8379
 20
-99.7436
 11
-42.3399
 21
-102.836
  0
LINE
  8
0
 10
-42.3399
 20
-102.836
 11
-42.3284
 21
-102.847
  0
LINE
  8
0
 10
-42.3284
 20
-102.847
 11
-42.3021
 21
-102.87
  0
LINE
  8
0
 10
-42.3021
 20
-102.87
 11
-36.6153
 21
-102.843
  0
LINE
  8
0
 10
-36.6153
 20
-102.843
 11
-34.8315
 21
-102.834
  0
LINE
  8
0
 10
-34.8315
 20
-102.834
 11
-31.2165
 21
-100.517
  0
LINE
  8
0
 10
-31.2165
 20
-100.517
 11
-27.3185
 21
-98.0186
  0
LINE
  8
0
 10
-27.3185
 20
-98.0186
 11
-25.2986
 21
-95.99
  0
LINE
  8
0
 10
-25.2986
 20
-95.99
 11
-22.9071
 21
-93.5881
  0
LINE
  8
0
 10
-22.9071
 20
-93.5881
 11
-22.9071
 21
-93.5881
  0
LINE
  8
0
 10
-22.9071
 20
-93.5881
 11
-22.217
 21
-92.6383
  0
LINE
  8
0
 10
-22.217
 20
-92.6383
 11
-20.3939
 21
-90.129
  0
LINE
  8
0
 10
-20.3939
 20
-90.129
 11
-21.305
 21
-86.276
  0
LINE
  8
0
 10
-21.305
 20
-86.276
 11
-21.5837
 21
-85.0976
  0
LINE
  8
0
 10
-21.5837
 20
-85.0976
 11
-21.5837
 21
-85.0976
  0
LINE
  8
0
 10
-21.5837
 20
-85.0976
 11
-19.4422
 21
-82.7193
  0
LINE
  8
0
 10
-19.4422
 20
-82.7193
 11
-19.4421
 21
-82.7191
  0
LINE
  8
0
 10
-19.4421
 20
-82.7191
 11
-12.4435
 21
-74.9464
  0
LINE
  8
0
 10
-12.4435
 20
-74.9464
 11
-5.66109
 21
-70.3657
  0
LINE
  8
0
 10
-5.66109
 20
-70.3657
 11
-5.66077
 21
-70.3655
  0
LINE
  8
0
 10
-5.66077
 20
-70.3655
 11
-2.12151
 21
-67.9751
  0
LINE
  8
0
 10
-2.12151
 20
-67.9751
 11
-1.0761
 21
-69.286
  0
LINE
  8
0
 10
-1.0761
 20
-69.286
 11
0.597833
 21
-70.0921
  0
LINE
  8
0
 10
0.597833
 20
-70.0921
 11
0.629229
 21
-70.1073
  0
LINE
  8
0
 10
0.629229
 20
-70.1073
 11
2.522
 21
-70.1073
  0
LINE
  8
0
 10
2.522
 20
-70.1073
 11
2.5534
 21
-70.0921
  0
LINE
  8
0
 10
2.5534
 20
-70.0921
 11
4.22733
 21
-69.286
  0
LINE
  8
0
 10
4.22733
 20
-69.286
 11
5.38572
 21
-67.8334
  0
LINE
  8
0
 10
5.38572
 20
-67.8334
 11
5.40745
 21
-67.8062
  0
LINE
  8
0
 10
5.40745
 20
-67.8062
 11
5.41521
 21
-67.7722
  0
LINE
  8
0
 10
5.41521
 20
-67.7722
 11
5.82863
 21
-65.9609
  0
LINE
  8
0
 10
5.82863
 20
-65.9609
 11
5.76658
 21
-65.689
  0
LINE
  8
0
 10
5.76658
 20
-65.689
 11
14.4656
 21
-64.0863
  0
LINE
  8
0
 10
14.4656
 20
-64.0863
 11
22.3229
 21
-64.0863
  0
LINE
  8
0
 10
22.3229
 20
-64.0863
 11
22.3668
 21
-64.0863
  0
LINE
  8
0
 10
22.3668
 20
-64.0863
 11
34.8019
 21
-64.0863
  0
LINE
  8
0
 10
34.8019
 20
-64.0863
 11
39.88
 21
-57.4992
  0
LINE
  8
0
 10
39.88
 20
-57.4992
 11
43.1468
 21
-53.2616
  0
LINE
  8
0
 10
43.1468
 20
-53.2616
 11
47.0625
 21
-53.2616
  0
LINE
  8
0
 10
47.0625
 20
-53.2616
 11
53.216
 21
-53.2616
  0
LINE
  8
0
 10
53.216
 20
-53.2616
 11
57.217
 21
-53.2616
  0
LINE
  8
0
 10
57.217
 20
-53.2616
 11
76.5207
 21
-53.2616
  0
LINE
  8
0
 10
76.5207
 20
-53.2616
 11
81.7971
 21
-48.165
  0
LINE
  8
0
 10
81.7971
 20
-48.165
 11
83.5207
 21
-46.5001
  0
LINE
  8
0
 10
83.5207
 20
-46.5001
 11
83.5207
 21
35.1657
  0
LINE
  8
0
 10
83.5207
 20
35.1657
 11
84.1724
 21
35.4795
  0
LINE
  8
0
 10
84.1724
 20
35.4795
 11
85.3308
 21
36.9321
  0
LINE
  8
0
 10
85.3308
 20
36.9321
 11
85.3525
 21
36.9594
  0
LINE
  8
0
 10
85.3525
 20
36.9594
 11
85.3603
 21
36.9933
  0
LINE
  8
0
 10
85.3603
 20
36.9933
 11
85.7737
 21
38.8047
  0
LINE
  8
0
 10
85.7737
 20
38.8047
 11
85.3603
 21
40.616
  0
LINE
  8
0
 10
85.3603
 20
40.616
 11
85.3525
 21
40.65
  0
LINE
  8
0
 10
85.3525
 20
40.65
 11
85.3308
 21
40.6772
  0
LINE
  8
0
 10
85.3308
 20
40.6772
 11
84.1724
 21
42.1298
  0
LINE
  8
0
 10
84.1724
 20
42.1298
 11
83.5207
 21
42.4437
  0
LINE
  8
0
 10
83.5207
 20
42.4437
 11
83.5207
 21
65.5939
  0
LINE
  8
0
 10
83.5207
 20
65.5939
 11
78.1484
 21
69.3927
  0
LINE
  8
0
 10
78.1484
 20
69.3927
 11
76.5207
 21
70.5436
  0
LINE
  8
0
 10
76.5207
 20
70.5436
 11
56.7221
 21
70.5436
  0
LINE
  8
0
 10
56.7221
 20
70.5436
 11
56.0622
 21
70.5436
  0
LINE
  8
0
 10
56.0622
 20
70.5436
 11
42.5186
 21
70.5436
  0
LINE
  8
0
 10
42.5186
 20
70.5436
 11
39.0647
 21
70.5436
  0
LINE
  8
0
 10
39.0647
 20
70.5436
 11
38.0957
 21
73.2121
  0
LINE
  8
0
 10
38.0957
 20
73.2121
 11
34.7072
 21
82.5436
  0
LINE
  8
0
 10
34.7072
 20
82.5436
 11
29.9172
 21
82.5436
  0
LINE
  8
0
 10
29.9172
 20
82.5436
 11
29.7459
 21
83.2943
  0
LINE
  8
0
 10
29.7459
 20
83.2943
 11
29.7381
 21
83.3283
  0
LINE
  8
0
 10
29.7381
 20
83.3283
 11
29.7164
 21
83.3555
  0
LINE
  8
0
 10
29.7164
 20
83.3555
 11
28.558
 21
84.8081
  0
LINE
  8
0
 10
28.558
 20
84.8081
 11
26.8841
 21
85.6142
  0
LINE
  8
0
 10
26.8841
 20
85.6142
 11
26.8527
 21
85.6294
  0
LINE
  8
0
 10
26.8527
 20
85.6294
 11
24.9599
 21
85.6294
  0
LINE
  8
0
 10
24.9599
 20
85.6294
 11
24.9285
 21
85.6142
  0
LINE
  8
0
 10
24.9285
 20
85.6142
 11
23.2546
 21
84.8081
  0
LINE
  8
0
 10
23.2546
 20
84.8081
 11
22.0962
 21
83.3555
  0
LINE
  8
0
 10
22.0962
 20
83.3555
 11
22.0744
 21
83.3283
  0
LINE
  8
0
 10
22.0744
 20
83.3283
 11
22.0667
 21
83.2943
  0
LINE
  8
0
 10
22.0667
 20
83.2943
 11
21.8953
 21
82.5436
  0
LINE
  8
0
 10
21.8953
 20
82.5436
 11
21.497
 21
82.5436
  0
LINE
  8
0
 10
21.497
 20
82.5436
 11
21.4736
 21
82.5436
  0
LINE
  8
0
 10
21.4736
 20
82.5436
 11
17.8178
 21
82.5436
  0
LINE
  8
0
 10
17.8178
 20
82.5436
 11
16.9409
 21
83.1809
  0
LINE
  8
0
 10
16.9409
 20
83.1809
 11
13.9379
 21
85.3636
  0
LINE
  8
0
 10
13.9379
 20
85.3636
 11
1.04112
 21
85.3636
  0
LINE
  8
0
 10
1.04112
 20
85.3636
 11
1.01713
 21
85.3636
  0
LINE
  8
0
 10
1.01713
 20
85.3636
 11
-2.72437
 21
85.3636
  0
LINE
  8
0
 10
-2.72437
 20
85.3636
 11
-3.9224
 21
83.1231
  0
LINE
  8
0
 10
-3.9224
 20
83.1231
 11
-4.23221
 21
82.5436
  0
LINE
  8
0
 10
-4.23221
 20
82.5436
 11
-17.3313
 21
82.5436
  0
LINE
  8
0
 10
-17.3313
 20
82.5436
 11
-17.3506
 21
82.5436
  0
LINE
  8
0
 10
-17.3506
 20
82.5436
 11
-20.3322
 21
82.5436
  0
LINE
  8
0
 10
-20.3322
 20
82.5436
 11
-22.6407
 21
82.5436
  0
LINE
  8
0
 10
-22.6407
 20
82.5436
 11
-23.1074
 21
82.5436
  0
LINE
  8
0
 10
-23.1074
 20
82.5436
 11
-36.0821
 21
82.5436
  0
LINE
  8
0
 10
-36.0821
 20
82.5436
 11
-36.0988
 21
82.5436
  0
LINE
  8
0
 10
-36.0988
 20
82.5436
 11
-38.6522
 21
82.5436
  0
LINE
  8
0
 10
-38.6522
 20
82.5436
 11
-38.6656
 21
82.5436
  0
LINE
  8
0
 10
-38.6656
 20
82.5436
 11
-40.0812
 21
81.0657
  0
LINE
  8
0
 10
-40.0812
 20
81.0657
 11
-46.4743
 21
74.3908
  0
LINE
  8
0
 10
-46.4743
 20
74.3908
 11
-53.4743
 21
67.3908
  0
LINE
  8
0
 10
-53.4743
 20
67.3908
 11
-54.4449
 21
65.0944
  0
LINE
  8
0
 10
-54.4449
 20
65.0944
 11
-55.024
 21
65.3733
  0
LINE
  8
0
 10
-55.024
 20
65.3733
 11
-55.0554
 21
65.3884
  0
LINE
  8
0
 10
-55.0554
 20
65.3884
 11
-56.9482
 21
65.3884
  0
LINE
  8
0
 10
-56.9482
 20
65.3884
 11
-56.9796
 21
65.3733
  0
LINE
  8
0
 10
-56.9796
 20
65.3733
 11
-58.6535
 21
64.5672
  0
LINE
  8
0
 10
-58.6535
 20
64.5672
 11
-59.8119
 21
63.1146
  0
LINE
  8
0
 10
-59.8119
 20
63.1146
 11
-59.8336
 21
63.0874
  0
LINE
  8
0
 10
-59.8336
 20
63.0874
 11
-59.8414
 21
63.0534
  0
LINE
  8
0
 10
-59.8414
 20
63.0534
 11
-60.2548
 21
61.2421
  0
LINE
  8
0
 10
-60.2548
 20
61.2421
 11
-59.8414
 21
59.4307
  0
LINE
  8
0
 10
-59.8414
 20
59.4307
 11
-59.8336
 21
59.3967
  0
LINE
  8
0
 10
-59.8336
 20
59.3967
 11
-59.8119
 21
59.3695
  0
LINE
  8
0
 10
-59.8119
 20
59.3695
 11
-58.6535
 21
57.9169
  0
LINE
  8
0
 10
-58.6535
 20
57.9169
 11
-57.6769
 21
57.4466
  0
LINE
  8
0
 10
-57.6769
 20
57.4466
 11
-58.6293
 21
55.1933
  0
LINE
  8
0
 10
-58.6293
 20
55.1933
 11
-58.9731
 21
54.133
  0
LINE
  8
0
 10
-58.9731
 20
54.133
 11
-60.0461
 21
50.8241
  0
LINE
  8
0
 10
-60.0461
 20
50.8241
 11
-62.8067
 21
39.5103
  0
LINE
  8
0
 10
-62.8067
 20
39.5103
 11
-63.6912
 21
35.8852
  0
LINE
  8
0
 10
-63.6912
 20
35.8852
 11
-63.9732
 21
34.274
  0
LINE
  8
0
 10
-63.9732
 20
34.274
 11
-64.5819
 21
30.7973
  0
LINE
  8
0
 10
-64.5819
 20
30.7973
 11
-65.8712
 21
19.4114
  0
LINE
  8
0
 10
-65.8712
 20
19.4114
 11
-66.4687
 21
14.135
  0
LINE
  8
0
 10
-66.4687
 20
14.135
 11
-66.5815
 21
12.1074
  0
LINE
  8
0
 10
-66.5815
 20
12.1074
 11
-66.7725
 21
8.67499
  0
LINE
  8
0
 10
-66.7725
 20
8.67499
 11
-66.7725
 21
-8.67499
  0
LINE
  8
0
 10
-66.7725
 20
-8.67499
 11
-66.5815
 21
-12.1074
  0
LINE
  8
0
 10
-66.5815
 20
-12.1074
 11
-66.4687
 21
-14.135
  0
LINE
  8
0
 10
-66.4687
 20
-14.135
 11
-65.8712
 21
-19.4114
  0
LINE
  8
0
 10
-65.8712
 20
-19.4114
 11
-64.5819
 21
-30.7973
  0
LINE
  8
0
 10
-64.5819
 20
-30.7973
 11
-60.75
 21
-36.5347
  0
LINE
  8
0
 10
-60.75
 20
-36.5347
 11
-59.1787
 21
-38.8875
  0
LINE
  8
0
 10
-59.1787
 20
-38.8875
 11
-60.0012
 21
-39.5777
  0
LINE
  8
0
 10
-60.0012
 20
-39.5777
 11
-60.8409
 21
-39.1734
  0
LINE
  8
0
 10
-60.8409
 20
-39.1734
 11
-60.8723
 21
-39.1583
  0
LINE
  8
0
 10
-60.8723
 20
-39.1583
 11
-62.765
 21
-39.1583
  0
LINE
  8
0
 10
-62.765
 20
-39.1583
 11
-62.7964
 21
-39.1734
  0
LINE
  8
0
 10
-62.7964
 20
-39.1734
 11
-64.4704
 21
-39.9795
  0
LINE
  8
0
 10
-64.4704
 20
-39.9795
 11
-65.6288
 21
-41.4321
  0
LINE
  8
0
 10
-65.6288
 20
-41.4321
 11
-65.6505
 21
-41.4594
  0
LINE
  8
0
 10
-65.6505
 20
-41.4594
 11
-65.6582
 21
-41.4933
  0
LINE
  8
0
 10
-65.6582
 20
-41.4933
 11
-66.0717
 21
-43.3047
  0
LINE
  8
0
 10
-66.0717
 20
-43.3047
 11
-65.8099
 21
-44.4518
  0
LINE
  8
0
 10
-65.8099
 20
-44.4518
 11
-67.2128
 21
-45.6289
  0
LINE
  8
0
 10
-67.2128
 20
-45.6289
 11
-67.2582
 21
-45.667
  0
LINE
  8
0
 10
-67.2582
 20
-45.667
 11
-67.2582
 21
-45.667
  0
LINE
  8
0
 10
-67.2582
 20
-45.667
 11
-67.2763
 21
-45.6822
  0
LINE
  8
0
 10
-67.2763
 20
-45.6822
 11
-67.6346
 21
-46.1192
  0
LINE
  8
0
 10
-67.6346
 20
-46.1192
 11
-68.5322
 21
-47.2136
  0
LINE
  8
0
 10
-68.5322
 20
-47.2136
 11
-66.9875
 21
-51.1791
  0
LINE
  8
0
 10
-66.9875
 20
-51.1791
 11
-64.7324
 21
-56.9681
  0
LINE
  8
0
 10
-64.7324
 20
-56.9681
 11
-66.6858
 21
-59.4684
  0
LINE
  8
0
 10
-66.6858
 20
-59.4684
 11
-67.3394
 21
-60.3049
  0
LINE
  8
0
 10
-67.3394
 20
-60.3049
 11
-71.2066
 21
-67.3192
  0
LINE
  8
0
 10
-71.2066
 20
-67.3192
 11
-74.4667
 21
-73.2324
  0
LINE
  8
0
 10
-74.4667
 20
-73.2324
 11
-74.4915
 21
-73.2774
  0
LINE
  8
0
 10
-72.0597
 20
-75.0225
 11
-61.9058
 21
-57.1494
  0
LINE
  8
0
 10
-61.9058
 20
-57.1494
 11
-61.9058
 21
-57.1494
  0
LINE
  8
0
 10
-61.9058
 20
-57.1494
 11
-61.8942
 21
-57.1345
  0
LINE
  8
0
 10
-61.8942
 20
-57.1345
 11
-61.708
 21
-56.8963
  0
LINE
  8
0
 10
-61.708
 20
-56.8963
 11
-61.708
 21
-56.8963
  0
LINE
  8
0
 10
-61.708
 20
-56.8963
 11
-61.7069
 21
-56.8949
  0
LINE
  8
0
 10
-61.7069
 20
-56.8949
 11
-61.7069
 21
-56.8949
  0
LINE
  8
0
 10
-61.7069
 20
-56.8949
 11
-61.6576
 21
-56.8318
  0
LINE
  8
0
 10
-61.6576
 20
-56.8318
 11
-64.6275
 21
-49.8505
  0
LINE
  8
0
 10
-64.6275
 20
-49.8505
 11
-65.6266
 21
-47.5019
  0
LINE
  8
0
 10
-65.6266
 20
-47.5019
 11
-64.5172
 21
-46.571
  0
LINE
  8
0
 10
-64.5172
 20
-46.571
 11
-64.4704
 21
-46.6298
  0
LINE
  8
0
 10
-64.4704
 20
-46.6298
 11
-62.7964
 21
-47.4359
  0
LINE
  8
0
 10
-62.7964
 20
-47.4359
 11
-62.765
 21
-47.4511
  0
LINE
  8
0
 10
-62.765
 20
-47.4511
 11
-60.8723
 21
-47.4511
  0
LINE
  8
0
 10
-60.8723
 20
-47.4511
 11
-60.8409
 21
-47.4359
  0
LINE
  8
0
 10
-60.8409
 20
-47.4359
 11
-59.1669
 21
-46.6298
  0
LINE
  8
0
 10
-59.1669
 20
-46.6298
 11
-58.0085
 21
-45.1772
  0
LINE
  8
0
 10
-58.0085
 20
-45.1772
 11
-57.9868
 21
-45.15
  0
LINE
  8
0
 10
-57.9868
 20
-45.15
 11
-57.9791
 21
-45.116
  0
LINE
  8
0
 10
-57.9791
 20
-45.116
 11
-57.5656
 21
-43.3047
  0
LINE
  8
0
 10
-57.5656
 20
-43.3047
 11
-57.9791
 21
-41.4933
  0
LINE
  8
0
 10
-57.9791
 20
-41.4933
 11
-57.9868
 21
-41.4594
  0
LINE
  8
0
 10
-57.9868
 20
-41.4594
 11
-58.0085
 21
-41.4321
  0
LINE
  8
0
 10
-58.0085
 20
-41.4321
 11
-58.1626
 21
-41.2389
  0
LINE
  8
0
 10
-58.1626
 20
-41.2389
 11
-57.1317
 21
-40.3738
  0
LINE
  8
0
 10
-57.1317
 20
-40.3738
 11
-57.1317
 21
-40.3738
  0
LINE
  8
0
 10
-57.1317
 20
-40.3738
 11
-57.0932
 21
-40.3415
  0
LINE
  8
0
 10
-57.0932
 20
-40.3415
 11
-56.3319
 21
-39.4133
  0
LINE
  8
0
 10
-56.3319
 20
-39.4133
 11
-55.8373
 21
-38.8101
  0
LINE
  8
0
 10
-55.8373
 20
-38.8101
 11
-59.5331
 21
-34.2976
  0
LINE
  8
0
 10
-59.5331
 20
-34.2976
 11
-62.4819
 21
-30.6973
  0
LINE
  8
0
 10
-62.4819
 20
-30.6973
 11
-62.8667
 21
-27.2984
  0
LINE
  8
0
 10
-62.8667
 20
-27.2984
 11
-54.5258
 21
-27.2984
  0
LINE
  8
0
 10
-54.5258
 20
-27.2984
 11
-54.5258
 21
25.2984
  0
LINE
  8
0
 10
-54.5258
 20
25.2984
 11
-63.0932
 21
25.2984
  0
LINE
  8
0
 10
-63.0932
 20
25.2984
 11
-62.4819
 21
30.6973
  0
LINE
  8
0
 10
-62.4819
 20
30.6973
 11
-61.8453
 21
34.3334
  0
LINE
  8
0
 10
-61.8453
 20
34.3334
 11
-61.5912
 21
35.7852
  0
LINE
  8
0
 10
-61.5912
 20
35.7852
 11
-60.7753
 21
39.1288
  0
LINE
  8
0
 10
-60.7753
 20
39.1288
 11
-57.9461
 21
50.7241
  0
LINE
  8
0
 10
-57.9461
 20
50.7241
 11
-56.8464
 21
54.1153
  0
LINE
  8
0
 10
-56.8464
 20
54.1153
 11
-56.5293
 21
55.0932
  0
LINE
  8
0
 10
-56.5293
 20
55.0932
 11
-55.683
 21
57.0957
  0
LINE
  8
0
 10
-55.683
 20
57.0957
 11
-55.0554
 21
57.0957
  0
LINE
  8
0
 10
-55.0554
 20
57.0957
 11
-55.024
 21
57.1108
  0
LINE
  8
0
 10
-55.024
 20
57.1108
 11
-53.3501
 21
57.9169
  0
LINE
  8
0
 10
-53.3501
 20
57.9169
 11
-52.1917
 21
59.3695
  0
LINE
  8
0
 10
-52.1917
 20
59.3695
 11
-52.17
 21
59.3967
  0
LINE
  8
0
 10
-52.17
 20
59.3967
 11
-52.1622
 21
59.4307
  0
LINE
  8
0
 10
-52.1622
 20
59.4307
 11
-51.7488
 21
61.2421
  0
LINE
  8
0
 10
-51.7488
 20
61.2421
 11
-52.1622
 21
63.0534
  0
LINE
  8
0
 10
-52.1622
 20
63.0534
 11
-52.17
 21
63.0874
  0
LINE
  8
0
 10
-52.17
 20
63.0874
 11
-52.1917
 21
63.1146
  0
LINE
  8
0
 10
-52.1917
 20
63.1146
 11
-52.8111
 21
63.8913
  0
LINE
  8
0
 10
-52.8111
 20
63.8913
 11
-51.3743
 21
67.2908
  0
LINE
  8
0
 10
-51.3743
 20
67.2908
 11
-46.3743
 21
72.2908
  0
LINE
  8
0
 10
-46.3743
 20
72.2908
 11
-39.5581
 21
77.5106
  0
LINE
  8
0
 10
-39.5581
 20
77.5106
 11
-38.1566
 21
78.5838
  0
LINE
  8
0
 10
-38.1566
 20
78.5838
 11
-24.8916
 21
78.5838
  0
LINE
  8
0
 10
-24.8916
 20
78.5838
 11
-22.6282
 21
78.5838
  0
LINE
  8
0
 10
-22.6282
 20
78.5838
 11
-20.3692
 21
78.5838
  0
LINE
  8
0
 10
-20.3692
 20
78.5838
 11
-19.9309
 21
78.5838
  0
LINE
  8
0
 10
-19.9309
 20
78.5838
 11
-6.4789
 21
78.5838
  0
LINE
  8
0
 10
-6.4789
 20
78.5838
 11
-3.79965
 21
78.5838
  0
LINE
  8
0
 10
-3.79965
 20
78.5838
 11
-3.5117
 21
79.1524
  0
LINE
  8
0
 10
-3.5117
 20
79.1524
 11
-2.37155
 21
81.4038
  0
LINE
  8
0
 10
-2.37155
 20
81.4038
 11
10.8362
 21
81.4038
  0
LINE
  8
0
 10
10.8362
 20
81.4038
 11
10.8539
 21
81.4038
  0
LINE
  8
0
 10
10.8539
 20
81.4038
 11
14.0975
 21
81.4038
  0
LINE
  8
0
 10
14.0975
 20
81.4038
 11
17.0523
 21
79.2074
  0
LINE
  8
0
 10
17.0523
 20
79.2074
 11
17.8912
 21
78.5838
  0
LINE
  8
0
 10
17.8912
 20
78.5838
 11
22.9148
 21
78.5838
  0
LINE
  8
0
 10
22.9148
 20
78.5838
 11
23.2546
 21
78.1578
  0
LINE
  8
0
 10
23.2546
 20
78.1578
 11
24.9285
 21
77.3517
  0
LINE
  8
0
 10
24.9285
 20
77.3517
 11
24.9599
 21
77.3366
  0
LINE
  8
0
 10
24.9599
 20
77.3366
 11
26.8527
 21
77.3366
  0
LINE
  8
0
 10
26.8527
 20
77.3366
 11
26.8841
 21
77.3517
  0
LINE
  8
0
 10
26.8841
 20
77.3517
 11
28.558
 21
78.1578
  0
LINE
  8
0
 10
28.558
 20
78.1578
 11
28.8977
 21
78.5838
  0
LINE
  8
0
 10
28.8977
 20
78.5838
 11
31.4054
 21
78.5838
  0
LINE
  8
0
 10
31.4054
 20
78.5838
 11
34.7806
 21
78.5838
  0
LINE
  8
0
 10
34.7806
 20
78.5838
 11
35.6209
 21
76.2229
  0
LINE
  8
0
 10
35.6209
 20
76.2229
 11
39.0513
 21
66.5838
  0
LINE
  8
0
 10
39.0513
 20
66.5838
 11
52.8548
 21
66.5838
  0
LINE
  8
0
 10
52.8548
 20
66.5838
 11
56.2155
 21
66.5838
  0
LINE
  8
0
 10
56.2155
 20
66.5838
 11
58.7152
 21
66.5838
  0
LINE
  8
0
 10
58.7152
 20
66.5838
 11
58.7353
 21
66.5838
  0
LINE
  8
0
 10
58.7353
 20
66.5838
 11
59.3707
 21
66.5838
  0
LINE
  8
0
 10
59.3707
 20
66.5838
 11
76.4207
 21
66.5838
  0
LINE
  8
0
 10
76.4207
 20
66.5838
 11
77.5223
 21
65.8049
  0
LINE
  8
0
 10
77.5223
 20
65.8049
 11
81.4207
 21
63.0483
  0
LINE
  8
0
 10
81.4207
 20
63.0483
 11
81.4207
 21
53.6047
  0
LINE
  8
0
 10
81.4207
 20
53.6047
 11
81.4207
 21
50.9426
  0
LINE
  8
0
 10
81.4207
 20
50.9426
 11
81.4207
 21
46.2218
  0
LINE
  8
0
 10
81.4207
 20
46.2218
 11
81.4207
 21
44.2105
  0
LINE
  8
0
 10
81.4207
 20
44.2105
 11
81.4207
 21
42.9511
  0
LINE
  8
0
 10
81.4207
 20
42.9511
 11
80.5743
 21
42.9511
  0
LINE
  8
0
 10
80.5743
 20
42.9511
 11
80.5429
 21
42.9359
  0
LINE
  8
0
 10
80.5429
 20
42.9359
 11
78.869
 21
42.1298
  0
LINE
  8
0
 10
78.869
 20
42.1298
 11
77.7106
 21
40.6772
  0
LINE
  8
0
 10
77.7106
 20
40.6772
 11
77.6889
 21
40.65
  0
LINE
  8
0
 10
77.6889
 20
40.65
 11
77.6811
 21
40.616
  0
LINE
  8
0
 10
77.6811
 20
40.616
 11
77.2677
 21
38.8047
  0
LINE
  8
0
 10
77.2677
 20
38.8047
 11
77.6811
 21
36.9933
  0
LINE
  8
0
 10
77.6811
 20
36.9933
 11
77.6889
 21
36.9594
  0
LINE
  8
0
 10
77.6889
 20
36.9594
 11
77.7106
 21
36.9321
  0
LINE
  8
0
 10
77.7106
 20
36.9321
 11
78.869
 21
35.4795
  0
LINE
  8
0
 10
78.869
 20
35.4795
 11
80.5429
 21
34.6734
  0
LINE
  8
0
 10
80.5429
 20
34.6734
 11
80.5743
 21
34.6583
  0
LINE
  8
0
 10
80.5743
 20
34.6583
 11
81.4207
 21
34.6583
  0
LINE
  8
0
 10
81.4207
 20
34.6583
 11
81.4207
 21
34.6084
  0
LINE
  8
0
 10
81.4207
 20
34.6084
 11
81.4207
 21
29.3788
  0
LINE
  8
0
 10
81.4207
 20
29.3788
 11
81.4207
 21
25.4919
  0
LINE
  8
0
 10
81.4207
 20
25.4919
 11
81.4207
 21
21.5353
  0
LINE
  8
0
 10
81.4207
 20
21.5353
 11
81.4207
 21
14.9608
  0
LINE
  8
0
 10
81.4207
 20
14.9608
 11
81.4207
 21
14.9181
  0
LINE
  8
0
 10
81.4207
 20
14.9181
 11
81.4207
 21
10.1874
  0
LINE
  8
0
 10
81.4207
 20
10.1874
 11
81.0192
 21
5.53395
  0
LINE
  8
0
 10
81.0192
 20
5.53395
 11
81.0185
 21
5.52563
  0
LINE
  8
0
 10
81.0185
 20
5.52563
 11
80.6633
 21
-2.56757
  0
LINE
  8
0
 10
80.6633
 20
-2.56757
 11
80.6279
 21
-3.375
  0
LINE
  8
0
 10
80.6279
 20
-3.375
 11
80.6279
 21
-20.625
  0
LINE
  8
0
 10
80.6279
 20
-20.625
 11
80.6633
 21
-21.4324
  0
LINE
  8
0
 10
80.6633
 20
-21.4324
 11
81.0185
 21
-29.5256
  0
LINE
  8
0
 10
81.0185
 20
-29.5256
 11
81.0192
 21
-29.5339
  0
LINE
  8
0
 10
81.0192
 20
-29.5339
 11
81.4207
 21
-34.1874
  0
LINE
  8
0
 10
81.4207
 20
-34.1874
 11
81.4207
 21
-38.9181
  0
LINE
  8
0
 10
81.4207
 20
-38.9181
 11
81.4207
 21
-38.9608
  0
LINE
  8
0
 10
81.4207
 20
-38.9608
 11
81.4207
 21
-45.4977
  0
LINE
  8
0
 10
81.4207
 20
-45.4977
 11
78.6227
 21
-48.2003
  0
LINE
  8
0
 10
78.6227
 20
-48.2003
 11
76.4207
 21
-50.3273
  0
LINE
  8
0
 10
76.4207
 20
-50.3273
 11
59.3707
 21
-50.3273
  0
LINE
  8
0
 10
59.3707
 20
-50.3273
 11
56.1895
 21
-50.3273
  0
LINE
  8
0
 10
56.1895
 20
-50.3273
 11
56.137
 21
-50.3273
  0
LINE
  8
0
 10
56.137
 20
-50.3273
 11
53.4514
 21
-50.3273
  0
LINE
  8
0
 10
53.4514
 20
-50.3273
 11
44.8814
 21
-50.3273
  0
LINE
  8
0
 10
44.8814
 20
-50.3273
 11
36.3211
 21
-50.3273
  0
LINE
  8
0
 10
36.3211
 20
-50.3273
 11
36.1435
 21
-50.8733
  0
LINE
  8
0
 10
36.1435
 20
-50.8733
 11
36.0264
 21
-51.2332
  0
LINE
  8
0
 10
36.0264
 20
-51.2332
 11
36.0528
 21
-52.3628
  0
LINE
  8
0
 10
36.0528
 20
-52.3628
 11
36.0715
 21
-53.165
  0
LINE
  8
0
 10
36.0715
 20
-53.165
 11
36.0729
 21
-53.2214
  0
LINE
  8
0
 10
36.0729
 20
-53.2214
 11
36.0738
 21
-53.2616
  0
LINE
  8
0
 10
36.0738
 20
-53.2616
 11
36.0738
 21
-53.2616
  0
LINE
  8
0
 10
36.0738
 20
-53.2616
 11
36.132
 21
-53.2616
  0
LINE
  8
0
 10
36.132
 20
-53.2616
 11
39.2175
 21
-53.2616
  0
LINE
  8
0
 10
39.2175
 20
-53.2616
 11
37.7762
 21
-55.2904
  0
LINE
  8
0
 10
37.7762
 20
-55.2904
 11
34.0626
 21
-60.5177
  0
LINE
  8
0
 10
34.0626
 20
-60.5177
 11
27.8962
 21
-60.5177
  0
LINE
  8
0
 10
27.8962
 20
-60.5177
 11
14.7112
 21
-60.5177
  0
LINE
  8
0
 10
14.7112
 20
-60.5177
 11
10.0694
 21
-61.6324
  0
LINE
  8
0
 10
10.0694
 20
-61.6324
 11
4.49487
 21
-62.9712
  0
LINE
  8
0
 10
4.49487
 20
-62.9712
 11
4.22733
 21
-62.6357
  0
LINE
  8
0
 10
4.22733
 20
-62.6357
 11
2.5534
 21
-61.8296
  0
LINE
  8
0
 10
2.5534
 20
-61.8296
 11
2.522
 21
-61.8145
  0
LINE
  8
0
 10
2.522
 20
-61.8145
 11
0.629229
 21
-61.8145
  0
LINE
  8
0
 10
0.629229
 20
-61.8145
 11
0.597833
 21
-61.8296
  0
LINE
  8
0
 10
0.597833
 20
-61.8296
 11
-1.0761
 21
-62.6357
  0
LINE
  8
0
 10
-1.0761
 20
-62.6357
 11
-2.2345
 21
-64.0883
  0
LINE
  8
0
 10
-2.2345
 20
-64.0883
 11
-2.25622
 21
-64.1156
  0
LINE
  8
0
 10
-2.25622
 20
-64.1156
 11
-2.26398
 21
-64.1495
  0
LINE
  8
0
 10
-2.26398
 20
-64.1495
 11
-2.66038
 21
-65.8863
  0
LINE
  8
0
 10
-2.66038
 20
-65.8863
 11
-5.93829
 21
-68.0425
  0
LINE
  8
0
 10
-5.93829
 20
-68.0425
 11
-5.93863
 21
-68.0427
  0
LINE
  8
0
 10
-5.93863
 20
-68.0427
 11
-13.5399
 21
-73.0429
  0
LINE
  8
0
 10
-13.5399
 20
-73.0429
 11
-14.4105
 21
-73.7075
  0
LINE
  8
0
 10
-14.4105
 20
-73.7075
 11
-14.4106
 21
-73.7075
  0
LINE
  8
0
 10
-14.4106
 20
-73.7075
 11
-15.1142
 21
-74.2446
  0
LINE
  8
0
 10
-15.1142
 20
-74.2446
 11
-15.1142
 21
-74.2446
  0
LINE
  8
0
 10
-15.1142
 20
-74.2446
 11
-15.1477
 21
-74.2818
  0
LINE
  8
0
 10
-15.1477
 20
-74.2818
 11
-15.1697
 21
-74.3062
  0
LINE
  8
0
 10
-15.1697
 20
-74.3062
 11
-20.8709
 21
-80.638
  0
LINE
  8
0
 10
-20.8709
 20
-80.638
 11
-20.8711
 21
-80.6383
  0
LINE
  8
0
 10
-20.8711
 20
-80.6383
 11
-24.6633
 21
-84.8499
  0
LINE
  8
0
 10
-24.6633
 20
-84.8499
 11
-24.6633
 21
-84.8499
  0
LINE
  8
0
 10
-24.6633
 20
-84.8499
 11
-24.6834
 21
-84.8722
  0
LINE
  8
0
 10
-24.6834
 20
-84.8722
 11
-24.3447
 21
-86.6103
  0
LINE
  8
0
 10
-24.3447
 20
-86.6103
 11
-23.7485
 21
-89.6706
  0
LINE
  8
0
 10
-23.7485
 20
-89.6706
 11
-26.2146
 21
-93.0648
  0
LINE
  8
0
 10
-26.2146
 20
-93.0648
 11
-37.649
 21
-100.64
  0
LINE
  8
0
 10
-37.649
 20
-100.64
 11
-37.649
 21
-100.64
  0
LINE
  8
0
 10
-37.649
 20
-100.64
 11
-40.2619
 21
-100.675
  0
LINE
  8
0
 10
-40.2619
 20
-100.675
 11
-42.9654
 21
-98.3099
  0
LINE
  8
0
 10
-42.9654
 20
-98.3099
 11
-53.2982
 21
-89.2701
  0
LINE
  8
0
 10
-53.2982
 20
-89.2701
 11
-53.5762
 21
-89.0681
  0
LINE
  8
0
 10
-53.5762
 20
-89.0681
 11
-53.5785
 21
-89.0664
  0
LINE
  8
0
 10
-53.5785
 20
-89.0664
 11
-53.644
 21
-89.0265
  0
LINE
  8
0
 10
-53.644
 20
-89.0265
 11
-58.6853
 21
-87.5011
  0
LINE
  8
0
 10
-58.6853
 20
-87.5011
 11
-71.8993
 21
-76.6783
  0
LINE
  8
0
 10
-71.8993
 20
-76.6783
 11
-71.8993
 21
-76.6783
  0
LINE
  8
0
 10
-71.8993
 20
-76.6783
 11
-72.0597
 21
-75.0225
  0
LINE
  8
0
 10
-64.6725
 20
-8.575
 11
-64.6725
 21
8.575
  0
LINE
  8
0
 10
-64.6725
 20
8.575
 11
-64.5746
 21
10.334
  0
LINE
  8
0
 10
-64.5746
 20
10.334
 11
-64.3687
 21
14.035
  0
LINE
  8
0
 10
-64.3687
 20
14.035
 11
-63.8303
 21
18.7893
  0
LINE
  8
0
 10
-63.8303
 20
18.7893
 11
-63.5258
 21
21.4784
  0
LINE
  8
0
 10
-63.5258
 20
21.4784
 11
-63.5258
 21
-21.4784
  0
LINE
  8
0
 10
-63.5258
 20
-21.4784
 11
-63.8303
 21
-18.7893
  0
LINE
  8
0
 10
-63.8303
 20
-18.7893
 11
-64.3687
 21
-14.035
  0
LINE
  8
0
 10
-64.3687
 20
-14.035
 11
-64.5746
 21
-10.334
  0
LINE
  8
0
 10
-64.5746
 20
-10.334
 11
-64.6725
 21
-8.575
  0
LINE
  8
0
 10
-63.5187
 20
-43.3047
 11
-62.6687
 21
-41.8324
  0
LINE
  8
0
 10
-62.6687
 20
-41.8324
 11
-60.9687
 21
-41.8324
  0
LINE
  8
0
 10
-60.9687
 20
-41.8324
 11
-60.1187
 21
-43.3047
  0
LINE
  8
0
 10
-60.1187
 20
-43.3047
 11
-60.9687
 21
-44.7769
  0
LINE
  8
0
 10
-60.9687
 20
-44.7769
 11
-62.6687
 21
-44.7769
  0
LINE
  8
0
 10
-62.6687
 20
-44.7769
 11
-63.5187
 21
-43.3047
  0
LINE
  8
0
 10
-57.7018
 20
61.2421
 11
-56.8518
 21
62.7143
  0
LINE
  8
0
 10
-56.8518
 20
62.7143
 11
-55.1518
 21
62.7143
  0
LINE
  8
0
 10
-55.1518
 20
62.7143
 11
-54.3018
 21
61.2421
  0
LINE
  8
0
 10
-54.3018
 20
61.2421
 11
-55.1518
 21
59.7698
  0
LINE
  8
0
 10
-55.1518
 20
59.7698
 11
-56.8518
 21
59.7698
  0
LINE
  8
0
 10
-56.8518
 20
59.7698
 11
-57.7018
 21
61.2421
  0
LINE
  8
0
 10
-0.124385
 20
-65.9609
 11
0.725615
 21
-64.4886
  0
LINE
  8
0
 10
0.725615
 20
-64.4886
 11
2.42561
 21
-64.4886
  0
LINE
  8
0
 10
2.42561
 20
-64.4886
 11
3.27561
 21
-65.9609
  0
LINE
  8
0
 10
3.27561
 20
-65.9609
 11
2.42561
 21
-67.4331
  0
LINE
  8
0
 10
2.42561
 20
-67.4331
 11
0.725615
 21
-67.4331
  0
LINE
  8
0
 10
0.725615
 20
-67.4331
 11
-0.124385
 21
-65.9609
  0
LINE
  8
0
 10
24.2063
 20
81.483
 11
25.0563
 21
82.9552
  0
LINE
  8
0
 10
25.0563
 20
82.9552
 11
26.7563
 21
82.9552
  0
LINE
  8
0
 10
26.7563
 20
82.9552
 11
27.6063
 21
81.483
  0
LINE
  8
0
 10
27.6063
 20
81.483
 11
26.7563
 21
80.0107
  0
LINE
  8
0
 10
26.7563
 20
80.0107
 11
25.0563
 21
80.0107
  0
LINE
  8
0
 10
25.0563
 20
80.0107
 11
24.2063
 21
81.483
  0
LINE
  8
0
 10
79.8207
 20
38.8047
 11
80.6707
 21
40.2769
  0
LINE
  8
0
 10
80.6707
 20
40.2769
 11
82.3707
 21
40.2769
  0
LINE
  8
0
 10
82.3707
 20
40.2769
 11
83.2207
 21
38.8047
  0
LINE
  8
0
 10
83.2207
 20
38.8047
 11
82.3707
 21
37.3324
  0
LINE
  8
0
 10
82.3707
 20
37.3324
 11
80.6707
 21
37.3324
  0
LINE
  8
0
 10
80.6707
 20
37.3324
 11
79.8207
 21
38.8047
  0
ENDSEC
  0
SECTION
  2
OBJECTS
  0
DICTIONARY
  0
ENDSEC
  0
EOF
