  0
SECTION
  2
BLOCKS
  0
ENDSEC
  0
SECTION
  2
ENTITIES
  0
LINE
  8
0
 10
-73.5674
 20
-73.4748
 11
-73.3357
 21
-75.7219
  0
LINE
  8
0
 10
-73.3357
 20
-75.7219
 11
-73.0037
 21
-78.9421
  0
LINE
  8
0
 10
-73.0037
 20
-78.9421
 11
-63.6207
 21
-86.6478
  0
LINE
  8
0
 10
-63.6207
 20
-86.6478
 11
-59.6495
 21
-89.9091
  0
LINE
  8
0
 10
-59.6495
 20
-89.9091
 11
-57.9386
 21
-90.7545
  0
LINE
  8
0
 10
-57.9386
 20
-90.7545
 11
-54.6569
 21
-91.178
  0
LINE
  8
0
 10
-54.6569
 20
-91.178
 11
-54.6569
 21
-91.178
  0
LINE
  8
0
 10
-54.6569
 20
-91.178
 11
-44.7723
 21
-99.9178
  0
LINE
  8
0
 10
-44.7723
 20
-99.9178
 11
-41.4528
 21
-102.853
  0
LINE
  8
0
 10
-41.4528
 20
-102.853
 11
-41.4279
 21
-102.875
  0
LINE
  8
0
 10
-41.4279
 20
-102.875
 11
-36.0489
 21
-102.849
  0
LINE
  8
0
 10
-36.0489
 20
-102.849
 11
-34.1434
 21
-102.84
  0
LINE
  8
0
 10
-34.1434
 20
-102.84
 11
-34.0357
 21
-102.771
  0
LINE
  8
0
 10
-34.0357
 20
-102.771
 11
-30.2492
 21
-100.344
  0
LINE
  8
0
 10
-30.2492
 20
-100.344
 11
-26.1183
 21
-97.6962
  0
LINE
  8
0
 10
-26.1183
 20
-97.6962
 11
-26.1183
 21
-97.6962
  0
LINE
  8
0
 10
-26.1183
 20
-97.6962
 11
-23.4107
 21
-94.9769
  0
LINE
  8
0
 10
-23.4107
 20
-94.9769
 11
-21.7069
 21
-93.2656
  0
LINE
  8
0
 10
-21.7069
 20
-93.2656
 11
-21.7069
 21
-93.2656
  0
LINE
  8
0
 10
-21.7069
 20
-93.2656
 11
-21.1151
 21
-92.4511
  0
LINE
  8
0
 10
-21.1151
 20
-92.4511
 11
-19.4279
 21
-90.129
  0
LINE
  8
0
 10
-19.4279
 20
-90.129
 11
-20.3573
 21
-86.1988
  0
LINE
  8
0
 10
-20.3573
 20
-86.1988
 11
-20.6177
 21
-85.0976
  0
LINE
  8
0
 10
-20.6177
 20
-85.0976
 11
-18.6234
 21
-82.8827
  0
LINE
  8
0
 10
-18.6234
 20
-82.8827
 11
-18.6232
 21
-82.8825
  0
LINE
  8
0
 10
-18.6232
 20
-82.8825
 11
-11.4776
 21
-74.9464
  0
LINE
  8
0
 10
-11.4776
 20
-74.9464
 11
-8.81143
 21
-73.1458
  0
LINE
  8
0
 10
-8.81143
 20
-73.1458
 11
-1.78339
 21
-68.3991
  0
LINE
  8
0
 10
-1.78339
 20
-68.3991
 11
-1.0761
 21
-69.286
  0
LINE
  8
0
 10
-1.0761
 20
-69.286
 11
0.597833
 21
-70.0921
  0
LINE
  8
0
 10
0.597833
 20
-70.0921
 11
0.629229
 21
-70.1073
  0
LINE
  8
0
 10
0.629229
 20
-70.1073
 11
2.522
 21
-70.1073
  0
LINE
  8
0
 10
2.522
 20
-70.1073
 11
2.5534
 21
-70.0921
  0
LINE
  8
0
 10
2.5534
 20
-70.0921
 11
4.22733
 21
-69.286
  0
LINE
  8
0
 10
4.22733
 20
-69.286
 11
5.38572
 21
-67.8334
  0
LINE
  8
0
 10
5.38572
 20
-67.8334
 11
5.40745
 21
-67.8062
  0
LINE
  8
0
 10
5.40745
 20
-67.8062
 11
5.41521
 21
-67.7722
  0
LINE
  8
0
 10
5.41521
 20
-67.7722
 11
5.82863
 21
-65.9609
  0
LINE
  8
0
 10
5.82863
 20
-65.9609
 11
5.77407
 21
-65.7218
  0
LINE
  8
0
 10
5.77407
 20
-65.7218
 11
13.4997
 21
-64.0863
  0
LINE
  8
0
 10
13.4997
 20
-64.0863
 11
21.3214
 21
-64.0863
  0
LINE
  8
0
 10
21.3214
 20
-64.0863
 11
33.836
 21
-64.0863
  0
LINE
  8
0
 10
33.836
 20
-64.0863
 11
38.2596
 21
-57.4571
  0
LINE
  8
0
 10
38.2596
 20
-57.4571
 11
41.0592
 21
-53.2616
  0
LINE
  8
0
 10
41.0592
 20
-53.2616
 11
44.599
 21
-53.2616
  0
LINE
  8
0
 10
44.599
 20
-53.2616
 11
51.1325
 21
-53.2616
  0
LINE
  8
0
 10
51.1325
 20
-53.2616
 11
53.9971
 21
-53.2616
  0
LINE
  8
0
 10
53.9971
 20
-53.2616
 11
73.0011
 21
-53.2616
  0
LINE
  8
0
 10
73.0011
 20
-53.2616
 11
77.9306
 21
-48.5001
  0
LINE
  8
0
 10
77.9306
 20
-48.5001
 11
80.0011
 21
-46.5001
  0
LINE
  8
0
 10
80.0011
 20
-46.5001
 11
80.0011
 21
-30.6678
  0
LINE
  8
0
 10
80.0011
 20
-30.6678
 11
80.0011
 21
6.66781
  0
LINE
  8
0
 10
80.0011
 20
6.66781
 11
80.0011
 21
10.6594
  0
LINE
  8
0
 10
80.0011
 20
10.6594
 11
80.6528
 21
10.9733
  0
LINE
  8
0
 10
80.6528
 20
10.9733
 11
81.8112
 21
12.4259
  0
LINE
  8
0
 10
81.8112
 20
12.4259
 11
81.8329
 21
12.4531
  0
LINE
  8
0
 10
81.8329
 20
12.4531
 11
81.8407
 21
12.4871
  0
LINE
  8
0
 10
81.8407
 20
12.4871
 11
82.2541
 21
14.2984
  0
LINE
  8
0
 10
82.2541
 20
14.2984
 11
81.8407
 21
16.1098
  0
LINE
  8
0
 10
81.8407
 20
16.1098
 11
81.8329
 21
16.1437
  0
LINE
  8
0
 10
81.8329
 20
16.1437
 11
81.8112
 21
16.171
  0
LINE
  8
0
 10
81.8112
 20
16.171
 11
80.6528
 21
17.6236
  0
LINE
  8
0
 10
80.6528
 20
17.6236
 11
80.0011
 21
17.9374
  0
LINE
  8
0
 10
80.0011
 20
17.9374
 11
80.0011
 21
22.432
  0
LINE
  8
0
 10
80.0011
 20
22.432
 11
80.0011
 21
24.9859
  0
LINE
  8
0
 10
80.0011
 20
24.9859
 11
80.0011
 21
25.0651
  0
LINE
  8
0
 10
80.0011
 20
25.0651
 11
80.0011
 21
31.1229
  0
LINE
  8
0
 10
80.0011
 20
31.1229
 11
80.0011
 21
37.5941
  0
LINE
  8
0
 10
80.0011
 20
37.5941
 11
80.0011
 21
37.6663
  0
LINE
  8
0
 10
80.0011
 20
37.6663
 11
80.0011
 21
45.9911
  0
LINE
  8
0
 10
80.0011
 20
45.9911
 11
80.0011
 21
45.9911
  0
LINE
  8
0
 10
80.0011
 20
45.9911
 11
80.0011
 21
46.0241
  0
LINE
  8
0
 10
80.0011
 20
46.0241
 11
75.6667
 21
49.7778
  0
LINE
  8
0
 10
75.6667
 20
49.7778
 11
73.0011
 21
52.0863
  0
LINE
  8
0
 10
73.0011
 20
52.0863
 11
53.4475
 21
52.0863
  0
LINE
  8
0
 10
53.4475
 20
52.0863
 11
52.3131
 21
52.0863
  0
LINE
  8
0
 10
52.3131
 20
52.0863
 11
40.9477
 21
52.0863
  0
LINE
  8
0
 10
40.9477
 20
52.0863
 11
35.2946
 21
52.0863
  0
LINE
  8
0
 10
35.2946
 20
52.0863
 11
33.4367
 21
56.6313
  0
LINE
  8
0
 10
33.4367
 20
56.6313
 11
30.3891
 21
64.0863
  0
LINE
  8
0
 10
30.3891
 20
64.0863
 11
25.5611
 21
64.0863
  0
LINE
  8
0
 10
25.5611
 20
64.0863
 11
25.4859
 21
64.4156
  0
LINE
  8
0
 10
25.4859
 20
64.4156
 11
25.4782
 21
64.4496
  0
LINE
  8
0
 10
25.4782
 20
64.4496
 11
25.4565
 21
64.4768
  0
LINE
  8
0
 10
25.4565
 20
64.4768
 11
24.2981
 21
65.9294
  0
LINE
  8
0
 10
24.2981
 20
65.9294
 11
22.6241
 21
66.7355
  0
LINE
  8
0
 10
22.6241
 20
66.7355
 11
22.5927
 21
66.7507
  0
LINE
  8
0
 10
22.5927
 20
66.7507
 11
20.7
 21
66.7507
  0
LINE
  8
0
 10
20.7
 20
66.7507
 11
20.6686
 21
66.7355
  0
LINE
  8
0
 10
20.6686
 20
66.7355
 11
18.9946
 21
65.9294
  0
LINE
  8
0
 10
18.9946
 20
65.9294
 11
17.8362
 21
64.4768
  0
LINE
  8
0
 10
17.8362
 20
64.4768
 11
17.8145
 21
64.4496
  0
LINE
  8
0
 10
17.8145
 20
64.4496
 11
17.8067
 21
64.4156
  0
LINE
  8
0
 10
17.8067
 20
64.4156
 11
17.7316
 21
64.0863
  0
LINE
  8
0
 10
17.7316
 20
64.0863
 11
13.4997
 21
64.0863
  0
LINE
  8
0
 10
13.4997
 20
64.0863
 11
10.4945
 21
65.9455
  0
LINE
  8
0
 10
10.4945
 20
65.9455
 11
8.94155
 21
66.9063
  0
LINE
  8
0
 10
8.94155
 20
66.9063
 11
-1.25944
 21
66.9063
  0
LINE
  8
0
 10
-1.25944
 20
66.9063
 11
-1.30327
 21
66.9063
  0
LINE
  8
0
 10
-1.30327
 20
66.9063
 11
-7.68866
 21
66.9063
  0
LINE
  8
0
 10
-7.68866
 20
66.9063
 11
-7.72066
 21
66.9063
  0
LINE
  8
0
 10
-7.72066
 20
66.9063
 11
-9.15764
 21
65.0198
  0
LINE
  8
0
 10
-9.15764
 20
65.0198
 11
-9.86871
 21
64.0863
  0
LINE
  8
0
 10
-9.86871
 20
64.0863
 11
-21.4205
 21
64.0863
  0
LINE
  8
0
 10
-21.4205
 20
64.0863
 11
-25.9617
 21
64.0863
  0
LINE
  8
0
 10
-25.9617
 20
64.0863
 11
-28.3939
 21
64.0863
  0
LINE
  8
0
 10
-28.3939
 20
64.0863
 11
-28.4173
 21
64.0863
  0
LINE
  8
0
 10
-28.4173
 20
64.0863
 11
-29.1719
 21
64.0863
  0
LINE
  8
0
 10
-29.1719
 20
64.0863
 11
-41.0696
 21
64.0863
  0
LINE
  8
0
 10
-41.0696
 20
64.0863
 11
-41.0944
 21
64.0863
  0
LINE
  8
0
 10
-41.0944
 20
64.0863
 11
-44.7363
 21
64.0863
  0
LINE
  8
0
 10
-44.7363
 20
64.0863
 11
-46.2668
 21
62.546
  0
LINE
  8
0
 10
-46.2668
 20
62.546
 11
-50.9585
 21
57.8241
  0
LINE
  8
0
 10
-50.9585
 20
57.8241
 11
-57.9585
 21
50.8241
  0
LINE
  8
0
 10
-57.9585
 20
50.8241
 11
-58.7819
 21
47.4497
  0
LINE
  8
0
 10
-58.7819
 20
47.4497
 11
-58.7847
 21
47.4511
  0
LINE
  8
0
 10
-58.7847
 20
47.4511
 11
-60.6774
 21
47.4511
  0
LINE
  8
0
 10
-60.6774
 20
47.4511
 11
-60.7088
 21
47.4359
  0
LINE
  8
0
 10
-60.7088
 20
47.4359
 11
-62.3828
 21
46.6298
  0
LINE
  8
0
 10
-62.3828
 20
46.6298
 11
-63.5412
 21
45.1772
  0
LINE
  8
0
 10
-63.5412
 20
45.1772
 11
-63.5629
 21
45.15
  0
LINE
  8
0
 10
-63.5629
 20
45.15
 11
-63.5706
 21
45.116
  0
LINE
  8
0
 10
-63.5706
 20
45.116
 11
-63.9841
 21
43.3047
  0
LINE
  8
0
 10
-63.9841
 20
43.3047
 11
-63.5706
 21
41.4933
  0
LINE
  8
0
 10
-63.5706
 20
41.4933
 11
-63.5629
 21
41.4594
  0
LINE
  8
0
 10
-63.5629
 20
41.4594
 11
-63.5412
 21
41.4321
  0
LINE
  8
0
 10
-63.5412
 20
41.4321
 11
-62.3828
 21
39.9795
  0
LINE
  8
0
 10
-62.3828
 20
39.9795
 11
-60.7916
 21
39.2132
  0
LINE
  8
0
 10
-60.7916
 20
39.2132
 11
-61.6036
 21
35.8852
  0
LINE
  8
0
 10
-61.6036
 20
35.8852
 11
-61.8907
 21
34.2453
  0
LINE
  8
0
 10
-61.8907
 20
34.2453
 11
-62.4943
 21
30.7973
  0
LINE
  8
0
 10
-62.4943
 20
30.7973
 11
-63.7729
 21
19.5056
  0
LINE
  8
0
 10
-63.7729
 20
19.5056
 11
-64.3811
 21
14.135
  0
LINE
  8
0
 10
-64.3811
 20
14.135
 11
-64.4963
 21
12.0648
  0
LINE
  8
0
 10
-64.4963
 20
12.0648
 11
-64.6849
 21
8.67499
  0
LINE
  8
0
 10
-64.6849
 20
8.67499
 11
-64.6849
 21
-8.67499
  0
LINE
  8
0
 10
-64.6849
 20
-8.67499
 11
-64.4963
 21
-12.0648
  0
LINE
  8
0
 10
-64.4963
 20
-12.0648
 11
-64.3811
 21
-14.135
  0
LINE
  8
0
 10
-64.3811
 20
-14.135
 11
-63.7729
 21
-19.5056
  0
LINE
  8
0
 10
-63.7729
 20
-19.5056
 11
-62.4943
 21
-30.7973
  0
LINE
  8
0
 10
-62.4943
 20
-30.7973
 11
-60.6946
 21
-34.1657
  0
LINE
  8
0
 10
-60.6946
 20
-34.1657
 11
-58.1845
 21
-38.8638
  0
LINE
  8
0
 10
-58.1845
 20
-38.8638
 11
-58.6263
 21
-39.2345
  0
LINE
  8
0
 10
-58.6263
 20
-39.2345
 11
-58.7533
 21
-39.1734
  0
LINE
  8
0
 10
-58.7533
 20
-39.1734
 11
-58.7847
 21
-39.1583
  0
LINE
  8
0
 10
-58.7847
 20
-39.1583
 11
-60.6774
 21
-39.1583
  0
LINE
  8
0
 10
-60.6774
 20
-39.1583
 11
-60.7088
 21
-39.1734
  0
LINE
  8
0
 10
-60.7088
 20
-39.1734
 11
-62.3828
 21
-39.9795
  0
LINE
  8
0
 10
-62.3828
 20
-39.9795
 11
-63.5412
 21
-41.4321
  0
LINE
  8
0
 10
-63.5412
 20
-41.4321
 11
-63.5629
 21
-41.4594
  0
LINE
  8
0
 10
-63.5629
 20
-41.4594
 11
-63.5706
 21
-41.4933
  0
LINE
  8
0
 10
-63.5706
 20
-41.4933
 11
-63.9841
 21
-43.3047
  0
LINE
  8
0
 10
-63.9841
 20
-43.3047
 11
-63.9025
 21
-43.6618
  0
LINE
  8
0
 10
-63.9025
 20
-43.6618
 11
-66.251
 21
-45.6324
  0
LINE
  8
0
 10
-66.251
 20
-45.6324
 11
-66.2643
 21
-45.6436
  0
LINE
  8
0
 10
-66.2643
 20
-45.6436
 11
-66.2643
 21
-45.6436
  0
LINE
  8
0
 10
-66.2643
 20
-45.6436
 11
-66.3104
 21
-45.6822
  0
LINE
  8
0
 10
-66.3104
 20
-45.6822
 11
-66.652
 21
-46.0988
  0
LINE
  8
0
 10
-66.652
 20
-46.0988
 11
-67.5663
 21
-47.2136
  0
LINE
  8
0
 10
-67.5663
 20
-47.2136
 11
-67.5663
 21
-47.2136
  0
LINE
  8
0
 10
-67.5663
 20
-47.2136
 11
-66.0564
 21
-51.0897
  0
LINE
  8
0
 10
-66.0564
 20
-51.0897
 11
-63.7665
 21
-56.9681
  0
LINE
  8
0
 10
-63.7665
 20
-56.9681
 11
-65.5852
 21
-59.2959
  0
LINE
  8
0
 10
-65.5852
 20
-59.2959
 11
-66.1459
 21
-60.0136
  0
LINE
  8
0
 10
-66.1459
 20
-60.0136
 11
-70.16
 21
-67.2943
  0
LINE
  8
0
 10
-70.16
 20
-67.2943
 11
-73.5077
 21
-73.3665
  0
LINE
  8
0
 10
-73.5077
 20
-73.3665
 11
-73.5313
 21
-73.4092
  0
LINE
  8
0
 10
-73.5313
 20
-73.4092
 11
-73.5674
 21
-73.4748
  0
LINE
  8
0
 10
-71.1412
 20
-75.2154
 11
-66.5573
 21
-67.1467
  0
LINE
  8
0
 10
-66.5573
 20
-67.1467
 11
-60.7482
 21
-56.9213
  0
LINE
  8
0
 10
-60.7482
 20
-56.9213
 11
-60.7123
 21
-56.8582
  0
LINE
  8
0
 10
-60.7123
 20
-56.8582
 11
-60.6917
 21
-56.8318
  0
LINE
  8
0
 10
-60.6917
 20
-56.8318
 11
-63.7175
 21
-49.719
  0
LINE
  8
0
 10
-63.7175
 20
-49.719
 11
-64.6606
 21
-47.5019
  0
LINE
  8
0
 10
-64.6606
 20
-47.5019
 11
-62.8793
 21
-46.0072
  0
LINE
  8
0
 10
-62.8793
 20
-46.0072
 11
-62.3828
 21
-46.6298
  0
LINE
  8
0
 10
-62.3828
 20
-46.6298
 11
-60.7088
 21
-47.4359
  0
LINE
  8
0
 10
-60.7088
 20
-47.4359
 11
-60.6774
 21
-47.4511
  0
LINE
  8
0
 10
-60.6774
 20
-47.4511
 11
-58.7847
 21
-47.4511
  0
LINE
  8
0
 10
-58.7847
 20
-47.4511
 11
-58.7533
 21
-47.4359
  0
LINE
  8
0
 10
-58.7533
 20
-47.4359
 11
-57.0793
 21
-46.6298
  0
LINE
  8
0
 10
-57.0793
 20
-46.6298
 11
-55.9209
 21
-45.1772
  0
LINE
  8
0
 10
-55.9209
 20
-45.1772
 11
-55.8992
 21
-45.15
  0
LINE
  8
0
 10
-55.8992
 20
-45.15
 11
-55.8915
 21
-45.116
  0
LINE
  8
0
 10
-55.8915
 20
-45.116
 11
-55.478
 21
-43.3047
  0
LINE
  8
0
 10
-55.478
 20
-43.3047
 11
-55.8915
 21
-41.4933
  0
LINE
  8
0
 10
-55.8915
 20
-41.4933
 11
-55.8992
 21
-41.4594
  0
LINE
  8
0
 10
-55.8992
 20
-41.4594
 11
-55.9209
 21
-41.4321
  0
LINE
  8
0
 10
-55.9209
 20
-41.4321
 11
-56.5247
 21
-40.675
  0
LINE
  8
0
 10
-56.5247
 20
-40.675
 11
-56.1655
 21
-40.3736
  0
LINE
  8
0
 10
-56.1655
 20
-40.3736
 11
-56.1655
 21
-40.3736
  0
LINE
  8
0
 10
-56.1655
 20
-40.3736
 11
-56.1273
 21
-40.3415
  0
LINE
  8
0
 10
-56.1273
 20
-40.3415
 11
-55.3711
 21
-39.4194
  0
LINE
  8
0
 10
-55.3711
 20
-39.4194
 11
-55.371
 21
-39.4194
  0
LINE
  8
0
 10
-55.371
 20
-39.4194
 11
-54.8714
 21
-38.8101
  0
LINE
  8
0
 10
-54.8714
 20
-38.8101
 11
-57.9151
 21
-34.339
  0
LINE
  8
0
 10
-57.9151
 20
-34.339
 11
-60.3943
 21
-30.6973
  0
LINE
  8
0
 10
-60.3943
 20
-30.6973
 11
-60.7791
 21
-27.2984
  0
LINE
  8
0
 10
-60.7791
 20
-27.2984
 11
-52.4382
 21
-27.2984
  0
LINE
  8
0
 10
-52.4382
 20
-27.2984
 11
-52.4382
 21
25.2984
  0
LINE
  8
0
 10
-52.4382
 20
25.2984
 11
-61.0056
 21
25.2984
  0
LINE
  8
0
 10
-61.0056
 20
25.2984
 11
-60.3943
 21
30.6973
  0
LINE
  8
0
 10
-60.3943
 20
30.6973
 11
-59.7618
 21
34.3101
  0
LINE
  8
0
 10
-59.7618
 20
34.3101
 11
-59.5036
 21
35.7852
  0
LINE
  8
0
 10
-59.5036
 20
35.7852
 11
-58.6775
 21
39.1708
  0
LINE
  8
0
 10
-58.6775
 20
39.1708
 11
-58.6667
 21
39.2151
  0
LINE
  8
0
 10
-58.6667
 20
39.2151
 11
-57.0793
 21
39.9795
  0
LINE
  8
0
 10
-57.0793
 20
39.9795
 11
-55.9209
 21
41.4321
  0
LINE
  8
0
 10
-55.9209
 20
41.4321
 11
-55.8992
 21
41.4594
  0
LINE
  8
0
 10
-55.8992
 20
41.4594
 11
-55.8915
 21
41.4933
  0
LINE
  8
0
 10
-55.8915
 20
41.4933
 11
-55.478
 21
43.3047
  0
LINE
  8
0
 10
-55.478
 20
43.3047
 11
-55.8915
 21
45.116
  0
LINE
  8
0
 10
-55.8915
 20
45.116
 11
-55.8992
 21
45.15
  0
LINE
  8
0
 10
-55.8992
 20
45.15
 11
-55.9209
 21
45.1772
  0
LINE
  8
0
 10
-55.9209
 20
45.1772
 11
-56.9095
 21
46.4168
  0
LINE
  8
0
 10
-56.9095
 20
46.4168
 11
-55.8585
 21
50.7241
  0
LINE
  8
0
 10
-55.8585
 20
50.7241
 11
-50.8585
 21
55.7241
  0
LINE
  8
0
 10
-50.8585
 20
55.7241
 11
-45.4062
 21
59.4313
  0
LINE
  8
0
 10
-45.4062
 20
59.4313
 11
-43.8084
 21
60.5177
  0
LINE
  8
0
 10
-43.8084
 20
60.5177
 11
-31.2929
 21
60.5177
  0
LINE
  8
0
 10
-31.2929
 20
60.5177
 11
-28.2856
 21
60.5177
  0
LINE
  8
0
 10
-28.2856
 20
60.5177
 11
-25.9198
 21
60.5177
  0
LINE
  8
0
 10
-25.9198
 20
60.5177
 11
-25.232
 21
60.5177
  0
LINE
  8
0
 10
-25.232
 20
60.5177
 11
-12.849
 21
60.5177
  0
LINE
  8
0
 10
-12.849
 20
60.5177
 11
-12.8302
 21
60.5177
  0
LINE
  8
0
 10
-12.8302
 20
60.5177
 11
-9.09717
 21
60.5177
  0
LINE
  8
0
 10
-9.09717
 20
60.5177
 11
-7.64282
 21
62.5829
  0
LINE
  8
0
 10
-7.64282
 20
62.5829
 11
-7.11132
 21
63.3377
  0
LINE
  8
0
 10
-7.11132
 20
63.3377
 11
4.26443
 21
63.3377
  0
LINE
  8
0
 10
4.26443
 20
63.3377
 11
9.3577
 21
63.3377
  0
LINE
  8
0
 10
9.3577
 20
63.3377
 11
10.7594
 21
62.4368
  0
LINE
  8
0
 10
10.7594
 20
62.4368
 11
13.7452
 21
60.5177
  0
LINE
  8
0
 10
13.7452
 20
60.5177
 11
18.0069
 21
60.5177
  0
LINE
  8
0
 10
18.0069
 20
60.5177
 11
18.9946
 21
59.2791
  0
LINE
  8
0
 10
18.9946
 20
59.2791
 11
20.6686
 21
58.473
  0
LINE
  8
0
 10
20.6686
 20
58.473
 11
20.7
 21
58.4579
  0
LINE
  8
0
 10
20.7
 20
58.4579
 11
22.5927
 21
58.4579
  0
LINE
  8
0
 10
22.5927
 20
58.4579
 11
22.6241
 21
58.473
  0
LINE
  8
0
 10
22.6241
 20
58.473
 11
24.2981
 21
59.2791
  0
LINE
  8
0
 10
24.2981
 20
59.2791
 11
25.2858
 21
60.5177
  0
LINE
  8
0
 10
25.2858
 20
60.5177
 11
25.3061
 21
60.5177
  0
LINE
  8
0
 10
25.3061
 20
60.5177
 11
30.6347
 21
60.5177
  0
LINE
  8
0
 10
30.6347
 20
60.5177
 11
32.0553
 21
56.9159
  0
LINE
  8
0
 10
32.0553
 20
56.9159
 11
35.3676
 21
48.5177
  0
LINE
  8
0
 10
35.3676
 20
48.5177
 11
47.3941
 21
48.5177
  0
LINE
  8
0
 10
47.3941
 20
48.5177
 11
52.5207
 21
48.5177
  0
LINE
  8
0
 10
52.5207
 20
48.5177
 11
54.7835
 21
48.5177
  0
LINE
  8
0
 10
54.7835
 20
48.5177
 11
55.8511
 21
48.5177
  0
LINE
  8
0
 10
55.8511
 20
48.5177
 11
72.9011
 21
48.5177
  0
LINE
  8
0
 10
72.9011
 20
48.5177
 11
74.6126
 21
47.0355
  0
LINE
  8
0
 10
74.6126
 20
47.0355
 11
77.9011
 21
44.1875
  0
LINE
  8
0
 10
77.9011
 20
44.1875
 11
77.9011
 21
34.4401
  0
LINE
  8
0
 10
77.9011
 20
34.4401
 11
77.9011
 21
29.3769
  0
LINE
  8
0
 10
77.9011
 20
29.3769
 11
77.9011
 21
25.3123
  0
LINE
  8
0
 10
77.9011
 20
25.3123
 11
77.9011
 21
21.5333
  0
LINE
  8
0
 10
77.9011
 20
21.5333
 11
77.9011
 21
18.4448
  0
LINE
  8
0
 10
77.9011
 20
18.4448
 11
77.0547
 21
18.4448
  0
LINE
  8
0
 10
77.0547
 20
18.4448
 11
77.0233
 21
18.4297
  0
LINE
  8
0
 10
77.0233
 20
18.4297
 11
75.3494
 21
17.6236
  0
LINE
  8
0
 10
75.3494
 20
17.6236
 11
74.191
 21
16.171
  0
LINE
  8
0
 10
74.191
 20
16.171
 11
74.1693
 21
16.1437
  0
LINE
  8
0
 10
74.1693
 20
16.1437
 11
74.1615
 21
16.1098
  0
LINE
  8
0
 10
74.1615
 20
16.1098
 11
73.7481
 21
14.2984
  0
LINE
  8
0
 10
73.7481
 20
14.2984
 11
74.1615
 21
12.4871
  0
LINE
  8
0
 10
74.1615
 20
12.4871
 11
74.1693
 21
12.4531
  0
LINE
  8
0
 10
74.1693
 20
12.4531
 11
74.191
 21
12.4259
  0
LINE
  8
0
 10
74.191
 20
12.4259
 11
75.3494
 21
10.9733
  0
LINE
  8
0
 10
75.3494
 20
10.9733
 11
77.0233
 21
10.1672
  0
LINE
  8
0
 10
77.0233
 20
10.1672
 11
77.0547
 21
10.152
  0
LINE
  8
0
 10
77.0547
 20
10.152
 11
77.9011
 21
10.152
  0
LINE
  8
0
 10
77.9011
 20
10.152
 11
77.9011
 21
6.66778
  0
LINE
  8
0
 10
77.9011
 20
6.66778
 11
77.8253
 21
5.78863
  0
LINE
  8
0
 10
77.8253
 20
5.78863
 11
77.8245
 21
5.77991
  0
LINE
  8
0
 10
77.8245
 20
5.77991
 11
77.8244
 21
5.77833
  0
LINE
  8
0
 10
77.8244
 20
5.77833
 11
77.4441
 21
-2.88774
  0
LINE
  8
0
 10
77.4441
 20
-2.88774
 11
77.4227
 21
-3.375
  0
LINE
  8
0
 10
77.4227
 20
-3.375
 11
77.4227
 21
-20.625
  0
LINE
  8
0
 10
77.4227
 20
-20.625
 11
77.4441
 21
-21.1123
  0
LINE
  8
0
 10
77.4441
 20
-21.1123
 11
77.8244
 21
-29.7783
  0
LINE
  8
0
 10
77.8244
 20
-29.7783
 11
77.8245
 21
-29.7799
  0
LINE
  8
0
 10
77.8245
 20
-29.7799
 11
77.8253
 21
-29.7886
  0
LINE
  8
0
 10
77.8253
 20
-29.7886
 11
77.9011
 21
-30.6678
  0
LINE
  8
0
 10
77.9011
 20
-30.6678
 11
77.9011
 21
-38.4271
  0
LINE
  8
0
 10
77.9011
 20
-38.4271
 11
77.9011
 21
-45.4977
  0
LINE
  8
0
 10
77.9011
 20
-45.4977
 11
75.2421
 21
-48.0661
  0
LINE
  8
0
 10
75.2421
 20
-48.0661
 11
72.9011
 21
-50.3273
  0
LINE
  8
0
 10
72.9011
 20
-50.3273
 11
55.8511
 21
-50.3273
  0
LINE
  8
0
 10
55.8511
 20
-50.3273
 11
53.4654
 21
-50.3273
  0
LINE
  8
0
 10
53.4654
 20
-50.3273
 11
51.3654
 21
-50.3273
  0
LINE
  8
0
 10
51.3654
 20
-50.3273
 11
43.0271
 21
-50.3273
  0
LINE
  8
0
 10
43.0271
 20
-50.3273
 11
34.2335
 21
-50.3273
  0
LINE
  8
0
 10
34.2335
 20
-50.3273
 11
34.0616
 21
-50.8557
  0
LINE
  8
0
 10
34.0616
 20
-50.8557
 11
33.9388
 21
-51.2332
  0
LINE
  8
0
 10
33.9388
 20
-51.2332
 11
33.9656
 21
-52.3804
  0
LINE
  8
0
 10
33.9656
 20
-52.3804
 11
33.9852
 21
-53.2196
  0
LINE
  8
0
 10
33.9852
 20
-53.2196
 11
33.9862
 21
-53.2616
  0
LINE
  8
0
 10
33.9862
 20
-53.2616
 11
33.9862
 21
-53.2616
  0
LINE
  8
0
 10
33.9862
 20
-53.2616
 11
34.0426
 21
-53.2616
  0
LINE
  8
0
 10
34.0426
 20
-53.2616
 11
37.4528
 21
-53.2616
  0
LINE
  8
0
 10
37.4528
 20
-53.2616
 11
36.1482
 21
-55.4348
  0
LINE
  8
0
 10
36.1482
 20
-55.4348
 11
33.0967
 21
-60.5177
  0
LINE
  8
0
 10
33.0967
 20
-60.5177
 11
26.9816
 21
-60.5177
  0
LINE
  8
0
 10
26.9816
 20
-60.5177
 11
13.7452
 21
-60.5177
  0
LINE
  8
0
 10
13.7452
 20
-60.5177
 11
9.68837
 21
-61.6416
  0
LINE
  8
0
 10
9.68837
 20
-61.6416
 11
4.56628
 21
-63.0608
  0
LINE
  8
0
 10
4.56628
 20
-63.0608
 11
4.22733
 21
-62.6357
  0
LINE
  8
0
 10
4.22733
 20
-62.6357
 11
2.5534
 21
-61.8296
  0
LINE
  8
0
 10
2.5534
 20
-61.8296
 11
2.522
 21
-61.8145
  0
LINE
  8
0
 10
2.522
 20
-61.8145
 11
0.629229
 21
-61.8145
  0
LINE
  8
0
 10
0.629229
 20
-61.8145
 11
0.597833
 21
-61.8296
  0
LINE
  8
0
 10
0.597833
 20
-61.8296
 11
-1.0761
 21
-62.6357
  0
LINE
  8
0
 10
-1.0761
 20
-62.6357
 11
-2.2345
 21
-64.0883
  0
LINE
  8
0
 10
-2.2345
 20
-64.0883
 11
-2.25622
 21
-64.1156
  0
LINE
  8
0
 10
-2.25622
 20
-64.1156
 11
-2.26398
 21
-64.1495
  0
LINE
  8
0
 10
-2.26398
 20
-64.1495
 11
-2.6774
 21
-65.9609
  0
LINE
  8
0
 10
-2.6774
 20
-65.9609
 11
-2.56389
 21
-66.4582
  0
LINE
  8
0
 10
-2.56389
 20
-66.4582
 11
-5.04355
 21
-68.0893
  0
LINE
  8
0
 10
-5.04355
 20
-68.0893
 11
-5.04389
 21
-68.0896
  0
LINE
  8
0
 10
-5.04389
 20
-68.0896
 11
-12.5739
 21
-73.0429
  0
LINE
  8
0
 10
-12.5739
 20
-73.0429
 11
-13.4364
 21
-73.7012
  0
LINE
  8
0
 10
-13.4364
 20
-73.7012
 11
-13.4365
 21
-73.7013
  0
LINE
  8
0
 10
-13.4365
 20
-73.7013
 11
-14.1483
 21
-74.2446
  0
LINE
  8
0
 10
-14.1483
 20
-74.2446
 11
-14.1483
 21
-74.2446
  0
LINE
  8
0
 10
-14.1483
 20
-74.2446
 11
-14.1815
 21
-74.2815
  0
LINE
  8
0
 10
-14.1815
 20
-74.2815
 11
-14.2037
 21
-74.3062
  0
LINE
  8
0
 10
-14.2037
 20
-74.3062
 11
-19.8663
 21
-80.5951
  0
LINE
  8
0
 10
-19.8663
 20
-80.5951
 11
-19.8665
 21
-80.5954
  0
LINE
  8
0
 10
-19.8665
 20
-80.5954
 11
-23.6979
 21
-84.8506
  0
LINE
  8
0
 10
-23.6979
 20
-84.8506
 11
-23.6979
 21
-84.8506
  0
LINE
  8
0
 10
-23.6979
 20
-84.8506
 11
-23.7174
 21
-84.8722
  0
LINE
  8
0
 10
-23.7174
 20
-84.8722
 11
-23.3887
 21
-86.5595
  0
LINE
  8
0
 10
-23.3887
 20
-86.5595
 11
-22.7826
 21
-89.6706
  0
LINE
  8
0
 10
-22.7826
 20
-89.6706
 11
-25.0144
 21
-92.7424
  0
LINE
  8
0
 10
-25.0144
 20
-92.7424
 11
-36.953
 21
-100.652
  0
LINE
  8
0
 10
-36.953
 20
-100.652
 11
-39.3919
 21
-100.684
  0
LINE
  8
0
 10
-39.3919
 20
-100.684
 11
-39.3919
 21
-100.684
  0
LINE
  8
0
 10
-39.3919
 20
-100.684
 11
-51.5603
 21
-90.0387
  0
LINE
  8
0
 10
-51.5603
 20
-90.0387
 11
-52.0337
 21
-89.6948
  0
LINE
  8
0
 10
-52.0337
 20
-89.6948
 11
-52.6988
 21
-89.2115
  0
LINE
  8
0
 10
-52.6988
 20
-89.2115
 11
-52.783
 21
-89.1504
  0
LINE
  8
0
 10
-52.783
 20
-89.1504
 11
-53.0688
 21
-88.9764
  0
LINE
  8
0
 10
-53.0688
 20
-88.9764
 11
-57.7808
 21
-87.5505
  0
LINE
  8
0
 10
-57.7808
 20
-87.5505
 11
-57.7808
 21
-87.5505
  0
LINE
  8
0
 10
-57.7808
 20
-87.5505
 11
-68.5127
 21
-78.7607
  0
LINE
  8
0
 10
-68.5127
 20
-78.7607
 11
-70.9947
 21
-76.7278
  0
LINE
  8
0
 10
-70.9947
 20
-76.7278
 11
-71.1412
 21
-75.2154
  0
LINE
  8
0
 10
-62.5849
 20
-8.575
 11
-62.5849
 21
8.575
  0
LINE
  8
0
 10
-62.5849
 20
8.575
 11
-62.4852
 21
10.366
  0
LINE
  8
0
 10
-62.4852
 20
10.366
 11
-62.2811
 21
14.035
  0
LINE
  8
0
 10
-62.2811
 20
14.035
 11
-61.7341
 21
18.8656
  0
LINE
  8
0
 10
-61.7341
 20
18.8656
 11
-61.4382
 21
21.4784
  0
LINE
  8
0
 10
-61.4382
 20
21.4784
 11
-61.4382
 21
-21.4784
  0
LINE
  8
0
 10
-61.4382
 20
-21.4784
 11
-61.7341
 21
-18.8656
  0
LINE
  8
0
 10
-61.7341
 20
-18.8656
 11
-62.2811
 21
-14.035
  0
LINE
  8
0
 10
-62.2811
 20
-14.035
 11
-62.4852
 21
-10.366
  0
LINE
  8
0
 10
-62.4852
 20
-10.366
 11
-62.5849
 21
-8.575
  0
LINE
  8
0
 10
-61.4311
 20
-43.3047
 11
-60.5811
 21
-41.8324
  0
LINE
  8
0
 10
-60.5811
 20
-41.8324
 11
-58.8811
 21
-41.8324
  0
LINE
  8
0
 10
-58.8811
 20
-41.8324
 11
-58.0311
 21
-43.3047
  0
LINE
  8
0
 10
-58.0311
 20
-43.3047
 11
-58.8811
 21
-44.7769
  0
LINE
  8
0
 10
-58.8811
 20
-44.7769
 11
-60.5811
 21
-44.7769
  0
LINE
  8
0
 10
-60.5811
 20
-44.7769
 11
-61.4311
 21
-43.3047
  0
LINE
  8
0
 10
-61.4311
 20
43.3047
 11
-60.5811
 21
44.7769
  0
LINE
  8
0
 10
-60.5811
 20
44.7769
 11
-58.8811
 21
44.7769
  0
LINE
  8
0
 10
-58.8811
 20
44.7769
 11
-58.0311
 21
43.3047
  0
LINE
  8
0
 10
-58.0311
 20
43.3047
 11
-58.8811
 21
41.8324
  0
LINE
  8
0
 10
-58.8811
 20
41.8324
 11
-60.5811
 21
41.8324
  0
LINE
  8
0
 10
-60.5811
 20
41.8324
 11
-61.4311
 21
43.3047
  0
LINE
  8
0
 10
-0.124385
 20
-65.9609
 11
0.725615
 21
-64.4886
  0
LINE
  8
0
 10
0.725615
 20
-64.4886
 11
2.42561
 21
-64.4886
  0
LINE
  8
0
 10
2.42561
 20
-64.4886
 11
3.27561
 21
-65.9609
  0
LINE
  8
0
 10
3.27561
 20
-65.9609
 11
2.42561
 21
-67.4331
  0
LINE
  8
0
 10
2.42561
 20
-67.4331
 11
0.725615
 21
-67.4331
  0
LINE
  8
0
 10
0.725615
 20
-67.4331
 11
-0.124385
 21
-65.9609
  0
LINE
  8
0
 10
19.9463
 20
62.6043
 11
20.7963
 21
64.0765
  0
LINE
  8
0
 10
20.7963
 20
64.0765
 11
22.4963
 21
64.0765
  0
LINE
  8
0
 10
22.4963
 20
64.0765
 11
23.3463
 21
62.6043
  0
LINE
  8
0
 10
23.3463
 20
62.6043
 11
22.4963
 21
61.132
  0
LINE
  8
0
 10
22.4963
 20
61.132
 11
20.7963
 21
61.132
  0
LINE
  8
0
 10
20.7963
 20
61.132
 11
19.9463
 21
62.6043
  0
LINE
  8
0
 10
76.3011
 20
14.2984
 11
77.1511
 21
15.7707
  0
LINE
  8
0
 10
77.1511
 20
15.7707
 11
78.8511
 21
15.7707
  0
LINE
  8
0
 10
78.8511
 20
15.7707
 11
79.7011
 21
14.2984
  0
LINE
  8
0
 10
79.7011
 20
14.2984
 11
78.8511
 21
12.8262
  0
LINE
  8
0
 10
78.8511
 20
12.8262
 11
77.1511
 21
12.8262
  0
LINE
  8
0
 10
77.1511
 20
12.8262
 11
76.3011
 21
14.2984
  0
ENDSEC
  0
SECTION
  2
OBJECTS
  0
DICTIONARY
  0
ENDSEC
  0
EOF
