  0
SECTION
  2
BLOCKS
  0
ENDSEC
  0
SECTION
  2
ENTITIES
  0
LINE
  8
0
 10
-92.9902
 20
-73.2862
 11
-92.6064
 21
-77.0092
  0
LINE
  8
0
 10
-92.6064
 20
-77.0092
 11
-92.4115
 21
-78.8991
  0
LINE
  8
0
 10
-92.4115
 20
-78.8991
 11
-83.2445
 21
-86.4275
  0
LINE
  8
0
 10
-83.2445
 20
-86.4275
 11
-79.0573
 21
-89.8662
  0
LINE
  8
0
 10
-79.0573
 20
-89.8662
 11
-77.2534
 21
-90.7575
  0
LINE
  8
0
 10
-77.2534
 20
-90.7575
 11
-74.032
 21
-91.1733
  0
LINE
  8
0
 10
-74.032
 20
-91.1733
 11
-74.032
 21
-91.1733
  0
LINE
  8
0
 10
-74.032
 20
-91.1733
 11
-64.3303
 21
-99.7513
  0
LINE
  8
0
 10
-64.3303
 20
-99.7513
 11
-60.8747
 21
-102.807
  0
LINE
  8
0
 10
-60.8747
 20
-102.807
 11
-60.8292
 21
-102.847
  0
LINE
  8
0
 10
-60.8292
 20
-102.847
 11
-60.803
 21
-102.87
  0
LINE
  8
0
 10
-60.803
 20
-102.87
 11
-55.1299
 21
-102.843
  0
LINE
  8
0
 10
-55.1299
 20
-102.843
 11
-53.3407
 21
-102.835
  0
LINE
  8
0
 10
-53.3407
 20
-102.835
 11
-49.7148
 21
-100.51
  0
LINE
  8
0
 10
-49.7148
 20
-100.51
 11
-45.8049
 21
-98.0043
  0
LINE
  8
0
 10
-45.8049
 20
-98.0043
 11
-43.2492
 21
-95.4375
  0
LINE
  8
0
 10
-43.2492
 20
-95.4375
 11
-41.3935
 21
-93.5737
  0
LINE
  8
0
 10
-41.3935
 20
-93.5737
 11
-40.708
 21
-92.6302
  0
LINE
  8
0
 10
-40.708
 20
-92.6302
 11
-40.7078
 21
-92.63
  0
LINE
  8
0
 10
-40.7078
 20
-92.63
 11
-38.8907
 21
-90.129
  0
LINE
  8
0
 10
-38.8907
 20
-90.129
 11
-38.8907
 21
-90.129
  0
LINE
  8
0
 10
-38.8907
 20
-90.129
 11
-39.8027
 21
-86.2726
  0
LINE
  8
0
 10
-39.8027
 20
-86.2726
 11
-40.0805
 21
-85.0976
  0
LINE
  8
0
 10
-40.0805
 20
-85.0976
 11
-35.8911
 21
-80.4448
  0
LINE
  8
0
 10
-35.8911
 20
-80.4448
 11
-30.9403
 21
-74.9464
  0
LINE
  8
0
 10
-30.9403
 20
-74.9464
 11
-24.1603
 21
-70.3673
  0
LINE
  8
0
 10
-24.1603
 20
-70.3673
 11
-24.16
 21
-70.3671
  0
LINE
  8
0
 10
-24.16
 20
-70.3671
 11
-21.1693
 21
-68.3472
  0
LINE
  8
0
 10
-21.1693
 20
-68.3472
 11
-20.4206
 21
-69.286
  0
LINE
  8
0
 10
-20.4206
 20
-69.286
 11
-18.7466
 21
-70.0921
  0
LINE
  8
0
 10
-18.7466
 20
-70.0921
 11
-18.7152
 21
-70.1073
  0
LINE
  8
0
 10
-18.7152
 20
-70.1073
 11
-16.8225
 21
-70.1073
  0
LINE
  8
0
 10
-16.8225
 20
-70.1073
 11
-16.7911
 21
-70.0921
  0
LINE
  8
0
 10
-16.7911
 20
-70.0921
 11
-15.1171
 21
-69.286
  0
LINE
  8
0
 10
-15.1171
 20
-69.286
 11
-13.9587
 21
-67.8334
  0
LINE
  8
0
 10
-13.9587
 20
-67.8334
 11
-13.937
 21
-67.8062
  0
LINE
  8
0
 10
-13.937
 20
-67.8062
 11
-13.9293
 21
-67.7722
  0
LINE
  8
0
 10
-13.9293
 20
-67.7722
 11
-13.5158
 21
-65.9609
  0
LINE
  8
0
 10
-13.5158
 20
-65.9609
 11
-13.5856
 21
-65.655
  0
LINE
  8
0
 10
-13.5856
 20
-65.655
 11
-6.45938
 21
-64.0863
  0
LINE
  8
0
 10
-6.45938
 20
-64.0863
 11
2.39273
 21
-64.0863
  0
LINE
  8
0
 10
2.39273
 20
-64.0863
 11
2.44641
 21
-64.0863
  0
LINE
  8
0
 10
2.44641
 20
-64.0863
 11
13.487
 21
-64.0863
  0
LINE
  8
0
 10
13.487
 20
-64.0863
 11
17.0921
 21
-57.6246
  0
LINE
  8
0
 10
17.0921
 20
-57.6246
 11
19.5264
 21
-53.2616
  0
LINE
  8
0
 10
19.5264
 20
-53.2616
 11
27.3205
 21
-53.2616
  0
LINE
  8
0
 10
27.3205
 20
-53.2616
 11
27.4299
 21
-53.2616
  0
LINE
  8
0
 10
27.4299
 20
-53.2616
 11
29.4405
 21
-53.2616
  0
LINE
  8
0
 10
29.4405
 20
-53.2616
 11
32.4142
 21
-50.2055
  0
LINE
  8
0
 10
32.4142
 20
-50.2055
 11
34.4632
 21
-48.021
  0
LINE
  8
0
 10
34.4632
 20
-48.021
 11
36.3094
 21
-46.0529
  0
LINE
  8
0
 10
36.3094
 20
-46.0529
 11
36.6066
 21
-45.5943
  0
LINE
  8
0
 10
36.6066
 20
-45.5943
 11
36.6028
 21
-45.5113
  0
LINE
  8
0
 10
36.6028
 20
-45.5113
 11
36.3094
 21
-39.2068
  0
LINE
  8
0
 10
36.3094
 20
-39.2068
 11
36.3094
 21
-39.2068
  0
LINE
  8
0
 10
36.3094
 20
-39.2068
 11
35.5686
 21
-30.8345
  0
LINE
  8
0
 10
35.5686
 20
-30.8345
 11
35.3482
 21
-28.3426
  0
LINE
  8
0
 10
35.3482
 20
-28.3426
 11
35.3482
 21
-28.3426
  0
LINE
  8
0
 10
35.3482
 20
-28.3426
 11
35.3033
 21
-27.3435
  0
LINE
  8
0
 10
35.3033
 20
-27.3435
 11
34.997
 21
-20.525
  0
LINE
  8
0
 10
34.997
 20
-20.525
 11
34.997
 21
-15.6295
  0
LINE
  8
0
 10
34.997
 20
-15.6295
 11
35.6289
 21
-15.3251
  0
LINE
  8
0
 10
35.6289
 20
-15.3251
 11
36.7873
 21
-13.8726
  0
LINE
  8
0
 10
36.7873
 20
-13.8726
 11
36.8091
 21
-13.8453
  0
LINE
  8
0
 10
36.8091
 20
-13.8453
 11
36.8168
 21
-13.8113
  0
LINE
  8
0
 10
36.8168
 20
-13.8113
 11
37.2302
 21
-12
  0
LINE
  8
0
 10
37.2302
 20
-12
 11
36.8168
 21
-10.1887
  0
LINE
  8
0
 10
36.8168
 20
-10.1887
 11
36.8091
 21
-10.1547
  0
LINE
  8
0
 10
36.8091
 20
-10.1547
 11
36.7873
 21
-10.1274
  0
LINE
  8
0
 10
36.7873
 20
-10.1274
 11
35.6289
 21
-8.67486
  0
LINE
  8
0
 10
35.6289
 20
-8.67486
 11
34.997
 21
-8.37054
  0
LINE
  8
0
 10
34.997
 20
-8.37054
 11
34.997
 21
-3.475
  0
LINE
  8
0
 10
34.997
 20
-3.475
 11
35.3033
 21
3.34347
  0
LINE
  8
0
 10
35.3033
 20
3.34347
 11
35.3482
 21
4.3426
  0
LINE
  8
0
 10
35.3482
 20
4.3426
 11
35.3482
 21
4.3426
  0
LINE
  8
0
 10
35.3482
 20
4.3426
 11
35.5686
 21
6.83447
  0
LINE
  8
0
 10
35.5686
 20
6.83447
 11
36.3094
 21
15.2068
  0
LINE
  8
0
 10
36.3094
 20
15.2068
 11
36.3094
 21
15.2068
  0
LINE
  8
0
 10
36.3094
 20
15.2068
 11
36.6028
 21
21.5113
  0
LINE
  8
0
 10
36.6028
 20
21.5113
 11
36.6066
 21
21.5943
  0
LINE
  8
0
 10
36.6066
 20
21.5943
 11
36.3094
 21
22.0529
  0
LINE
  8
0
 10
36.3094
 20
22.0529
 11
34.4632
 21
24.021
  0
LINE
  8
0
 10
34.4632
 20
24.021
 11
32.4142
 21
26.2055
  0
LINE
  8
0
 10
32.4142
 20
26.2055
 11
29.4405
 21
29.2616
  0
LINE
  8
0
 10
29.4405
 20
29.2616
 11
27.4299
 21
29.2616
  0
LINE
  8
0
 10
27.4299
 20
29.2616
 11
27.3205
 21
29.2616
  0
LINE
  8
0
 10
27.3205
 20
29.2616
 11
12.7043
 21
29.2616
  0
LINE
  8
0
 10
12.7043
 20
29.2616
 11
8.76151
 21
37.4951
  0
LINE
  8
0
 10
8.76151
 20
37.4951
 11
7.3916
 21
40.3557
  0
LINE
  8
0
 10
7.3916
 20
40.3557
 11
6.54451
 21
41.2327
  0
LINE
  8
0
 10
6.54451
 20
41.2327
 11
6.54123
 21
41.2329
  0
LINE
  8
0
 10
6.54123
 20
41.2329
 11
6.30387
 21
41.2494
  0
LINE
  8
0
 10
6.30387
 20
41.2494
 11
6.12785
 21
41.2616
  0
LINE
  8
0
 10
6.12785
 20
41.2616
 11
6.12785
 21
41.2616
  0
LINE
  8
0
 10
6.12785
 20
41.2616
 11
1.76814
 21
41.2616
  0
LINE
  8
0
 10
1.76814
 20
41.2616
 11
1.7661
 21
41.2705
  0
LINE
  8
0
 10
1.7661
 20
41.2705
 11
1.75835
 21
41.3045
  0
LINE
  8
0
 10
1.75835
 20
41.3045
 11
1.73662
 21
41.3317
  0
LINE
  8
0
 10
1.73662
 20
41.3317
 11
0.578227
 21
42.7843
  0
LINE
  8
0
 10
0.578227
 20
42.7843
 11
-1.0957
 21
43.5904
  0
LINE
  8
0
 10
-1.0957
 20
43.5904
 11
-1.1271
 21
43.6056
  0
LINE
  8
0
 10
-1.1271
 20
43.6056
 11
-3.01987
 21
43.6056
  0
LINE
  8
0
 10
-3.01987
 20
43.6056
 11
-3.05127
 21
43.5904
  0
LINE
  8
0
 10
-3.05127
 20
43.5904
 11
-4.7252
 21
42.7843
  0
LINE
  8
0
 10
-4.7252
 20
42.7843
 11
-5.8836
 21
41.3317
  0
LINE
  8
0
 10
-5.8836
 20
41.3317
 11
-5.90532
 21
41.3045
  0
LINE
  8
0
 10
-5.90532
 20
41.3045
 11
-5.91308
 21
41.2705
  0
LINE
  8
0
 10
-5.91308
 20
41.2705
 11
-5.91511
 21
41.2616
  0
LINE
  8
0
 10
-5.91511
 20
41.2616
 11
-10.049
 21
41.2616
  0
LINE
  8
0
 10
-10.049
 20
41.2616
 11
-15.0004
 21
43.7399
  0
LINE
  8
0
 10
-15.0004
 20
43.7399
 11
-15.683
 21
44.0816
  0
LINE
  8
0
 10
-15.683
 20
44.0816
 11
-17.6471
 21
44.0816
  0
LINE
  8
0
 10
-17.6471
 20
44.0816
 11
-17.7717
 21
44.0816
  0
LINE
  8
0
 10
-17.7717
 20
44.0816
 11
-31.8927
 21
44.0816
  0
LINE
  8
0
 10
-31.8927
 20
44.0816
 11
-33.2184
 21
42.8992
  0
LINE
  8
0
 10
-33.2184
 20
42.8992
 11
-35.0546
 21
41.2616
  0
LINE
  8
0
 10
-35.0546
 20
41.2616
 11
-43.8767
 21
41.2616
  0
LINE
  8
0
 10
-43.8767
 20
41.2616
 11
-43.9277
 21
41.2616
  0
LINE
  8
0
 10
-43.9277
 20
41.2616
 11
-50.568
 21
41.2616
  0
LINE
  8
0
 10
-50.568
 20
41.2616
 11
-53.3568
 21
41.2616
  0
LINE
  8
0
 10
-53.3568
 20
41.2616
 11
-53.3885
 21
41.2616
  0
LINE
  8
0
 10
-53.3885
 20
41.2616
 11
-54.7246
 21
41.2616
  0
LINE
  8
0
 10
-54.7246
 20
41.2616
 11
-65.0175
 21
41.2616
  0
LINE
  8
0
 10
-65.0175
 20
41.2616
 11
-69.5825
 21
41.2616
  0
LINE
  8
0
 10
-69.5825
 20
41.2616
 11
-69.6035
 21
41.2616
  0
LINE
  8
0
 10
-69.6035
 20
41.2616
 11
-72.595
 21
38.6399
  0
LINE
  8
0
 10
-72.595
 20
38.6399
 11
-73.5565
 21
37.7973
  0
LINE
  8
0
 10
-73.5565
 20
37.7973
 11
-80.5565
 21
30.7973
  0
LINE
  8
0
 10
-80.5565
 20
30.7973
 11
-81.1238
 21
26.5625
  0
LINE
  8
0
 10
-81.1238
 20
26.5625
 11
-82.569
 21
26.5625
  0
LINE
  8
0
 10
-82.569
 20
26.5625
 11
-82.6004
 21
26.5474
  0
LINE
  8
0
 10
-82.6004
 20
26.5474
 11
-84.2743
 21
25.7413
  0
LINE
  8
0
 10
-84.2743
 20
25.7413
 11
-85.4327
 21
24.2887
  0
LINE
  8
0
 10
-85.4327
 20
24.2887
 11
-85.4545
 21
24.2615
  0
LINE
  8
0
 10
-85.4545
 20
24.2615
 11
-85.4622
 21
24.2275
  0
LINE
  8
0
 10
-85.4622
 20
24.2275
 11
-85.8756
 21
22.4161
  0
LINE
  8
0
 10
-85.8756
 20
22.4161
 11
-85.4622
 21
20.6048
  0
LINE
  8
0
 10
-85.4622
 20
20.6048
 11
-85.4545
 21
20.5708
  0
LINE
  8
0
 10
-85.4545
 20
20.5708
 11
-85.4327
 21
20.5436
  0
LINE
  8
0
 10
-85.4327
 20
20.5436
 11
-84.2743
 21
19.091
  0
LINE
  8
0
 10
-84.2743
 20
19.091
 11
-82.6004
 21
18.2849
  0
LINE
  8
0
 10
-82.6004
 20
18.2849
 11
-82.569
 21
18.2698
  0
LINE
  8
0
 10
-82.569
 20
18.2698
 11
-82.2348
 21
18.2698
  0
LINE
  8
0
 10
-82.2348
 20
18.2698
 11
-82.7888
 21
14.135
  0
LINE
  8
0
 10
-82.7888
 20
14.135
 11
-83.03
 21
10.4701
  0
LINE
  8
0
 10
-83.03
 20
10.4701
 11
-83.1482
 21
8.67499
  0
LINE
  8
0
 10
-83.1482
 20
8.67499
 11
-83.1482
 21
-8.67499
  0
LINE
  8
0
 10
-83.1482
 20
-8.67499
 11
-83.03
 21
-10.4701
  0
LINE
  8
0
 10
-83.03
 20
-10.4701
 11
-82.7888
 21
-14.135
  0
LINE
  8
0
 10
-82.7888
 20
-14.135
 11
-81.2904
 21
-25.3191
  0
LINE
  8
0
 10
-81.2904
 20
-25.3191
 11
-80.5565
 21
-30.7973
  0
LINE
  8
0
 10
-80.5565
 20
-30.7973
 11
-79.3307
 21
-34.133
  0
LINE
  8
0
 10
-79.3307
 20
-34.133
 11
-77.6052
 21
-38.8285
  0
LINE
  8
0
 10
-77.6052
 20
-38.8285
 11
-77.9982
 21
-39.1583
  0
LINE
  8
0
 10
-77.9982
 20
-39.1583
 11
-78.2428
 21
-39.1583
  0
LINE
  8
0
 10
-78.2428
 20
-39.1583
 11
-78.2742
 21
-39.1734
  0
LINE
  8
0
 10
-78.2742
 20
-39.1734
 11
-79.9482
 21
-39.9795
  0
LINE
  8
0
 10
-79.9482
 20
-39.9795
 11
-81.1066
 21
-41.4321
  0
LINE
  8
0
 10
-81.1066
 20
-41.4321
 11
-81.1283
 21
-41.4594
  0
LINE
  8
0
 10
-81.1283
 20
-41.4594
 11
-81.1361
 21
-41.4933
  0
LINE
  8
0
 10
-81.1361
 20
-41.4933
 11
-81.2202
 21
-41.8618
  0
LINE
  8
0
 10
-81.2202
 20
-41.8618
 11
-81.437
 21
-42.0438
  0
LINE
  8
0
 10
-81.437
 20
-42.0438
 11
-85.7096
 21
-45.6289
  0
LINE
  8
0
 10
-85.7096
 20
-45.6289
 11
-85.7096
 21
-45.6289
  0
LINE
  8
0
 10
-85.7096
 20
-45.6289
 11
-85.7551
 21
-45.6671
  0
LINE
  8
0
 10
-85.7551
 20
-45.6671
 11
-85.7551
 21
-45.6671
  0
LINE
  8
0
 10
-85.7551
 20
-45.6671
 11
-85.7731
 21
-45.6822
  0
LINE
  8
0
 10
-85.7731
 20
-45.6822
 11
-86.1308
 21
-46.1183
  0
LINE
  8
0
 10
-86.1308
 20
-46.1183
 11
-86.1308
 21
-46.1183
  0
LINE
  8
0
 10
-86.1308
 20
-46.1183
 11
-87.029
 21
-47.2136
  0
LINE
  8
0
 10
-87.029
 20
-47.2136
 11
-87.029
 21
-47.2136
  0
LINE
  8
0
 10
-87.029
 20
-47.2136
 11
-84.089
 21
-54.7611
  0
LINE
  8
0
 10
-84.089
 20
-54.7611
 11
-83.2293
 21
-56.9681
  0
LINE
  8
0
 10
-83.2293
 20
-56.9681
 11
-85.8261
 21
-60.292
  0
LINE
  8
0
 10
-85.8261
 20
-60.292
 11
-89.6895
 21
-67.2994
  0
LINE
  8
0
 10
-89.6895
 20
-67.2994
 11
-92.9305
 21
-73.1779
  0
LINE
  8
0
 10
-92.9305
 20
-73.1779
 11
-92.9902
 21
-73.2862
  0
LINE
  8
0
 10
-90.5586
 20
-75.031
 11
-80.3925
 21
-57.1365
  0
LINE
  8
0
 10
-80.3925
 20
-57.1365
 11
-80.3925
 21
-57.1365
  0
LINE
  8
0
 10
-80.3925
 20
-57.1365
 11
-80.3803
 21
-57.1208
  0
LINE
  8
0
 10
-80.3803
 20
-57.1208
 11
-80.2041
 21
-56.8952
  0
LINE
  8
0
 10
-80.2041
 20
-56.8952
 11
-80.2039
 21
-56.895
  0
LINE
  8
0
 10
-80.2039
 20
-56.895
 11
-80.2039
 21
-56.895
  0
LINE
  8
0
 10
-80.2039
 20
-56.895
 11
-80.1545
 21
-56.8318
  0
LINE
  8
0
 10
-80.1545
 20
-56.8318
 11
-83.1268
 21
-49.8447
  0
LINE
  8
0
 10
-83.1268
 20
-49.8447
 11
-84.1234
 21
-47.5019
  0
LINE
  8
0
 10
-84.1234
 20
-47.5019
 11
-81.6197
 21
-45.401
  0
LINE
  8
0
 10
-81.6197
 20
-45.401
 11
-81.1592
 21
-45.0146
  0
LINE
  8
0
 10
-81.1592
 20
-45.0146
 11
-81.1361
 21
-45.116
  0
LINE
  8
0
 10
-81.1361
 20
-45.116
 11
-81.1283
 21
-45.15
  0
LINE
  8
0
 10
-81.1283
 20
-45.15
 11
-81.1066
 21
-45.1772
  0
LINE
  8
0
 10
-81.1066
 20
-45.1772
 11
-79.9482
 21
-46.6298
  0
LINE
  8
0
 10
-79.9482
 20
-46.6298
 11
-78.2742
 21
-47.4359
  0
LINE
  8
0
 10
-78.2742
 20
-47.4359
 11
-78.2428
 21
-47.4511
  0
LINE
  8
0
 10
-78.2428
 20
-47.4511
 11
-76.3501
 21
-47.4511
  0
LINE
  8
0
 10
-76.3501
 20
-47.4511
 11
-76.3187
 21
-47.4359
  0
LINE
  8
0
 10
-76.3187
 20
-47.4359
 11
-74.6447
 21
-46.6298
  0
LINE
  8
0
 10
-74.6447
 20
-46.6298
 11
-73.4863
 21
-45.1772
  0
LINE
  8
0
 10
-73.4863
 20
-45.1772
 11
-73.4646
 21
-45.15
  0
LINE
  8
0
 10
-73.4646
 20
-45.15
 11
-73.4569
 21
-45.116
  0
LINE
  8
0
 10
-73.4569
 20
-45.116
 11
-73.0434
 21
-43.3047
  0
LINE
  8
0
 10
-73.0434
 20
-43.3047
 11
-73.4569
 21
-41.4933
  0
LINE
  8
0
 10
-73.4569
 20
-41.4933
 11
-73.4646
 21
-41.4594
  0
LINE
  8
0
 10
-73.4646
 20
-41.4594
 11
-73.4863
 21
-41.4321
  0
LINE
  8
0
 10
-73.4863
 20
-41.4321
 11
-74.6447
 21
-39.9795
  0
LINE
  8
0
 10
-74.6447
 20
-39.9795
 11
-75.1096
 21
-39.7557
  0
LINE
  8
0
 10
-75.1096
 20
-39.7557
 11
-74.829
 21
-39.4135
  0
LINE
  8
0
 10
-74.829
 20
-39.4135
 11
-74.3341
 21
-38.8101
  0
LINE
  8
0
 10
-74.3341
 20
-38.8101
 11
-75.4272
 21
-36.6588
  0
LINE
  8
0
 10
-75.4272
 20
-36.6588
 11
-78.4565
 21
-30.6973
  0
LINE
  8
0
 10
-78.4565
 20
-30.6973
 11
-78.9118
 21
-27.2984
  0
LINE
  8
0
 10
-78.9118
 20
-27.2984
 11
-71.8598
 21
-27.2984
  0
LINE
  8
0
 10
-71.8598
 20
-27.2984
 11
-71.8598
 21
25.2984
  0
LINE
  8
0
 10
-71.8598
 20
25.2984
 11
-78.6177
 21
25.2984
  0
LINE
  8
0
 10
-78.6177
 20
25.2984
 11
-78.9709
 21
25.7413
  0
LINE
  8
0
 10
-78.9709
 20
25.7413
 11
-79.1114
 21
25.8089
  0
LINE
  8
0
 10
-79.1114
 20
25.8089
 11
-78.4565
 21
30.6973
  0
LINE
  8
0
 10
-78.4565
 20
30.6973
 11
-73.4565
 21
35.6973
  0
LINE
  8
0
 10
-73.4565
 20
35.6973
 11
-72.2247
 21
36.3018
  0
LINE
  8
0
 10
-72.2247
 20
36.3018
 11
-68.0983
 21
38.3273
  0
LINE
  8
0
 10
-68.0983
 20
38.3273
 11
-56.6762
 21
38.3273
  0
LINE
  8
0
 10
-56.6762
 20
38.3273
 11
-56.6602
 21
38.3273
  0
LINE
  8
0
 10
-56.6602
 20
38.3273
 11
-53.2707
 21
38.3273
  0
LINE
  8
0
 10
-53.2707
 20
38.3273
 11
-50.456
 21
38.3273
  0
LINE
  8
0
 10
-50.456
 20
38.3273
 11
-49.3326
 21
38.3273
  0
LINE
  8
0
 10
-49.3326
 20
38.3273
 11
-38.4985
 21
38.3273
  0
LINE
  8
0
 10
-38.4985
 20
38.3273
 11
-38.477
 21
38.3273
  0
LINE
  8
0
 10
-38.477
 20
38.3273
 11
-33.7999
 21
38.3273
  0
LINE
  8
0
 10
-33.7999
 20
38.3273
 11
-33.7649
 21
38.3273
  0
LINE
  8
0
 10
-33.7649
 20
38.3273
 11
-31.9662
 21
40.0546
  0
LINE
  8
0
 10
-31.9662
 20
40.0546
 11
-30.8284
 21
41.1473
  0
LINE
  8
0
 10
-30.8284
 20
41.1473
 11
-22.8743
 21
41.1473
  0
LINE
  8
0
 10
-22.8743
 20
41.1473
 11
-22.8408
 21
41.1473
  0
LINE
  8
0
 10
-22.8408
 20
41.1473
 11
-14.8066
 21
41.1473
  0
LINE
  8
0
 10
-14.8066
 20
41.1473
 11
-11.6387
 21
39.4915
  0
LINE
  8
0
 10
-11.6387
 20
39.4915
 11
-11.6386
 21
39.4915
  0
LINE
  8
0
 10
-11.6386
 20
39.4915
 11
-9.41129
 21
38.3273
  0
LINE
  8
0
 10
-9.41129
 20
38.3273
 11
-9.41129
 21
38.3273
  0
LINE
  8
0
 10
-9.41129
 20
38.3273
 11
-6.06816
 21
38.3273
  0
LINE
  8
0
 10
-6.06816
 20
38.3273
 11
-5.91308
 21
37.6478
  0
LINE
  8
0
 10
-5.91308
 20
37.6478
 11
-5.90532
 21
37.6139
  0
LINE
  8
0
 10
-5.90532
 20
37.6139
 11
-5.8836
 21
37.5866
  0
LINE
  8
0
 10
-5.8836
 20
37.5866
 11
-4.7252
 21
36.134
  0
LINE
  8
0
 10
-4.7252
 20
36.134
 11
-3.05127
 21
35.3279
  0
LINE
  8
0
 10
-3.05127
 20
35.3279
 11
-3.01987
 21
35.3128
  0
LINE
  8
0
 10
-3.01987
 20
35.3128
 11
-1.1271
 21
35.3128
  0
LINE
  8
0
 10
-1.1271
 20
35.3128
 11
-1.0957
 21
35.3279
  0
LINE
  8
0
 10
-1.0957
 20
35.3279
 11
0.578227
 21
36.134
  0
LINE
  8
0
 10
0.578227
 20
36.134
 11
1.73662
 21
37.5866
  0
LINE
  8
0
 10
1.73662
 20
37.5866
 11
1.75835
 21
37.6139
  0
LINE
  8
0
 10
1.75835
 20
37.6139
 11
1.7661
 21
37.6478
  0
LINE
  8
0
 10
1.7661
 20
37.6478
 11
1.92119
 21
38.3273
  0
LINE
  8
0
 10
1.92119
 20
38.3273
 11
6.67974
 21
38.3273
  0
LINE
  8
0
 10
6.67974
 20
38.3273
 11
7.10916
 21
37.595
  0
LINE
  8
0
 10
7.10916
 20
37.595
 11
10.6911
 21
30.524
  0
LINE
  8
0
 10
10.6911
 20
30.524
 11
12.3582
 21
27.2332
  0
LINE
  8
0
 10
12.3582
 20
27.2332
 11
12.5192
 21
26.9847
  0
LINE
  8
0
 10
12.5192
 20
26.9847
 11
12.9452
 21
26.3273
  0
LINE
  8
0
 10
12.9452
 20
26.3273
 11
19.9844
 21
26.3273
  0
LINE
  8
0
 10
19.9844
 20
26.3273
 11
29.8347
 21
26.3273
  0
LINE
  8
0
 10
29.8347
 20
26.3273
 11
31.2074
 21
24.9165
  0
LINE
  8
0
 10
31.2074
 20
24.9165
 11
32.5508
 21
23.5359
  0
LINE
  8
0
 10
32.5508
 20
23.5359
 11
33.7394
 21
22.0689
  0
LINE
  8
0
 10
33.7394
 20
22.0689
 11
33.7394
 21
22.0689
  0
LINE
  8
0
 10
33.7394
 20
22.0689
 11
33.5617
 21
19.9254
  0
LINE
  8
0
 10
33.5617
 20
19.9254
 11
32.2818
 21
4.48528
  0
LINE
  8
0
 10
32.2818
 20
4.48528
 11
32.2818
 21
4.48528
  0
LINE
  8
0
 10
32.2818
 20
4.48528
 11
32.2786
 21
4.44672
  0
LINE
  8
0
 10
32.2786
 20
4.44672
 11
32.2732
 21
4.38215
  0
LINE
  8
0
 10
32.2732
 20
4.38215
 11
32.0411
 21
-1.13246
  0
LINE
  8
0
 10
32.0411
 20
-1.13246
 11
31.9467
 21
-3.375
  0
LINE
  8
0
 10
31.9467
 20
-3.375
 11
31.9467
 21
-7.89411
  0
LINE
  8
0
 10
31.9467
 20
-7.89411
 11
30.3255
 21
-8.67486
  0
LINE
  8
0
 10
30.3255
 20
-8.67486
 11
29.1671
 21
-10.1274
  0
LINE
  8
0
 10
29.1671
 20
-10.1274
 11
29.1454
 21
-10.1547
  0
LINE
  8
0
 10
29.1454
 20
-10.1547
 11
29.1376
 21
-10.1887
  0
LINE
  8
0
 10
29.1376
 20
-10.1887
 11
28.7242
 21
-12
  0
LINE
  8
0
 10
28.7242
 20
-12
 11
29.1376
 21
-13.8113
  0
LINE
  8
0
 10
29.1376
 20
-13.8113
 11
29.1454
 21
-13.8453
  0
LINE
  8
0
 10
29.1454
 20
-13.8453
 11
29.1671
 21
-13.8726
  0
LINE
  8
0
 10
29.1671
 20
-13.8726
 11
30.3255
 21
-15.3251
  0
LINE
  8
0
 10
30.3255
 20
-15.3251
 11
31.9467
 21
-16.1059
  0
LINE
  8
0
 10
31.9467
 20
-16.1059
 11
31.9467
 21
-20.625
  0
LINE
  8
0
 10
31.9467
 20
-20.625
 11
32.0411
 21
-22.8675
  0
LINE
  8
0
 10
32.0411
 20
-22.8675
 11
32.2732
 21
-28.3821
  0
LINE
  8
0
 10
32.2732
 20
-28.3821
 11
32.2786
 21
-28.4467
  0
LINE
  8
0
 10
32.2786
 20
-28.4467
 11
32.2818
 21
-28.4853
  0
LINE
  8
0
 10
32.2818
 20
-28.4853
 11
32.2818
 21
-28.4853
  0
LINE
  8
0
 10
32.2818
 20
-28.4853
 11
33.5617
 21
-43.9254
  0
LINE
  8
0
 10
33.5617
 20
-43.9254
 11
33.7394
 21
-46.0689
  0
LINE
  8
0
 10
33.7394
 20
-46.0689
 11
33.7394
 21
-46.0689
  0
LINE
  8
0
 10
33.7394
 20
-46.0689
 11
32.5508
 21
-47.5359
  0
LINE
  8
0
 10
32.5508
 20
-47.5359
 11
31.2074
 21
-48.9165
  0
LINE
  8
0
 10
31.2074
 20
-48.9165
 11
29.8347
 21
-50.3273
  0
LINE
  8
0
 10
29.8347
 20
-50.3273
 11
19.9844
 21
-50.3273
  0
LINE
  8
0
 10
19.9844
 20
-50.3273
 11
12.9452
 21
-50.3273
  0
LINE
  8
0
 10
12.9452
 20
-50.3273
 11
12.5192
 21
-50.9847
  0
LINE
  8
0
 10
12.5192
 20
-50.9847
 11
12.3582
 21
-51.2332
  0
LINE
  8
0
 10
12.3582
 20
-51.2332
 11
12.3594
 21
-51.2597
  0
LINE
  8
0
 10
12.3594
 20
-51.2597
 11
12.4255
 21
-52.6799
  0
LINE
  8
0
 10
12.4255
 20
-52.6799
 11
12.4526
 21
-53.2616
  0
LINE
  8
0
 10
12.4526
 20
-53.2616
 11
12.4526
 21
-53.2616
  0
LINE
  8
0
 10
12.4526
 20
-53.2616
 11
16.3329
 21
-53.2616
  0
LINE
  8
0
 10
16.3329
 20
-53.2616
 11
16.3005
 21
-53.3309
  0
LINE
  8
0
 10
16.3005
 20
-53.3309
 11
12.9372
 21
-60.5177
  0
LINE
  8
0
 10
12.9372
 20
-60.5177
 11
6.56217
 21
-60.5177
  0
LINE
  8
0
 10
6.56217
 20
-60.5177
 11
-6.04323
 21
-60.5177
  0
LINE
  8
0
 10
-6.04323
 20
-60.5177
 11
-9.96403
 21
-61.6328
  0
LINE
  8
0
 10
-9.96403
 20
-61.6328
 11
-14.8163
 21
-63.013
  0
LINE
  8
0
 10
-14.8163
 20
-63.013
 11
-15.1171
 21
-62.6357
  0
LINE
  8
0
 10
-15.1171
 20
-62.6357
 11
-16.7911
 21
-61.8296
  0
LINE
  8
0
 10
-16.7911
 20
-61.8296
 11
-16.8225
 21
-61.8145
  0
LINE
  8
0
 10
-16.8225
 20
-61.8145
 11
-18.7152
 21
-61.8145
  0
LINE
  8
0
 10
-18.7152
 20
-61.8145
 11
-18.7466
 21
-61.8296
  0
LINE
  8
0
 10
-18.7466
 20
-61.8296
 11
-20.4206
 21
-62.6357
  0
LINE
  8
0
 10
-20.4206
 20
-62.6357
 11
-21.579
 21
-64.0883
  0
LINE
  8
0
 10
-21.579
 20
-64.0883
 11
-21.6007
 21
-64.1156
  0
LINE
  8
0
 10
-21.6007
 20
-64.1156
 11
-21.6084
 21
-64.1495
  0
LINE
  8
0
 10
-21.6084
 20
-64.1495
 11
-22.0219
 21
-65.9609
  0
LINE
  8
0
 10
-22.0219
 20
-65.9609
 11
-21.9238
 21
-66.3905
  0
LINE
  8
0
 10
-21.9238
 20
-66.3905
 11
-27.6368
 21
-70.1486
  0
LINE
  8
0
 10
-27.6368
 20
-70.1486
 11
-27.6371
 21
-70.1488
  0
LINE
  8
0
 10
-27.6371
 20
-70.1488
 11
-32.0367
 21
-73.0429
  0
LINE
  8
0
 10
-32.0367
 20
-73.0429
 11
-32.9071
 21
-73.7072
  0
LINE
  8
0
 10
-32.9071
 20
-73.7072
 11
-33.611
 21
-74.2446
  0
LINE
  8
0
 10
-33.611
 20
-74.2446
 11
-33.6331
 21
-74.2691
  0
LINE
  8
0
 10
-33.6331
 20
-74.2691
 11
-39.3997
 21
-80.6735
  0
LINE
  8
0
 10
-39.3997
 20
-80.6735
 11
-43.1802
 21
-84.8722
  0
LINE
  8
0
 10
-43.1802
 20
-84.8722
 11
-43.1802
 21
-84.8722
  0
LINE
  8
0
 10
-43.1802
 20
-84.8722
 11
-42.5569
 21
-88.0718
  0
LINE
  8
0
 10
-42.5569
 20
-88.0718
 11
-42.2454
 21
-89.6706
  0
LINE
  8
0
 10
-42.2454
 20
-89.6706
 11
-44.701
 21
-93.0505
  0
LINE
  8
0
 10
-44.701
 20
-93.0505
 11
-49.8585
 21
-96.4673
  0
LINE
  8
0
 10
-49.8585
 20
-96.4673
 11
-56.1578
 21
-100.64
  0
LINE
  8
0
 10
-56.1578
 20
-100.64
 11
-58.763
 21
-100.676
  0
LINE
  8
0
 10
-58.763
 20
-100.676
 11
-61.4583
 21
-98.3175
  0
LINE
  8
0
 10
-61.4583
 20
-98.3175
 11
-71.7607
 21
-89.3043
  0
LINE
  8
0
 10
-71.7607
 20
-89.3043
 11
-72.0803
 21
-89.0721
  0
LINE
  8
0
 10
-72.0803
 20
-89.0721
 11
-72.0829
 21
-89.0702
  0
LINE
  8
0
 10
-72.0829
 20
-89.0702
 11
-72.1583
 21
-89.0243
  0
LINE
  8
0
 10
-72.1583
 20
-89.0243
 11
-77.1849
 21
-87.5033
  0
LINE
  8
0
 10
-77.1849
 20
-87.5033
 11
-90.3988
 21
-76.6805
  0
LINE
  8
0
 10
-90.3988
 20
-76.6805
 11
-90.3988
 21
-76.6805
  0
LINE
  8
0
 10
-90.3988
 20
-76.6805
 11
-90.5586
 21
-75.031
  0
LINE
  8
0
 10
-83.3226
 20
22.4161
 11
-82.4726
 21
23.8884
  0
LINE
  8
0
 10
-82.4726
 20
23.8884
 11
-80.7726
 21
23.8884
  0
LINE
  8
0
 10
-80.7726
 20
23.8884
 11
-79.9226
 21
22.4161
  0
LINE
  8
0
 10
-79.9226
 20
22.4161
 11
-80.7726
 21
20.9439
  0
LINE
  8
0
 10
-80.7726
 20
20.9439
 11
-82.4726
 21
20.9439
  0
LINE
  8
0
 10
-82.4726
 20
20.9439
 11
-83.3226
 21
22.4161
  0
LINE
  8
0
 10
-81.0482
 20
-8.575
 11
-81.0482
 21
8.575
  0
LINE
  8
0
 10
-81.0482
 20
8.575
 11
-80.9421
 21
10.1864
  0
LINE
  8
0
 10
-80.9421
 20
10.1864
 11
-80.8598
 21
11.4372
  0
LINE
  8
0
 10
-80.8598
 20
11.4372
 11
-80.8598
 21
-11.4372
  0
LINE
  8
0
 10
-80.8598
 20
-11.4372
 11
-80.9421
 21
-10.1864
  0
LINE
  8
0
 10
-80.9421
 20
-10.1864
 11
-81.0482
 21
-8.575
  0
LINE
  8
0
 10
-78.9965
 20
-43.3047
 11
-78.1465
 21
-41.8324
  0
LINE
  8
0
 10
-78.1465
 20
-41.8324
 11
-76.4465
 21
-41.8324
  0
LINE
  8
0
 10
-76.4465
 20
-41.8324
 11
-75.5965
 21
-43.3047
  0
LINE
  8
0
 10
-75.5965
 20
-43.3047
 11
-76.4465
 21
-44.7769
  0
LINE
  8
0
 10
-76.4465
 20
-44.7769
 11
-78.1465
 21
-44.7769
  0
LINE
  8
0
 10
-78.1465
 20
-44.7769
 11
-78.9965
 21
-43.3047
  0
LINE
  8
0
 10
-19.4688
 20
-65.9609
 11
-18.6188
 21
-64.4886
  0
LINE
  8
0
 10
-18.6188
 20
-64.4886
 11
-16.9188
 21
-64.4886
  0
LINE
  8
0
 10
-16.9188
 20
-64.4886
 11
-16.0688
 21
-65.9609
  0
LINE
  8
0
 10
-16.0688
 20
-65.9609
 11
-16.9188
 21
-67.4331
  0
LINE
  8
0
 10
-16.9188
 20
-67.4331
 11
-18.6188
 21
-67.4331
  0
LINE
  8
0
 10
-18.6188
 20
-67.4331
 11
-19.4688
 21
-65.9609
  0
LINE
  8
0
 10
-3.77349
 20
39.4592
 11
-2.92349
 21
40.9314
  0
LINE
  8
0
 10
-2.92349
 20
40.9314
 11
-1.22349
 21
40.9314
  0
LINE
  8
0
 10
-1.22349
 20
40.9314
 11
-0.373487
 21
39.4592
  0
LINE
  8
0
 10
-0.373487
 20
39.4592
 11
-1.22349
 21
37.9869
  0
LINE
  8
0
 10
-1.22349
 20
37.9869
 11
-2.92349
 21
37.9869
  0
LINE
  8
0
 10
-2.92349
 20
37.9869
 11
-3.77349
 21
39.4592
  0
LINE
  8
0
 10
31.2772
 20
-12
 11
32.1272
 21
-10.5278
  0
LINE
  8
0
 10
32.1272
 20
-10.5278
 11
33.8272
 21
-10.5278
  0
LINE
  8
0
 10
33.8272
 20
-10.5278
 11
34.6772
 21
-12
  0
LINE
  8
0
 10
34.6772
 20
-12
 11
33.8272
 21
-13.4722
  0
LINE
  8
0
 10
33.8272
 20
-13.4722
 11
32.1272
 21
-13.4722
  0
LINE
  8
0
 10
32.1272
 20
-13.4722
 11
31.2772
 21
-12
  0
ENDSEC
  0
SECTION
  2
OBJECTS
  0
DICTIONARY
  0
ENDSEC
  0
EOF
