  0
SECTION
  2
BLOCKS
  0
ENDSEC
  0
SECTION
  2
ENTITIES
  0
LINE
  8
0
 10
-73.5674
 20
-73.4748
 11
-73.3357
 21
-75.7219
  0
LINE
  8
0
 10
-73.3357
 20
-75.7219
 11
-73.0037
 21
-78.9421
  0
LINE
  8
0
 10
-73.0037
 20
-78.9421
 11
-63.6207
 21
-86.6478
  0
LINE
  8
0
 10
-63.6207
 20
-86.6478
 11
-59.6495
 21
-89.9091
  0
LINE
  8
0
 10
-59.6495
 20
-89.9091
 11
-57.9386
 21
-90.7545
  0
LINE
  8
0
 10
-57.9386
 20
-90.7545
 11
-54.6569
 21
-91.178
  0
LINE
  8
0
 10
-54.6569
 20
-91.178
 11
-54.6569
 21
-91.178
  0
LINE
  8
0
 10
-54.6569
 20
-91.178
 11
-44.7723
 21
-99.9178
  0
LINE
  8
0
 10
-44.7723
 20
-99.9178
 11
-41.4528
 21
-102.853
  0
LINE
  8
0
 10
-41.4528
 20
-102.853
 11
-41.4279
 21
-102.875
  0
LINE
  8
0
 10
-41.4279
 20
-102.875
 11
-36.0489
 21
-102.849
  0
LINE
  8
0
 10
-36.0489
 20
-102.849
 11
-34.1434
 21
-102.84
  0
LINE
  8
0
 10
-34.1434
 20
-102.84
 11
-34.0357
 21
-102.771
  0
LINE
  8
0
 10
-34.0357
 20
-102.771
 11
-30.2492
 21
-100.344
  0
LINE
  8
0
 10
-30.2492
 20
-100.344
 11
-26.1183
 21
-97.6962
  0
LINE
  8
0
 10
-26.1183
 20
-97.6962
 11
-26.1183
 21
-97.6962
  0
LINE
  8
0
 10
-26.1183
 20
-97.6962
 11
-23.4107
 21
-94.9769
  0
LINE
  8
0
 10
-23.4107
 20
-94.9769
 11
-21.7069
 21
-93.2656
  0
LINE
  8
0
 10
-21.7069
 20
-93.2656
 11
-21.7069
 21
-93.2656
  0
LINE
  8
0
 10
-21.7069
 20
-93.2656
 11
-21.1151
 21
-92.4511
  0
LINE
  8
0
 10
-21.1151
 20
-92.4511
 11
-19.4279
 21
-90.129
  0
LINE
  8
0
 10
-19.4279
 20
-90.129
 11
-20.3573
 21
-86.1988
  0
LINE
  8
0
 10
-20.3573
 20
-86.1988
 11
-20.6177
 21
-85.0976
  0
LINE
  8
0
 10
-20.6177
 20
-85.0976
 11
-18.6234
 21
-82.8827
  0
LINE
  8
0
 10
-18.6234
 20
-82.8827
 11
-18.6232
 21
-82.8825
  0
LINE
  8
0
 10
-18.6232
 20
-82.8825
 11
-11.4776
 21
-74.9464
  0
LINE
  8
0
 10
-11.4776
 20
-74.9464
 11
-8.81143
 21
-73.1458
  0
LINE
  8
0
 10
-8.81143
 20
-73.1458
 11
-1.78339
 21
-68.3991
  0
LINE
  8
0
 10
-1.78339
 20
-68.3991
 11
-1.0761
 21
-69.286
  0
LINE
  8
0
 10
-1.0761
 20
-69.286
 11
0.597833
 21
-70.0921
  0
LINE
  8
0
 10
0.597833
 20
-70.0921
 11
0.629229
 21
-70.1073
  0
LINE
  8
0
 10
0.629229
 20
-70.1073
 11
2.522
 21
-70.1073
  0
LINE
  8
0
 10
2.522
 20
-70.1073
 11
2.5534
 21
-70.0921
  0
LINE
  8
0
 10
2.5534
 20
-70.0921
 11
4.22733
 21
-69.286
  0
LINE
  8
0
 10
4.22733
 20
-69.286
 11
5.38572
 21
-67.8334
  0
LINE
  8
0
 10
5.38572
 20
-67.8334
 11
5.40745
 21
-67.8062
  0
LINE
  8
0
 10
5.40745
 20
-67.8062
 11
5.41521
 21
-67.7722
  0
LINE
  8
0
 10
5.41521
 20
-67.7722
 11
5.82863
 21
-65.9609
  0
LINE
  8
0
 10
5.82863
 20
-65.9609
 11
5.77407
 21
-65.7218
  0
LINE
  8
0
 10
5.77407
 20
-65.7218
 11
13.4997
 21
-64.0863
  0
LINE
  8
0
 10
13.4997
 20
-64.0863
 11
21.3214
 21
-64.0863
  0
LINE
  8
0
 10
21.3214
 20
-64.0863
 11
33.836
 21
-64.0863
  0
LINE
  8
0
 10
33.836
 20
-64.0863
 11
38.2596
 21
-57.4571
  0
LINE
  8
0
 10
38.2596
 20
-57.4571
 11
41.0592
 21
-53.2616
  0
LINE
  8
0
 10
41.0592
 20
-53.2616
 11
44.599
 21
-53.2616
  0
LINE
  8
0
 10
44.599
 20
-53.2616
 11
51.1325
 21
-53.2616
  0
LINE
  8
0
 10
51.1325
 20
-53.2616
 11
53.9971
 21
-53.2616
  0
LINE
  8
0
 10
53.9971
 20
-53.2616
 11
73.0011
 21
-53.2616
  0
LINE
  8
0
 10
73.0011
 20
-53.2616
 11
77.9306
 21
-48.5001
  0
LINE
  8
0
 10
77.9306
 20
-48.5001
 11
80.0011
 21
-46.5001
  0
LINE
  8
0
 10
80.0011
 20
-46.5001
 11
80.0011
 21
-30.6678
  0
LINE
  8
0
 10
80.0011
 20
-30.6678
 11
80.0011
 21
-15.639
  0
LINE
  8
0
 10
80.0011
 20
-15.639
 11
80.6528
 21
-15.3251
  0
LINE
  8
0
 10
80.6528
 20
-15.3251
 11
81.8112
 21
-13.8726
  0
LINE
  8
0
 10
81.8112
 20
-13.8726
 11
81.8329
 21
-13.8453
  0
LINE
  8
0
 10
81.8329
 20
-13.8453
 11
81.8407
 21
-13.8113
  0
LINE
  8
0
 10
81.8407
 20
-13.8113
 11
82.2541
 21
-12
  0
LINE
  8
0
 10
82.2541
 20
-12
 11
81.8407
 21
-10.1887
  0
LINE
  8
0
 10
81.8407
 20
-10.1887
 11
81.8329
 21
-10.1547
  0
LINE
  8
0
 10
81.8329
 20
-10.1547
 11
81.8112
 21
-10.1274
  0
LINE
  8
0
 10
81.8112
 20
-10.1274
 11
80.6528
 21
-8.67486
  0
LINE
  8
0
 10
80.6528
 20
-8.67486
 11
80.0011
 21
-8.36101
  0
LINE
  8
0
 10
80.0011
 20
-8.36101
 11
80.0011
 21
6.66781
  0
LINE
  8
0
 10
80.0011
 20
6.66781
 11
80.0011
 21
22.5001
  0
LINE
  8
0
 10
80.0011
 20
22.5001
 11
77.9306
 21
24.5001
  0
LINE
  8
0
 10
77.9306
 20
24.5001
 11
73.0011
 21
29.2616
  0
LINE
  8
0
 10
73.0011
 20
29.2616
 11
53.9971
 21
29.2616
  0
LINE
  8
0
 10
53.9971
 20
29.2616
 11
51.1325
 21
29.2616
  0
LINE
  8
0
 10
51.1325
 20
29.2616
 11
44.599
 21
29.2616
  0
LINE
  8
0
 10
44.599
 20
29.2616
 11
34.0858
 21
29.2616
  0
LINE
  8
0
 10
34.0858
 20
29.2616
 11
30.6745
 21
36.1201
  0
LINE
  8
0
 10
30.6745
 20
36.1201
 11
28.5678
 21
40.3557
  0
LINE
  8
0
 10
28.5678
 20
40.3557
 11
28.3437
 21
40.7016
  0
LINE
  8
0
 10
28.3437
 20
40.7016
 11
27.9808
 21
41.2616
  0
LINE
  8
0
 10
27.9808
 20
41.2616
 11
24.183
 21
41.2616
  0
LINE
  8
0
 10
24.183
 20
41.2616
 11
24.089
 21
41.2616
  0
LINE
  8
0
 10
24.089
 20
41.2616
 11
23.1547
 21
41.2616
  0
LINE
  8
0
 10
23.1547
 20
41.2616
 11
23.1526
 21
41.2705
  0
LINE
  8
0
 10
23.1526
 20
41.2705
 11
23.1449
 21
41.3045
  0
LINE
  8
0
 10
23.1449
 20
41.3045
 11
23.1232
 21
41.3317
  0
LINE
  8
0
 10
23.1232
 20
41.3317
 11
21.9648
 21
42.7843
  0
LINE
  8
0
 10
21.9648
 20
42.7843
 11
20.2908
 21
43.5904
  0
LINE
  8
0
 10
20.2908
 20
43.5904
 11
20.2594
 21
43.6056
  0
LINE
  8
0
 10
20.2594
 20
43.6056
 11
18.3667
 21
43.6056
  0
LINE
  8
0
 10
18.3667
 20
43.6056
 11
18.3353
 21
43.5904
  0
LINE
  8
0
 10
18.3353
 20
43.5904
 11
16.6613
 21
42.7843
  0
LINE
  8
0
 10
16.6613
 20
42.7843
 11
15.5029
 21
41.3317
  0
LINE
  8
0
 10
15.5029
 20
41.3317
 11
15.4812
 21
41.3045
  0
LINE
  8
0
 10
15.4812
 20
41.3045
 11
15.4735
 21
41.2705
  0
LINE
  8
0
 10
15.4735
 20
41.2705
 11
15.4714
 21
41.2616
  0
LINE
  8
0
 10
15.4714
 20
41.2616
 11
11.0913
 21
41.2616
  0
LINE
  8
0
 10
11.0913
 20
41.2616
 11
6.50856
 21
43.5133
  0
LINE
  8
0
 10
6.50856
 20
43.5133
 11
5.35191
 21
44.0816
  0
LINE
  8
0
 10
5.35191
 20
44.0816
 11
1.994
 21
44.0816
  0
LINE
  8
0
 10
1.994
 20
44.0816
 11
1.88986
 21
44.0816
  0
LINE
  8
0
 10
1.88986
 20
44.0816
 11
-11.3103
 21
44.0816
  0
LINE
  8
0
 10
-11.3103
 20
44.0816
 11
-12.6636
 21
42.9259
  0
LINE
  8
0
 10
-12.6636
 20
42.9259
 11
-14.6123
 21
41.2616
  0
LINE
  8
0
 10
-14.6123
 20
41.2616
 11
-23.5597
 21
41.2616
  0
LINE
  8
0
 10
-23.5597
 20
41.2616
 11
-30.695
 21
41.2616
  0
LINE
  8
0
 10
-30.695
 20
41.2616
 11
-33.4992
 21
41.2616
  0
LINE
  8
0
 10
-33.4992
 20
41.2616
 11
-33.5341
 21
41.2616
  0
LINE
  8
0
 10
-33.5341
 20
41.2616
 11
-35.0245
 21
41.2616
  0
LINE
  8
0
 10
-35.0245
 20
41.2616
 11
-45.4196
 21
41.2616
  0
LINE
  8
0
 10
-45.4196
 20
41.2616
 11
-45.4567
 21
41.2616
  0
LINE
  8
0
 10
-45.4567
 20
41.2616
 11
-50.5977
 21
41.2616
  0
LINE
  8
0
 10
-50.5977
 20
41.2616
 11
-54.1854
 21
38.7233
  0
LINE
  8
0
 10
-54.1854
 20
38.7233
 11
-55.4943
 21
37.7973
  0
LINE
  8
0
 10
-55.4943
 20
37.7973
 11
-62.4943
 21
30.7973
  0
LINE
  8
0
 10
-62.4943
 20
30.7973
 11
-62.9738
 21
26.5625
  0
LINE
  8
0
 10
-62.9738
 20
26.5625
 11
-64.3341
 21
26.5625
  0
LINE
  8
0
 10
-64.3341
 20
26.5625
 11
-64.3655
 21
26.5474
  0
LINE
  8
0
 10
-64.3655
 20
26.5474
 11
-66.0394
 21
25.7413
  0
LINE
  8
0
 10
-66.0394
 20
25.7413
 11
-67.1978
 21
24.2887
  0
LINE
  8
0
 10
-67.1978
 20
24.2887
 11
-67.2195
 21
24.2615
  0
LINE
  8
0
 10
-67.2195
 20
24.2615
 11
-67.2273
 21
24.2275
  0
LINE
  8
0
 10
-67.2273
 20
24.2275
 11
-67.6407
 21
22.4161
  0
LINE
  8
0
 10
-67.6407
 20
22.4161
 11
-67.2273
 21
20.6048
  0
LINE
  8
0
 10
-67.2273
 20
20.6048
 11
-67.2195
 21
20.5708
  0
LINE
  8
0
 10
-67.2195
 20
20.5708
 11
-67.1978
 21
20.5436
  0
LINE
  8
0
 10
-67.1978
 20
20.5436
 11
-66.0394
 21
19.091
  0
LINE
  8
0
 10
-66.0394
 20
19.091
 11
-64.3655
 21
18.2849
  0
LINE
  8
0
 10
-64.3655
 20
18.2849
 11
-64.3341
 21
18.2698
  0
LINE
  8
0
 10
-64.3341
 20
18.2698
 11
-63.9129
 21
18.2698
  0
LINE
  8
0
 10
-63.9129
 20
18.2698
 11
-64.3811
 21
14.135
  0
LINE
  8
0
 10
-64.3811
 20
14.135
 11
-64.4963
 21
12.0648
  0
LINE
  8
0
 10
-64.4963
 20
12.0648
 11
-64.6849
 21
8.67499
  0
LINE
  8
0
 10
-64.6849
 20
8.67499
 11
-64.6849
 21
-8.67499
  0
LINE
  8
0
 10
-64.6849
 20
-8.67499
 11
-64.4963
 21
-12.0648
  0
LINE
  8
0
 10
-64.4963
 20
-12.0648
 11
-64.3811
 21
-14.135
  0
LINE
  8
0
 10
-64.3811
 20
-14.135
 11
-63.7729
 21
-19.5056
  0
LINE
  8
0
 10
-63.7729
 20
-19.5056
 11
-62.4943
 21
-30.7973
  0
LINE
  8
0
 10
-62.4943
 20
-30.7973
 11
-60.6946
 21
-34.1657
  0
LINE
  8
0
 10
-60.6946
 20
-34.1657
 11
-58.1845
 21
-38.8638
  0
LINE
  8
0
 10
-58.1845
 20
-38.8638
 11
-58.6263
 21
-39.2345
  0
LINE
  8
0
 10
-58.6263
 20
-39.2345
 11
-58.7533
 21
-39.1734
  0
LINE
  8
0
 10
-58.7533
 20
-39.1734
 11
-58.7847
 21
-39.1583
  0
LINE
  8
0
 10
-58.7847
 20
-39.1583
 11
-60.6774
 21
-39.1583
  0
LINE
  8
0
 10
-60.6774
 20
-39.1583
 11
-60.7088
 21
-39.1734
  0
LINE
  8
0
 10
-60.7088
 20
-39.1734
 11
-62.3828
 21
-39.9795
  0
LINE
  8
0
 10
-62.3828
 20
-39.9795
 11
-63.5412
 21
-41.4321
  0
LINE
  8
0
 10
-63.5412
 20
-41.4321
 11
-63.5629
 21
-41.4594
  0
LINE
  8
0
 10
-63.5629
 20
-41.4594
 11
-63.5706
 21
-41.4933
  0
LINE
  8
0
 10
-63.5706
 20
-41.4933
 11
-63.9841
 21
-43.3047
  0
LINE
  8
0
 10
-63.9841
 20
-43.3047
 11
-63.9025
 21
-43.6618
  0
LINE
  8
0
 10
-63.9025
 20
-43.6618
 11
-66.251
 21
-45.6324
  0
LINE
  8
0
 10
-66.251
 20
-45.6324
 11
-66.2643
 21
-45.6436
  0
LINE
  8
0
 10
-66.2643
 20
-45.6436
 11
-66.2643
 21
-45.6436
  0
LINE
  8
0
 10
-66.2643
 20
-45.6436
 11
-66.3104
 21
-45.6822
  0
LINE
  8
0
 10
-66.3104
 20
-45.6822
 11
-66.652
 21
-46.0988
  0
LINE
  8
0
 10
-66.652
 20
-46.0988
 11
-67.5663
 21
-47.2136
  0
LINE
  8
0
 10
-67.5663
 20
-47.2136
 11
-67.5663
 21
-47.2136
  0
LINE
  8
0
 10
-67.5663
 20
-47.2136
 11
-66.0564
 21
-51.0897
  0
LINE
  8
0
 10
-66.0564
 20
-51.0897
 11
-63.7665
 21
-56.9681
  0
LINE
  8
0
 10
-63.7665
 20
-56.9681
 11
-65.5852
 21
-59.2959
  0
LINE
  8
0
 10
-65.5852
 20
-59.2959
 11
-66.1459
 21
-60.0136
  0
LINE
  8
0
 10
-66.1459
 20
-60.0136
 11
-70.16
 21
-67.2943
  0
LINE
  8
0
 10
-70.16
 20
-67.2943
 11
-73.5077
 21
-73.3665
  0
LINE
  8
0
 10
-73.5077
 20
-73.3665
 11
-73.5313
 21
-73.4092
  0
LINE
  8
0
 10
-73.5313
 20
-73.4092
 11
-73.5674
 21
-73.4748
  0
LINE
  8
0
 10
-71.1412
 20
-75.2154
 11
-66.5573
 21
-67.1467
  0
LINE
  8
0
 10
-66.5573
 20
-67.1467
 11
-60.7482
 21
-56.9213
  0
LINE
  8
0
 10
-60.7482
 20
-56.9213
 11
-60.7123
 21
-56.8582
  0
LINE
  8
0
 10
-60.7123
 20
-56.8582
 11
-60.6917
 21
-56.8318
  0
LINE
  8
0
 10
-60.6917
 20
-56.8318
 11
-63.7175
 21
-49.719
  0
LINE
  8
0
 10
-63.7175
 20
-49.719
 11
-64.6606
 21
-47.5019
  0
LINE
  8
0
 10
-64.6606
 20
-47.5019
 11
-62.8793
 21
-46.0072
  0
LINE
  8
0
 10
-62.8793
 20
-46.0072
 11
-62.3828
 21
-46.6298
  0
LINE
  8
0
 10
-62.3828
 20
-46.6298
 11
-60.7088
 21
-47.4359
  0
LINE
  8
0
 10
-60.7088
 20
-47.4359
 11
-60.6774
 21
-47.4511
  0
LINE
  8
0
 10
-60.6774
 20
-47.4511
 11
-58.7847
 21
-47.4511
  0
LINE
  8
0
 10
-58.7847
 20
-47.4511
 11
-58.7533
 21
-47.4359
  0
LINE
  8
0
 10
-58.7533
 20
-47.4359
 11
-57.0793
 21
-46.6298
  0
LINE
  8
0
 10
-57.0793
 20
-46.6298
 11
-55.9209
 21
-45.1772
  0
LINE
  8
0
 10
-55.9209
 20
-45.1772
 11
-55.8992
 21
-45.15
  0
LINE
  8
0
 10
-55.8992
 20
-45.15
 11
-55.8915
 21
-45.116
  0
LINE
  8
0
 10
-55.8915
 20
-45.116
 11
-55.478
 21
-43.3047
  0
LINE
  8
0
 10
-55.478
 20
-43.3047
 11
-55.8915
 21
-41.4933
  0
LINE
  8
0
 10
-55.8915
 20
-41.4933
 11
-55.8992
 21
-41.4594
  0
LINE
  8
0
 10
-55.8992
 20
-41.4594
 11
-55.9209
 21
-41.4321
  0
LINE
  8
0
 10
-55.9209
 20
-41.4321
 11
-56.5247
 21
-40.675
  0
LINE
  8
0
 10
-56.5247
 20
-40.675
 11
-56.1655
 21
-40.3736
  0
LINE
  8
0
 10
-56.1655
 20
-40.3736
 11
-56.1655
 21
-40.3736
  0
LINE
  8
0
 10
-56.1655
 20
-40.3736
 11
-56.1273
 21
-40.3415
  0
LINE
  8
0
 10
-56.1273
 20
-40.3415
 11
-55.3711
 21
-39.4194
  0
LINE
  8
0
 10
-55.3711
 20
-39.4194
 11
-55.371
 21
-39.4194
  0
LINE
  8
0
 10
-55.371
 20
-39.4194
 11
-54.8714
 21
-38.8101
  0
LINE
  8
0
 10
-54.8714
 20
-38.8101
 11
-57.9151
 21
-34.339
  0
LINE
  8
0
 10
-57.9151
 20
-34.339
 11
-60.3943
 21
-30.6973
  0
LINE
  8
0
 10
-60.3943
 20
-30.6973
 11
-60.7791
 21
-27.2984
  0
LINE
  8
0
 10
-60.7791
 20
-27.2984
 11
-52.4382
 21
-27.2984
  0
LINE
  8
0
 10
-52.4382
 20
-27.2984
 11
-52.4382
 21
25.2984
  0
LINE
  8
0
 10
-52.4382
 20
25.2984
 11
-60.3828
 21
25.2984
  0
LINE
  8
0
 10
-60.3828
 20
25.2984
 11
-60.736
 21
25.7413
  0
LINE
  8
0
 10
-60.736
 20
25.7413
 11
-60.9441
 21
25.8415
  0
LINE
  8
0
 10
-60.9441
 20
25.8415
 11
-60.3943
 21
30.6973
  0
LINE
  8
0
 10
-60.3943
 20
30.6973
 11
-55.3943
 21
35.6973
  0
LINE
  8
0
 10
-55.3943
 20
35.6973
 11
-53.8695
 21
36.3561
  0
LINE
  8
0
 10
-53.8695
 20
36.3561
 11
-49.308
 21
38.3273
  0
LINE
  8
0
 10
-49.308
 20
38.3273
 11
-37.6774
 21
38.3273
  0
LINE
  8
0
 10
-37.6774
 20
38.3273
 11
-37.6588
 21
38.3273
  0
LINE
  8
0
 10
-37.6588
 20
38.3273
 11
-33.7925
 21
38.3273
  0
LINE
  8
0
 10
-33.7925
 20
38.3273
 11
-30.9424
 21
38.3273
  0
LINE
  8
0
 10
-30.9424
 20
38.3273
 11
-29.6902
 21
38.3273
  0
LINE
  8
0
 10
-29.6902
 20
38.3273
 11
-18.7607
 21
38.3273
  0
LINE
  8
0
 10
-18.7607
 20
38.3273
 11
-18.7361
 21
38.3273
  0
LINE
  8
0
 10
-18.7361
 20
38.3273
 11
-13.5479
 21
38.3273
  0
LINE
  8
0
 10
-13.5479
 20
38.3273
 11
-11.6945
 21
40.0307
  0
LINE
  8
0
 10
-11.6945
 20
40.0307
 11
-10.4794
 21
41.1473
  0
LINE
  8
0
 10
-10.4794
 20
41.1473
 11
-2.38951
 21
41.1473
  0
LINE
  8
0
 10
-2.38951
 20
41.1473
 11
5.98964
 21
41.1473
  0
LINE
  8
0
 10
5.98964
 20
41.1473
 11
8.94245
 21
39.6322
  0
LINE
  8
0
 10
8.94245
 20
39.6322
 11
11.4855
 21
38.3273
  0
LINE
  8
0
 10
11.4855
 20
38.3273
 11
15.3184
 21
38.3273
  0
LINE
  8
0
 10
15.3184
 20
38.3273
 11
15.4735
 21
37.6478
  0
LINE
  8
0
 10
15.4735
 20
37.6478
 11
15.4812
 21
37.6139
  0
LINE
  8
0
 10
15.4812
 20
37.6139
 11
15.5029
 21
37.5866
  0
LINE
  8
0
 10
15.5029
 20
37.5866
 11
16.6613
 21
36.134
  0
LINE
  8
0
 10
16.6613
 20
36.134
 11
18.3353
 21
35.3279
  0
LINE
  8
0
 10
18.3353
 20
35.3279
 11
18.3667
 21
35.3128
  0
LINE
  8
0
 10
18.3667
 20
35.3128
 11
20.2594
 21
35.3128
  0
LINE
  8
0
 10
20.2594
 20
35.3128
 11
20.2908
 21
35.3279
  0
LINE
  8
0
 10
20.2908
 20
35.3279
 11
21.9648
 21
36.134
  0
LINE
  8
0
 10
21.9648
 20
36.134
 11
23.1232
 21
37.5866
  0
LINE
  8
0
 10
23.1232
 20
37.5866
 11
23.1449
 21
37.6139
  0
LINE
  8
0
 10
23.1449
 20
37.6139
 11
23.1526
 21
37.6478
  0
LINE
  8
0
 10
23.1526
 20
37.6478
 11
23.3077
 21
38.3273
  0
LINE
  8
0
 10
23.3077
 20
38.3273
 11
28.2403
 21
38.3273
  0
LINE
  8
0
 10
28.2403
 20
38.3273
 11
29.0214
 21
36.7633
  0
LINE
  8
0
 10
29.0214
 20
36.7633
 11
34.2335
 21
26.3273
  0
LINE
  8
0
 10
34.2335
 20
26.3273
 11
43.0271
 21
26.3273
  0
LINE
  8
0
 10
43.0271
 20
26.3273
 11
51.3654
 21
26.3273
  0
LINE
  8
0
 10
51.3654
 20
26.3273
 11
53.4654
 21
26.3273
  0
LINE
  8
0
 10
53.4654
 20
26.3273
 11
55.8511
 21
26.3273
  0
LINE
  8
0
 10
55.8511
 20
26.3273
 11
72.9011
 21
26.3273
  0
LINE
  8
0
 10
72.9011
 20
26.3273
 11
75.2421
 21
24.0661
  0
LINE
  8
0
 10
75.2421
 20
24.0661
 11
77.9011
 21
21.4977
  0
LINE
  8
0
 10
77.9011
 20
21.4977
 11
77.9011
 21
14.4271
  0
LINE
  8
0
 10
77.9011
 20
14.4271
 11
77.9011
 21
6.66778
  0
LINE
  8
0
 10
77.9011
 20
6.66778
 11
77.8253
 21
5.78863
  0
LINE
  8
0
 10
77.8253
 20
5.78863
 11
77.8245
 21
5.77991
  0
LINE
  8
0
 10
77.8245
 20
5.77991
 11
77.8244
 21
5.77833
  0
LINE
  8
0
 10
77.8244
 20
5.77833
 11
77.4441
 21
-2.88774
  0
LINE
  8
0
 10
77.4441
 20
-2.88774
 11
77.4227
 21
-3.375
  0
LINE
  8
0
 10
77.4227
 20
-3.375
 11
77.4227
 21
-7.85361
  0
LINE
  8
0
 10
77.4227
 20
-7.85361
 11
77.0547
 21
-7.85361
  0
LINE
  8
0
 10
77.0547
 20
-7.85361
 11
77.0233
 21
-7.86873
  0
LINE
  8
0
 10
77.0233
 20
-7.86873
 11
75.3494
 21
-8.67486
  0
LINE
  8
0
 10
75.3494
 20
-8.67486
 11
74.191
 21
-10.1274
  0
LINE
  8
0
 10
74.191
 20
-10.1274
 11
74.1693
 21
-10.1547
  0
LINE
  8
0
 10
74.1693
 20
-10.1547
 11
74.1615
 21
-10.1887
  0
LINE
  8
0
 10
74.1615
 20
-10.1887
 11
73.7481
 21
-12
  0
LINE
  8
0
 10
73.7481
 20
-12
 11
74.1615
 21
-13.8113
  0
LINE
  8
0
 10
74.1615
 20
-13.8113
 11
74.1693
 21
-13.8453
  0
LINE
  8
0
 10
74.1693
 20
-13.8453
 11
74.191
 21
-13.8726
  0
LINE
  8
0
 10
74.191
 20
-13.8726
 11
75.3494
 21
-15.3251
  0
LINE
  8
0
 10
75.3494
 20
-15.3251
 11
77.0233
 21
-16.1313
  0
LINE
  8
0
 10
77.0233
 20
-16.1313
 11
77.0547
 21
-16.1464
  0
LINE
  8
0
 10
77.0547
 20
-16.1464
 11
77.4227
 21
-16.1464
  0
LINE
  8
0
 10
77.4227
 20
-16.1464
 11
77.4227
 21
-20.625
  0
LINE
  8
0
 10
77.4227
 20
-20.625
 11
77.4441
 21
-21.1123
  0
LINE
  8
0
 10
77.4441
 20
-21.1123
 11
77.8244
 21
-29.7783
  0
LINE
  8
0
 10
77.8244
 20
-29.7783
 11
77.8245
 21
-29.7799
  0
LINE
  8
0
 10
77.8245
 20
-29.7799
 11
77.8253
 21
-29.7886
  0
LINE
  8
0
 10
77.8253
 20
-29.7886
 11
77.9011
 21
-30.6678
  0
LINE
  8
0
 10
77.9011
 20
-30.6678
 11
77.9011
 21
-38.4271
  0
LINE
  8
0
 10
77.9011
 20
-38.4271
 11
77.9011
 21
-45.4977
  0
LINE
  8
0
 10
77.9011
 20
-45.4977
 11
75.2421
 21
-48.0661
  0
LINE
  8
0
 10
75.2421
 20
-48.0661
 11
72.9011
 21
-50.3273
  0
LINE
  8
0
 10
72.9011
 20
-50.3273
 11
55.8511
 21
-50.3273
  0
LINE
  8
0
 10
55.8511
 20
-50.3273
 11
53.4654
 21
-50.3273
  0
LINE
  8
0
 10
53.4654
 20
-50.3273
 11
51.3654
 21
-50.3273
  0
LINE
  8
0
 10
51.3654
 20
-50.3273
 11
43.0271
 21
-50.3273
  0
LINE
  8
0
 10
43.0271
 20
-50.3273
 11
34.2335
 21
-50.3273
  0
LINE
  8
0
 10
34.2335
 20
-50.3273
 11
34.0616
 21
-50.8557
  0
LINE
  8
0
 10
34.0616
 20
-50.8557
 11
33.9388
 21
-51.2332
  0
LINE
  8
0
 10
33.9388
 20
-51.2332
 11
33.9656
 21
-52.3804
  0
LINE
  8
0
 10
33.9656
 20
-52.3804
 11
33.9852
 21
-53.2196
  0
LINE
  8
0
 10
33.9852
 20
-53.2196
 11
33.9862
 21
-53.2616
  0
LINE
  8
0
 10
33.9862
 20
-53.2616
 11
33.9862
 21
-53.2616
  0
LINE
  8
0
 10
33.9862
 20
-53.2616
 11
34.0426
 21
-53.2616
  0
LINE
  8
0
 10
34.0426
 20
-53.2616
 11
37.4528
 21
-53.2616
  0
LINE
  8
0
 10
37.4528
 20
-53.2616
 11
36.1482
 21
-55.4348
  0
LINE
  8
0
 10
36.1482
 20
-55.4348
 11
33.0967
 21
-60.5177
  0
LINE
  8
0
 10
33.0967
 20
-60.5177
 11
26.9816
 21
-60.5177
  0
LINE
  8
0
 10
26.9816
 20
-60.5177
 11
13.7452
 21
-60.5177
  0
LINE
  8
0
 10
13.7452
 20
-60.5177
 11
9.68837
 21
-61.6416
  0
LINE
  8
0
 10
9.68837
 20
-61.6416
 11
4.56628
 21
-63.0608
  0
LINE
  8
0
 10
4.56628
 20
-63.0608
 11
4.22733
 21
-62.6357
  0
LINE
  8
0
 10
4.22733
 20
-62.6357
 11
2.5534
 21
-61.8296
  0
LINE
  8
0
 10
2.5534
 20
-61.8296
 11
2.522
 21
-61.8145
  0
LINE
  8
0
 10
2.522
 20
-61.8145
 11
0.629229
 21
-61.8145
  0
LINE
  8
0
 10
0.629229
 20
-61.8145
 11
0.597833
 21
-61.8296
  0
LINE
  8
0
 10
0.597833
 20
-61.8296
 11
-1.0761
 21
-62.6357
  0
LINE
  8
0
 10
-1.0761
 20
-62.6357
 11
-2.2345
 21
-64.0883
  0
LINE
  8
0
 10
-2.2345
 20
-64.0883
 11
-2.25622
 21
-64.1156
  0
LINE
  8
0
 10
-2.25622
 20
-64.1156
 11
-2.26398
 21
-64.1495
  0
LINE
  8
0
 10
-2.26398
 20
-64.1495
 11
-2.6774
 21
-65.9609
  0
LINE
  8
0
 10
-2.6774
 20
-65.9609
 11
-2.56389
 21
-66.4582
  0
LINE
  8
0
 10
-2.56389
 20
-66.4582
 11
-5.04355
 21
-68.0893
  0
LINE
  8
0
 10
-5.04355
 20
-68.0893
 11
-5.04389
 21
-68.0896
  0
LINE
  8
0
 10
-5.04389
 20
-68.0896
 11
-12.5739
 21
-73.0429
  0
LINE
  8
0
 10
-12.5739
 20
-73.0429
 11
-13.4364
 21
-73.7012
  0
LINE
  8
0
 10
-13.4364
 20
-73.7012
 11
-13.4365
 21
-73.7013
  0
LINE
  8
0
 10
-13.4365
 20
-73.7013
 11
-14.1483
 21
-74.2446
  0
LINE
  8
0
 10
-14.1483
 20
-74.2446
 11
-14.1483
 21
-74.2446
  0
LINE
  8
0
 10
-14.1483
 20
-74.2446
 11
-14.1815
 21
-74.2815
  0
LINE
  8
0
 10
-14.1815
 20
-74.2815
 11
-14.2037
 21
-74.3062
  0
LINE
  8
0
 10
-14.2037
 20
-74.3062
 11
-19.8663
 21
-80.5951
  0
LINE
  8
0
 10
-19.8663
 20
-80.5951
 11
-19.8665
 21
-80.5954
  0
LINE
  8
0
 10
-19.8665
 20
-80.5954
 11
-23.6979
 21
-84.8506
  0
LINE
  8
0
 10
-23.6979
 20
-84.8506
 11
-23.6979
 21
-84.8506
  0
LINE
  8
0
 10
-23.6979
 20
-84.8506
 11
-23.7174
 21
-84.8722
  0
LINE
  8
0
 10
-23.7174
 20
-84.8722
 11
-23.3887
 21
-86.5595
  0
LINE
  8
0
 10
-23.3887
 20
-86.5595
 11
-22.7826
 21
-89.6706
  0
LINE
  8
0
 10
-22.7826
 20
-89.6706
 11
-25.0144
 21
-92.7424
  0
LINE
  8
0
 10
-25.0144
 20
-92.7424
 11
-36.953
 21
-100.652
  0
LINE
  8
0
 10
-36.953
 20
-100.652
 11
-39.3919
 21
-100.684
  0
LINE
  8
0
 10
-39.3919
 20
-100.684
 11
-39.3919
 21
-100.684
  0
LINE
  8
0
 10
-39.3919
 20
-100.684
 11
-51.5603
 21
-90.0387
  0
LINE
  8
0
 10
-51.5603
 20
-90.0387
 11
-52.0337
 21
-89.6948
  0
LINE
  8
0
 10
-52.0337
 20
-89.6948
 11
-52.6988
 21
-89.2115
  0
LINE
  8
0
 10
-52.6988
 20
-89.2115
 11
-52.783
 21
-89.1504
  0
LINE
  8
0
 10
-52.783
 20
-89.1504
 11
-53.0688
 21
-88.9764
  0
LINE
  8
0
 10
-53.0688
 20
-88.9764
 11
-57.7808
 21
-87.5505
  0
LINE
  8
0
 10
-57.7808
 20
-87.5505
 11
-57.7808
 21
-87.5505
  0
LINE
  8
0
 10
-57.7808
 20
-87.5505
 11
-68.5127
 21
-78.7607
  0
LINE
  8
0
 10
-68.5127
 20
-78.7607
 11
-70.9947
 21
-76.7278
  0
LINE
  8
0
 10
-70.9947
 20
-76.7278
 11
-71.1412
 21
-75.2154
  0
LINE
  8
0
 10
-65.0877
 20
22.4161
 11
-64.2377
 21
23.8884
  0
LINE
  8
0
 10
-64.2377
 20
23.8884
 11
-62.5377
 21
23.8884
  0
LINE
  8
0
 10
-62.5377
 20
23.8884
 11
-61.6877
 21
22.4161
  0
LINE
  8
0
 10
-61.6877
 20
22.4161
 11
-62.5377
 21
20.9439
  0
LINE
  8
0
 10
-62.5377
 20
20.9439
 11
-64.2377
 21
20.9439
  0
LINE
  8
0
 10
-64.2377
 20
20.9439
 11
-65.0877
 21
22.4161
  0
LINE
  8
0
 10
-62.5849
 20
-8.575
 11
-62.5849
 21
8.575
  0
LINE
  8
0
 10
-62.5849
 20
8.575
 11
-62.4852
 21
10.366
  0
LINE
  8
0
 10
-62.4852
 20
10.366
 11
-62.2811
 21
14.035
  0
LINE
  8
0
 10
-62.2811
 20
14.035
 11
-61.7646
 21
18.5956
  0
LINE
  8
0
 10
-61.7646
 20
18.5956
 11
-61.4382
 21
18.7528
  0
LINE
  8
0
 10
-61.4382
 20
18.7528
 11
-61.4382
 21
-21.4784
  0
LINE
  8
0
 10
-61.4382
 20
-21.4784
 11
-61.7341
 21
-18.8656
  0
LINE
  8
0
 10
-61.7341
 20
-18.8656
 11
-62.2811
 21
-14.035
  0
LINE
  8
0
 10
-62.2811
 20
-14.035
 11
-62.4852
 21
-10.366
  0
LINE
  8
0
 10
-62.4852
 20
-10.366
 11
-62.5849
 21
-8.575
  0
LINE
  8
0
 10
-61.4311
 20
-43.3047
 11
-60.5811
 21
-41.8324
  0
LINE
  8
0
 10
-60.5811
 20
-41.8324
 11
-58.8811
 21
-41.8324
  0
LINE
  8
0
 10
-58.8811
 20
-41.8324
 11
-58.0311
 21
-43.3047
  0
LINE
  8
0
 10
-58.0311
 20
-43.3047
 11
-58.8811
 21
-44.7769
  0
LINE
  8
0
 10
-58.8811
 20
-44.7769
 11
-60.5811
 21
-44.7769
  0
LINE
  8
0
 10
-60.5811
 20
-44.7769
 11
-61.4311
 21
-43.3047
  0
LINE
  8
0
 10
-0.124385
 20
-65.9609
 11
0.725615
 21
-64.4886
  0
LINE
  8
0
 10
0.725615
 20
-64.4886
 11
2.42561
 21
-64.4886
  0
LINE
  8
0
 10
2.42561
 20
-64.4886
 11
3.27561
 21
-65.9609
  0
LINE
  8
0
 10
3.27561
 20
-65.9609
 11
2.42561
 21
-67.4331
  0
LINE
  8
0
 10
2.42561
 20
-67.4331
 11
0.725615
 21
-67.4331
  0
LINE
  8
0
 10
0.725615
 20
-67.4331
 11
-0.124385
 21
-65.9609
  0
LINE
  8
0
 10
17.613
 20
39.4592
 11
18.463
 21
40.9314
  0
LINE
  8
0
 10
18.463
 20
40.9314
 11
20.163
 21
40.9314
  0
LINE
  8
0
 10
20.163
 20
40.9314
 11
21.013
 21
39.4592
  0
LINE
  8
0
 10
21.013
 20
39.4592
 11
20.163
 21
37.9869
  0
LINE
  8
0
 10
20.163
 20
37.9869
 11
18.463
 21
37.9869
  0
LINE
  8
0
 10
18.463
 20
37.9869
 11
17.613
 21
39.4592
  0
LINE
  8
0
 10
76.3011
 20
-12
 11
77.1511
 21
-10.5278
  0
LINE
  8
0
 10
77.1511
 20
-10.5278
 11
78.8511
 21
-10.5278
  0
LINE
  8
0
 10
78.8511
 20
-10.5278
 11
79.7011
 21
-12
  0
LINE
  8
0
 10
79.7011
 20
-12
 11
78.8511
 21
-13.4722
  0
LINE
  8
0
 10
78.8511
 20
-13.4722
 11
77.1511
 21
-13.4722
  0
LINE
  8
0
 10
77.1511
 20
-13.4722
 11
76.3011
 21
-12
  0
ENDSEC
  0
SECTION
  2
OBJECTS
  0
DICTIONARY
  0
ENDSEC
  0
EOF
